{"glyphs":{"0":{"ha":863,"x_min":78,"x_max":786,"o":"m 432 -22 q 257 23 326 -22 q 149 142 188 68 q 94 306 110 217 q 78 482 78 394 q 98 660 78 569 q 161 826 118 750 q 272 948 204 901 q 438 994 340 994 q 606 949 539 994 q 713 828 674 903 q 769 665 753 754 q 786 489 786 576 q 767 313 786 403 q 706 147 747 222 q 597 24 664 71 q 432 -22 529 -22 m 440 32 q 539 69 500 32 q 601 169 578 107 q 633 308 624 232 q 643 460 643 383 q 633 629 643 544 q 600 785 624 714 q 536 899 576 856 q 435 942 496 942 q 334 904 375 942 q 268 804 293 867 q 232 665 243 742 q 221 511 221 589 q 226 388 221 453 q 247 259 232 322 q 286 144 261 196 q 349 63 311 93 q 440 32 386 32 z "},"1":{"ha":506,"x_min":25,"x_max":457,"o":"m 103 0 l 103 46 q 177 68 151 49 q 213 122 203 88 q 224 204 224 157 l 219 860 l 53 753 l 25 793 l 296 994 l 343 994 l 344 151 q 344 100 344 125 q 340 56 343 75 q 399 58 369 57 q 457 61 428 60 l 457 0 l 103 0 z "},"2":{"ha":746,"x_min":64,"x_max":674,"o":"m 64 0 q 87 131 64 74 q 149 235 110 188 q 237 328 188 283 q 338 424 286 374 q 468 583 428 510 q 508 725 508 657 q 494 827 508 778 q 442 908 479 876 q 338 940 404 940 q 236 912 281 940 q 176 842 192 883 q 196 812 190 828 q 201 781 201 796 q 195 753 201 768 q 174 726 189 738 q 133 715 158 715 q 86 739 103 717 q 69 792 69 761 q 88 856 69 821 q 142 923 106 892 q 233 974 179 954 q 360 994 288 994 q 467 981 415 994 q 561 939 519 968 q 627 862 603 910 q 651 743 651 814 q 637 668 651 708 q 590 581 622 628 q 506 483 557 535 q 379 369 454 431 q 224 223 285 292 q 154 106 164 154 l 400 99 q 520 99 468 97 q 602 120 572 100 q 632 194 632 140 l 674 194 l 665 0 l 64 0 z "},"3":{"ha":774,"x_min":61,"x_max":704,"o":"m 354 -22 q 189 8 254 -22 q 92 82 124 38 q 61 167 61 126 q 78 220 61 199 q 125 243 94 242 q 165 234 150 244 q 185 208 179 224 q 190 181 190 193 q 186 153 190 167 q 175 125 182 139 q 238 57 189 78 q 344 36 288 36 q 502 90 443 36 q 561 247 561 144 q 542 363 561 308 q 469 453 522 418 q 315 485 417 488 q 292 484 304 485 q 264 482 279 483 l 264 544 q 293 544 279 544 q 321 544 307 544 q 436 578 394 544 q 496 657 478 611 q 514 742 514 703 q 499 844 514 799 q 449 915 485 889 q 349 940 413 940 q 242 908 286 940 q 186 840 197 875 q 203 813 199 826 q 208 783 208 799 q 202 758 208 772 q 182 733 196 743 q 144 724 168 724 q 100 744 115 724 q 85 794 85 765 q 115 880 85 833 q 209 960 146 926 q 368 994 272 994 q 507 971 443 994 q 610 894 571 947 q 649 753 649 840 q 627 666 649 710 q 556 585 606 622 q 421 521 507 547 q 628 436 553 507 q 704 257 704 365 q 655 101 704 163 q 526 8 606 39 q 354 -22 446 -22 z "},"4":{"ha":753,"x_min":17,"x_max":706,"o":"m 565 151 q 565 99 565 124 q 560 53 564 74 q 614 55 588 54 q 667 57 640 56 l 667 0 l 318 0 l 318 46 l 328 46 q 399 72 375 50 q 431 132 422 94 q 439 221 439 169 l 439 268 l 17 268 l 17 336 l 519 994 l 565 994 l 565 351 l 706 350 l 706 268 l 565 268 l 565 151 m 436 797 l 108 358 l 439 354 l 439 797 l 436 797 z "},"5":{"ha":757,"x_min":72,"x_max":694,"o":"m 353 -22 q 201 8 264 -22 q 106 82 139 38 q 72 167 72 126 q 89 220 72 199 q 136 243 106 242 q 176 234 161 244 q 196 208 190 224 q 201 181 201 193 q 197 153 201 167 q 186 126 193 139 q 221 72 192 93 q 288 40 250 50 q 358 32 326 31 q 468 69 426 35 q 530 156 510 103 q 550 267 550 208 q 544 353 550 306 q 516 442 538 400 q 451 513 494 485 q 335 540 408 540 q 277 535 311 540 q 209 518 243 529 q 151 492 175 507 l 113 528 l 110 972 l 469 972 q 578 994 549 972 q 608 1063 608 1015 l 646 1063 l 638 879 l 174 869 l 174 564 q 260 590 207 578 q 375 603 314 603 q 522 576 461 603 q 620 503 582 549 q 676 403 658 458 q 694 292 694 349 q 647 119 694 189 q 521 13 599 49 q 353 -22 443 -22 z "},"6":{"ha":803,"x_min":78,"x_max":735,"o":"m 410 -22 q 213 36 286 -22 q 109 202 140 94 q 78 457 78 310 q 87 576 78 507 q 119 717 96 644 q 185 853 143 790 q 294 956 228 917 q 456 994 361 994 q 593 965 539 994 q 674 894 647 935 q 701 818 701 853 q 687 769 701 789 q 642 746 672 749 q 593 765 607 744 q 579 804 579 786 q 583 833 579 818 q 596 863 588 849 q 552 915 589 888 q 458 943 515 943 q 351 910 394 943 q 280 822 307 876 q 238 706 253 768 q 216 588 222 644 q 208 490 210 531 q 265 547 232 521 q 343 590 299 574 q 442 607 388 607 q 581 578 525 607 q 672 504 638 550 q 720 403 706 458 q 735 296 735 349 q 692 137 735 210 q 576 21 650 64 q 410 -22 503 -22 m 413 32 q 518 65 478 32 q 576 151 558 97 q 594 265 594 204 q 588 352 594 304 q 562 444 581 400 q 507 516 543 488 q 413 544 471 544 q 328 523 369 544 q 255 467 286 501 q 210 392 224 432 q 226 261 214 325 q 260 146 238 197 q 321 63 283 94 q 413 32 358 32 z "},"7":{"ha":640,"x_min":31,"x_max":613,"o":"m 271 -22 q 233 -3 244 -19 q 222 39 222 14 q 238 118 222 69 q 276 222 254 167 q 317 322 299 276 q 379 481 343 388 q 459 677 415 574 q 549 876 503 781 l 182 875 q 95 849 126 874 q 64 767 64 824 l 31 767 l 31 972 l 613 972 l 613 878 q 526 679 563 774 q 460 490 489 585 q 404 290 431 394 q 347 63 378 186 q 322 3 339 29 q 271 -22 304 -24 z "},"8":{"ha":781,"x_min":82,"x_max":711,"o":"m 383 -22 q 282 -10 335 -22 q 184 28 229 1 q 110 99 139 54 q 82 208 82 143 q 113 323 82 271 q 191 417 143 375 q 293 493 239 460 q 144 620 188 557 q 101 743 101 683 q 127 856 101 808 q 196 935 153 904 q 291 980 239 965 q 396 994 343 994 q 528 969 467 994 q 628 893 590 943 q 667 771 667 843 q 641 671 667 717 q 573 590 615 625 q 479 528 531 554 q 594 445 542 492 q 679 344 647 399 q 711 231 711 290 q 665 87 711 143 q 544 4 619 31 q 383 -22 469 -22 m 386 33 q 526 78 476 32 q 575 204 575 124 q 524 345 575 276 q 346 468 474 414 q 235 349 269 413 q 199 233 201 285 q 245 90 193 144 q 386 33 297 35 m 431 556 q 524 650 492 597 q 558 754 557 703 q 517 892 561 844 q 399 940 472 939 q 307 917 344 942 q 250 855 269 893 q 231 774 231 817 q 288 641 231 697 q 431 556 346 585 z "},"9":{"ha":803,"x_min":67,"x_max":721,"o":"m 357 -22 q 210 5 267 -22 q 129 72 154 32 q 104 149 104 113 q 119 200 104 179 q 165 222 135 221 q 213 202 199 224 q 228 163 228 181 q 223 134 228 149 q 208 106 218 119 q 251 53 218 75 q 350 31 283 31 q 457 61 414 31 q 526 142 500 92 q 567 253 553 193 q 585 374 581 314 q 590 481 590 433 q 497 399 556 433 q 357 364 439 364 q 217 392 274 364 q 128 467 161 421 q 81 567 96 513 q 67 674 67 621 q 107 837 67 764 q 221 952 147 910 q 394 994 294 994 q 556 957 493 994 q 656 852 619 919 q 706 694 692 785 q 721 499 721 604 q 713 367 721 438 q 684 228 706 297 q 622 103 663 160 q 517 13 582 47 q 357 -22 451 -22 m 386 426 q 472 448 431 426 q 544 504 513 469 q 589 579 576 539 q 574 708 585 644 q 540 825 563 772 q 479 910 517 878 q 385 942 442 942 q 285 908 325 942 q 224 819 244 874 q 204 704 204 765 q 211 617 204 665 q 237 526 218 569 q 292 454 256 482 q 386 426 328 426 z "},"A":{"ha":869,"x_min":-8,"x_max":886,"o":"m -8 0 l -8 46 q 56 68 33 46 q 92 129 78 90 q 126 219 107 168 l 413 999 l 446 999 l 756 208 q 781 133 767 179 q 792 56 794 88 q 839 58 815 57 q 886 61 863 60 l 886 0 l 568 0 l 568 46 q 638 69 621 47 q 650 122 654 92 q 636 178 646 153 l 588 308 l 226 300 l 178 151 q 160 99 168 118 q 143 56 153 79 q 198 58 171 57 q 251 61 225 60 l 251 0 l -8 0 m 247 360 l 568 360 l 469 625 q 438 710 454 668 q 407 796 422 753 l 404 796 q 376 718 390 757 q 346 639 361 679 l 247 360 z "},"Á":{"ha":869,"x_min":-8,"x_max":886,"o":"m 379 1056 l 349 1096 l 524 1263 q 572 1288 551 1286 q 603 1281 592 1289 q 617 1269 615 1274 q 624 1249 621 1264 q 620 1217 628 1235 q 581 1179 613 1199 l 379 1056 m -8 0 l -8 46 q 56 68 33 46 q 92 129 78 90 q 126 219 107 168 l 413 999 l 446 999 l 756 208 q 781 133 767 179 q 792 56 794 88 q 839 58 815 57 q 886 61 863 60 l 886 0 l 568 0 l 568 46 q 638 69 621 47 q 650 122 654 92 q 636 178 646 153 l 588 308 l 226 300 l 178 151 q 160 99 168 118 q 143 56 153 79 q 198 58 171 57 q 251 61 225 60 l 251 0 l -8 0 m 247 360 l 568 360 l 469 625 q 438 710 454 668 q 407 796 422 753 l 404 796 q 376 718 390 757 q 346 639 361 679 l 247 360 z "},"Ă":{"ha":869,"x_min":-8,"x_max":886,"o":"m -8 0 l -8 46 q 56 68 33 46 q 92 129 78 90 q 126 219 107 168 l 413 999 l 446 999 l 756 208 q 781 133 767 179 q 792 56 794 88 q 839 58 815 57 q 886 61 863 60 l 886 0 l 568 0 l 568 46 q 638 69 621 47 q 650 122 654 92 q 636 178 646 153 l 588 308 l 226 300 l 178 151 q 160 99 168 118 q 143 56 153 79 q 198 58 171 57 q 251 61 225 60 l 251 0 l -8 0 m 247 360 l 568 360 l 469 625 q 438 710 454 668 q 407 796 422 753 l 404 796 q 376 718 390 757 q 346 639 361 679 l 247 360 m 429 1124 q 349 1140 388 1124 q 278 1189 310 1157 q 226 1267 247 1221 l 263 1283 q 331 1231 285 1254 q 429 1208 376 1208 q 528 1231 482 1208 q 596 1283 574 1254 l 633 1267 q 581 1189 613 1221 q 510 1140 549 1157 q 429 1124 472 1124 z "},"Ắ":{"ha":869,"x_min":-8,"x_max":886,"o":"m -8 0 l -8 46 q 56 68 33 46 q 92 129 78 90 q 126 219 107 168 l 413 999 l 446 999 l 756 208 q 781 133 767 179 q 792 56 794 88 q 839 58 815 57 q 886 61 863 60 l 886 0 l 568 0 l 568 46 q 638 69 621 47 q 650 122 654 92 q 636 178 646 153 l 588 308 l 226 300 l 178 151 q 160 99 168 118 q 143 56 153 79 q 198 58 171 57 q 251 61 225 60 l 251 0 l -8 0 m 247 360 l 568 360 l 469 625 q 438 710 454 668 q 407 796 422 753 l 404 796 q 376 718 390 757 q 346 639 361 679 l 247 360 m 426 1117 q 353 1134 390 1117 q 287 1188 317 1151 q 239 1278 257 1224 l 279 1299 q 342 1231 300 1260 q 431 1201 383 1201 q 520 1232 479 1201 q 581 1301 561 1263 l 618 1285 q 540 1159 588 1201 q 426 1117 492 1117 m 439 1281 l 400 1313 l 517 1500 q 557 1535 538 1531 q 590 1535 576 1540 q 607 1526 604 1529 q 619 1508 613 1522 q 623 1474 626 1494 q 594 1428 619 1454 l 439 1281 z "},"Ặ":{"ha":869,"x_min":-8,"x_max":886,"o":"m 435 -256 q 388 -235 408 -256 q 368 -182 368 -214 q 388 -130 368 -151 q 436 -108 408 -108 q 483 -130 464 -108 q 503 -182 503 -151 q 482 -235 503 -214 q 435 -256 461 -256 m -8 0 l -8 46 q 56 68 33 46 q 92 129 78 90 q 126 219 107 168 l 413 999 l 446 999 l 756 208 q 781 133 767 179 q 792 56 794 88 q 839 58 815 57 q 886 61 863 60 l 886 0 l 568 0 l 568 46 q 638 69 621 47 q 650 122 654 92 q 636 178 646 153 l 588 308 l 226 300 l 178 151 q 160 99 168 118 q 143 56 153 79 q 198 58 171 57 q 251 61 225 60 l 251 0 l -8 0 m 247 360 l 568 360 l 469 625 q 438 710 454 668 q 407 796 422 753 l 404 796 q 376 718 390 757 q 346 639 361 679 l 247 360 m 429 1124 q 349 1140 388 1124 q 278 1189 310 1157 q 226 1267 247 1221 l 263 1283 q 331 1231 285 1254 q 429 1208 376 1208 q 528 1231 482 1208 q 596 1283 574 1254 l 633 1267 q 581 1189 613 1221 q 510 1140 549 1157 q 429 1124 472 1124 z "},"Ằ":{"ha":869,"x_min":-8,"x_max":886,"o":"m -8 0 l -8 46 q 56 68 33 46 q 92 129 78 90 q 126 219 107 168 l 413 999 l 446 999 l 756 208 q 781 133 767 179 q 792 56 794 88 q 839 58 815 57 q 886 61 863 60 l 886 0 l 568 0 l 568 46 q 638 69 621 47 q 650 122 654 92 q 636 178 646 153 l 588 308 l 226 300 l 178 151 q 160 99 168 118 q 143 56 153 79 q 198 58 171 57 q 251 61 225 60 l 251 0 l -8 0 m 247 360 l 568 360 l 469 625 q 438 710 454 668 q 407 796 422 753 l 404 796 q 376 718 390 757 q 346 639 361 679 l 247 360 m 426 1117 q 353 1134 390 1117 q 287 1188 317 1151 q 239 1278 257 1224 l 279 1299 q 342 1231 300 1260 q 431 1201 383 1201 q 520 1232 479 1201 q 581 1301 561 1263 l 618 1285 q 540 1159 588 1201 q 426 1117 492 1117 m 428 1267 l 272 1414 q 244 1460 247 1440 q 247 1494 240 1481 q 260 1513 254 1508 q 277 1521 264 1515 q 310 1522 290 1526 q 350 1486 329 1517 l 467 1299 l 428 1267 z "},"Ẳ":{"ha":869,"x_min":-8,"x_max":886,"o":"m -8 0 l -8 46 q 56 68 33 46 q 92 129 78 90 q 126 219 107 168 l 413 999 l 446 999 l 756 208 q 781 133 767 179 q 792 56 794 88 q 839 58 815 57 q 886 61 863 60 l 886 0 l 568 0 l 568 46 q 638 69 621 47 q 650 122 654 92 q 636 178 646 153 l 588 308 l 226 300 l 178 151 q 160 99 168 118 q 143 56 153 79 q 198 58 171 57 q 251 61 225 60 l 251 0 l -8 0 m 247 360 l 568 360 l 469 625 q 438 710 454 668 q 407 796 422 753 l 404 796 q 376 718 390 757 q 346 639 361 679 l 247 360 m 426 1117 q 353 1134 390 1117 q 287 1188 317 1151 q 239 1278 257 1224 l 279 1299 q 342 1231 300 1260 q 431 1201 383 1201 q 520 1232 479 1201 q 581 1301 561 1263 l 618 1285 q 540 1159 588 1201 q 426 1117 492 1117 m 410 1294 q 427 1336 410 1319 q 463 1368 444 1353 q 483 1395 476 1379 q 489 1425 489 1411 q 469 1475 489 1453 q 415 1497 450 1497 q 372 1484 390 1497 q 350 1456 353 1471 q 356 1446 353 1451 q 358 1433 358 1440 q 345 1407 358 1417 q 315 1397 332 1397 q 284 1410 299 1397 q 269 1450 269 1422 q 286 1496 269 1474 q 335 1533 303 1518 q 414 1547 368 1547 q 526 1512 488 1547 q 565 1435 565 1476 q 549 1379 565 1400 q 508 1339 533 1358 q 479 1316 492 1326 q 467 1294 467 1306 l 410 1294 z "},"Ẵ":{"ha":869,"x_min":-8,"x_max":886,"o":"m -8 0 l -8 46 q 56 68 33 46 q 92 129 78 90 q 126 219 107 168 l 413 999 l 446 999 l 756 208 q 781 133 767 179 q 792 56 794 88 q 839 58 815 57 q 886 61 863 60 l 886 0 l 568 0 l 568 46 q 638 69 621 47 q 650 122 654 92 q 636 178 646 153 l 588 308 l 226 300 l 178 151 q 160 99 168 118 q 143 56 153 79 q 198 58 171 57 q 251 61 225 60 l 251 0 l -8 0 m 247 360 l 568 360 l 469 625 q 438 710 454 668 q 407 796 422 753 l 404 796 q 376 718 390 757 q 346 639 361 679 l 247 360 m 426 1117 q 353 1134 390 1117 q 287 1188 317 1151 q 239 1278 257 1224 l 279 1299 q 342 1231 300 1260 q 431 1201 383 1201 q 520 1232 479 1201 q 581 1301 561 1263 l 618 1285 q 540 1159 588 1201 q 426 1117 492 1117 m 672 1446 q 608 1346 650 1378 q 531 1314 567 1314 q 456 1333 488 1314 q 400 1370 425 1351 q 349 1389 375 1389 q 295 1376 324 1389 q 247 1331 267 1363 l 206 1354 q 266 1438 224 1403 q 347 1474 308 1472 q 421 1456 392 1475 q 475 1419 450 1438 q 531 1400 500 1400 q 588 1418 561 1400 q 632 1467 615 1436 l 672 1446 z "},"Ǎ":{"ha":869,"x_min":-8,"x_max":886,"o":"m -8 0 l -8 46 q 56 68 33 46 q 92 129 78 90 q 126 219 107 168 l 413 999 l 446 999 l 756 208 q 781 133 767 179 q 792 56 794 88 q 839 58 815 57 q 886 61 863 60 l 886 0 l 568 0 l 568 46 q 638 69 621 47 q 650 122 654 92 q 636 178 646 153 l 588 308 l 226 300 l 178 151 q 160 99 168 118 q 143 56 153 79 q 198 58 171 57 q 251 61 225 60 l 251 0 l -8 0 m 247 360 l 568 360 l 469 625 q 438 710 454 668 q 407 796 422 753 l 404 796 q 376 718 390 757 q 346 639 361 679 l 247 360 m 421 1083 l 165 1279 l 196 1326 l 429 1204 l 665 1329 l 693 1285 l 424 1083 l 421 1083 z "},"Â":{"ha":869,"x_min":-8,"x_max":886,"o":"m -8 0 l -8 46 q 56 68 33 46 q 92 129 78 90 q 126 219 107 168 l 413 999 l 446 999 l 756 208 q 781 133 767 179 q 792 56 794 88 q 839 58 815 57 q 886 61 863 60 l 886 0 l 568 0 l 568 46 q 638 69 621 47 q 650 122 654 92 q 636 178 646 153 l 588 308 l 226 300 l 178 151 q 160 99 168 118 q 143 56 153 79 q 198 58 171 57 q 251 61 225 60 l 251 0 l -8 0 m 247 360 l 568 360 l 469 625 q 438 710 454 668 q 407 796 422 753 l 404 796 q 376 718 390 757 q 346 639 361 679 l 247 360 m 610 1056 l 431 1172 l 254 1056 l 219 1096 l 435 1293 l 438 1293 l 642 1097 l 610 1056 z "},"Ấ":{"ha":869,"x_min":-8,"x_max":886,"o":"m -8 0 l -8 46 q 56 68 33 46 q 92 129 78 90 q 126 219 107 168 l 413 999 l 446 999 l 756 208 q 781 133 767 179 q 792 56 794 88 q 839 58 815 57 q 886 61 863 60 l 886 0 l 568 0 l 568 46 q 638 69 621 47 q 650 122 654 92 q 636 178 646 153 l 588 308 l 226 300 l 178 151 q 160 99 168 118 q 143 56 153 79 q 198 58 171 57 q 251 61 225 60 l 251 0 l -8 0 m 247 360 l 568 360 l 469 625 q 438 710 454 668 q 407 796 422 753 l 404 796 q 376 718 390 757 q 346 639 361 679 l 247 360 m 579 1042 l 431 1138 l 285 1042 l 256 1075 l 435 1238 l 436 1238 l 606 1076 l 579 1042 m 639 1144 l 600 1176 l 717 1364 q 757 1399 738 1394 q 790 1399 776 1404 q 807 1390 804 1393 q 819 1372 813 1386 q 823 1338 826 1358 q 794 1292 819 1318 l 639 1144 z "},"Ậ":{"ha":869,"x_min":-8,"x_max":886,"o":"m 435 -256 q 388 -235 408 -256 q 368 -182 368 -214 q 388 -130 368 -151 q 436 -108 408 -108 q 483 -130 464 -108 q 503 -182 503 -151 q 482 -235 503 -214 q 435 -256 461 -256 m -8 0 l -8 46 q 56 68 33 46 q 92 129 78 90 q 126 219 107 168 l 413 999 l 446 999 l 756 208 q 781 133 767 179 q 792 56 794 88 q 839 58 815 57 q 886 61 863 60 l 886 0 l 568 0 l 568 46 q 638 69 621 47 q 650 122 654 92 q 636 178 646 153 l 588 308 l 226 300 l 178 151 q 160 99 168 118 q 143 56 153 79 q 198 58 171 57 q 251 61 225 60 l 251 0 l -8 0 m 247 360 l 568 360 l 469 625 q 438 710 454 668 q 407 796 422 753 l 404 796 q 376 718 390 757 q 346 639 361 679 l 247 360 m 610 1056 l 431 1172 l 254 1056 l 219 1096 l 435 1293 l 438 1293 l 642 1097 l 610 1056 z "},"Ầ":{"ha":869,"x_min":-8,"x_max":886,"o":"m -8 0 l -8 46 q 56 68 33 46 q 92 129 78 90 q 126 219 107 168 l 413 999 l 446 999 l 756 208 q 781 133 767 179 q 792 56 794 88 q 839 58 815 57 q 886 61 863 60 l 886 0 l 568 0 l 568 46 q 638 69 621 47 q 650 122 654 92 q 636 178 646 153 l 588 308 l 226 300 l 178 151 q 160 99 168 118 q 143 56 153 79 q 198 58 171 57 q 251 61 225 60 l 251 0 l -8 0 m 247 360 l 568 360 l 469 625 q 438 710 454 668 q 407 796 422 753 l 404 796 q 376 718 390 757 q 346 639 361 679 l 247 360 m 579 1042 l 431 1138 l 285 1042 l 256 1075 l 435 1238 l 436 1238 l 606 1076 l 579 1042 m 608 1188 l 453 1335 q 424 1381 428 1361 q 428 1415 421 1401 q 440 1433 435 1429 q 458 1442 444 1436 q 490 1442 471 1447 q 531 1407 510 1438 l 647 1219 l 608 1188 z "},"Ẩ":{"ha":869,"x_min":-8,"x_max":886,"o":"m -8 0 l -8 46 q 56 68 33 46 q 92 129 78 90 q 126 219 107 168 l 413 999 l 446 999 l 756 208 q 781 133 767 179 q 792 56 794 88 q 839 58 815 57 q 886 61 863 60 l 886 0 l 568 0 l 568 46 q 638 69 621 47 q 650 122 654 92 q 636 178 646 153 l 588 308 l 226 300 l 178 151 q 160 99 168 118 q 143 56 153 79 q 198 58 171 57 q 251 61 225 60 l 251 0 l -8 0 m 247 360 l 568 360 l 469 625 q 438 710 454 668 q 407 796 422 753 l 404 796 q 376 718 390 757 q 346 639 361 679 l 247 360 m 579 1042 l 431 1138 l 285 1042 l 256 1075 l 435 1238 l 436 1238 l 606 1076 l 579 1042 m 589 1176 q 606 1218 589 1201 q 642 1250 624 1235 q 662 1277 656 1261 q 668 1307 668 1293 q 649 1357 668 1335 q 594 1379 629 1379 q 551 1366 569 1379 q 529 1338 532 1353 q 535 1328 532 1333 q 538 1315 538 1322 q 524 1289 538 1299 q 494 1279 511 1279 q 463 1292 478 1279 q 449 1332 449 1304 q 465 1378 449 1356 q 515 1415 482 1400 q 593 1429 547 1429 q 706 1394 667 1429 q 744 1317 744 1358 q 728 1261 744 1282 q 688 1221 713 1240 q 658 1198 671 1208 q 646 1176 646 1188 l 589 1176 z "},"Ẫ":{"ha":869,"x_min":-8,"x_max":886,"o":"m -8 0 l -8 46 q 56 68 33 46 q 92 129 78 90 q 126 219 107 168 l 413 999 l 446 999 l 756 208 q 781 133 767 179 q 792 56 794 88 q 839 58 815 57 q 886 61 863 60 l 886 0 l 568 0 l 568 46 q 638 69 621 47 q 650 122 654 92 q 636 178 646 153 l 588 308 l 226 300 l 178 151 q 160 99 168 118 q 143 56 153 79 q 198 58 171 57 q 251 61 225 60 l 251 0 l -8 0 m 247 360 l 568 360 l 469 625 q 438 710 454 668 q 407 796 422 753 l 404 796 q 376 718 390 757 q 346 639 361 679 l 247 360 m 579 1042 l 431 1138 l 285 1042 l 256 1075 l 435 1238 l 436 1238 l 606 1076 l 579 1042 m 689 1388 q 625 1288 667 1319 q 547 1256 583 1256 q 473 1274 504 1256 q 417 1312 442 1293 q 365 1331 392 1331 q 312 1317 340 1331 q 264 1272 283 1304 l 222 1296 q 283 1379 240 1344 q 364 1415 325 1414 q 438 1398 408 1417 q 492 1360 467 1379 q 547 1342 517 1342 q 605 1360 578 1342 q 649 1408 632 1378 l 689 1388 z "},"Ä":{"ha":869,"x_min":-8,"x_max":886,"o":"m -8 0 l -8 46 q 56 68 33 46 q 92 129 78 90 q 126 219 107 168 l 413 999 l 446 999 l 756 208 q 781 133 767 179 q 792 56 794 88 q 839 58 815 57 q 886 61 863 60 l 886 0 l 568 0 l 568 46 q 638 69 621 47 q 650 122 654 92 q 636 178 646 153 l 588 308 l 226 300 l 178 151 q 160 99 168 118 q 143 56 153 79 q 198 58 171 57 q 251 61 225 60 l 251 0 l -8 0 m 247 360 l 568 360 l 469 625 q 438 710 454 668 q 407 796 422 753 l 404 796 q 376 718 390 757 q 346 639 361 679 l 247 360 m 304 1078 q 251 1103 274 1078 q 229 1165 229 1129 q 252 1228 229 1203 q 306 1254 275 1254 q 359 1228 338 1254 q 381 1165 381 1203 q 358 1103 381 1129 q 304 1078 335 1078 m 554 1078 q 501 1103 524 1078 q 479 1165 479 1129 q 502 1228 479 1203 q 556 1254 525 1254 q 608 1228 588 1254 q 629 1165 629 1203 q 607 1103 629 1129 q 554 1078 585 1078 z "},"Ạ":{"ha":869,"x_min":-8,"x_max":886,"o":"m 435 -256 q 388 -235 408 -256 q 368 -182 368 -214 q 388 -130 368 -151 q 436 -108 408 -108 q 483 -130 464 -108 q 503 -182 503 -151 q 482 -235 503 -214 q 435 -256 461 -256 m -8 0 l -8 46 q 56 68 33 46 q 92 129 78 90 q 126 219 107 168 l 413 999 l 446 999 l 756 208 q 781 133 767 179 q 792 56 794 88 q 839 58 815 57 q 886 61 863 60 l 886 0 l 568 0 l 568 46 q 638 69 621 47 q 650 122 654 92 q 636 178 646 153 l 588 308 l 226 300 l 178 151 q 160 99 168 118 q 143 56 153 79 q 198 58 171 57 q 251 61 225 60 l 251 0 l -8 0 m 247 360 l 568 360 l 469 625 q 438 710 454 668 q 407 796 422 753 l 404 796 q 376 718 390 757 q 346 639 361 679 l 247 360 z "},"À":{"ha":869,"x_min":-8,"x_max":886,"o":"m -8 0 l -8 46 q 56 68 33 46 q 92 129 78 90 q 126 219 107 168 l 413 999 l 446 999 l 756 208 q 781 133 767 179 q 792 56 794 88 q 839 58 815 57 q 886 61 863 60 l 886 0 l 568 0 l 568 46 q 638 69 621 47 q 650 122 654 92 q 636 178 646 153 l 588 308 l 226 300 l 178 151 q 160 99 168 118 q 143 56 153 79 q 198 58 171 57 q 251 61 225 60 l 251 0 l -8 0 m 247 360 l 568 360 l 469 625 q 438 710 454 668 q 407 796 422 753 l 404 796 q 376 718 390 757 q 346 639 361 679 l 247 360 m 479 1056 l 278 1179 q 239 1217 247 1199 q 234 1249 231 1235 q 242 1269 238 1264 q 256 1281 244 1274 q 288 1288 268 1289 q 335 1263 308 1286 l 510 1096 l 479 1056 z "},"Ả":{"ha":869,"x_min":-8,"x_max":886,"o":"m -8 0 l -8 46 q 56 68 33 46 q 92 129 78 90 q 126 219 107 168 l 413 999 l 446 999 l 756 208 q 781 133 767 179 q 792 56 794 88 q 839 58 815 57 q 886 61 863 60 l 886 0 l 568 0 l 568 46 q 638 69 621 47 q 650 122 654 92 q 636 178 646 153 l 588 308 l 226 300 l 178 151 q 160 99 168 118 q 143 56 153 79 q 198 58 171 57 q 251 61 225 60 l 251 0 l -8 0 m 247 360 l 568 360 l 469 625 q 438 710 454 668 q 407 796 422 753 l 404 796 q 376 718 390 757 q 346 639 361 679 l 247 360 m 407 1064 q 424 1106 407 1089 q 460 1138 442 1122 q 480 1165 474 1149 q 486 1194 486 1181 q 467 1244 486 1222 q 413 1267 447 1267 q 369 1253 388 1267 q 347 1225 350 1240 q 353 1215 350 1221 q 356 1203 356 1210 q 342 1176 356 1186 q 313 1167 329 1167 q 281 1179 296 1167 q 267 1219 267 1192 q 283 1265 267 1243 q 333 1302 300 1288 q 411 1317 365 1317 q 524 1281 485 1317 q 563 1204 563 1246 q 547 1149 563 1169 q 506 1108 531 1128 q 476 1085 489 1096 q 464 1064 464 1075 l 407 1064 z "},"Ā":{"ha":869,"x_min":-8,"x_max":886,"o":"m -8 0 l -8 46 q 56 68 33 46 q 92 129 78 90 q 126 219 107 168 l 413 999 l 446 999 l 756 208 q 781 133 767 179 q 792 56 794 88 q 839 58 815 57 q 886 61 863 60 l 886 0 l 568 0 l 568 46 q 638 69 621 47 q 650 122 654 92 q 636 178 646 153 l 588 308 l 226 300 l 178 151 q 160 99 168 118 q 143 56 153 79 q 198 58 171 57 q 251 61 225 60 l 251 0 l -8 0 m 247 360 l 568 360 l 469 625 q 438 710 454 668 q 407 796 422 753 l 404 796 q 376 718 390 757 q 346 639 361 679 l 247 360 m 244 1167 l 244 1250 l 613 1250 l 613 1172 l 244 1167 z "},"Ą":{"ha":869,"x_min":-8,"x_max":886,"o":"m -8 0 l -8 46 q 56 68 33 46 q 92 129 78 90 q 126 219 107 168 l 413 999 l 446 999 l 756 208 q 781 133 767 179 q 792 56 794 88 q 839 58 815 57 q 886 61 863 60 l 886 0 l 568 0 l 568 46 q 638 69 621 47 q 650 122 654 92 q 636 178 646 153 l 588 308 l 226 300 l 178 151 q 160 99 168 118 q 143 56 153 79 q 198 58 171 57 q 251 61 225 60 l 251 0 l -8 0 m 247 360 l 568 360 l 469 625 q 438 710 454 668 q 407 796 422 753 l 404 796 q 376 718 390 757 q 346 639 361 679 l 247 360 m 635 -360 q 528 -320 568 -360 q 488 -218 488 -281 q 532 -108 488 -158 q 644 -22 576 -58 q 783 36 713 15 l 783 0 q 692 -44 735 -17 q 625 -108 650 -71 q 600 -190 600 -144 q 626 -260 600 -233 q 686 -286 651 -286 q 734 -275 711 -286 q 776 -247 757 -264 l 800 -272 q 729 -333 774 -306 q 635 -360 685 -360 z "},"Å":{"ha":869,"x_min":-8,"x_max":886,"o":"m -8 0 l -8 46 q 56 68 33 46 q 92 129 78 90 q 126 219 107 168 l 413 999 l 446 999 l 756 208 q 781 133 767 179 q 792 56 794 88 q 839 58 815 57 q 886 61 863 60 l 886 0 l 568 0 l 568 46 q 638 69 621 47 q 650 122 654 92 q 636 178 646 153 l 588 308 l 226 300 l 178 151 q 160 99 168 118 q 143 56 153 79 q 198 58 171 57 q 251 61 225 60 l 251 0 l -8 0 m 247 360 l 568 360 l 469 625 q 438 710 454 668 q 407 796 422 753 l 404 796 q 376 718 390 757 q 346 639 361 679 l 247 360 m 431 993 q 356 1008 392 993 q 297 1056 319 1024 q 271 1139 274 1089 q 292 1224 269 1188 q 352 1280 315 1260 q 428 1300 389 1300 q 501 1285 465 1300 q 562 1238 538 1269 q 588 1156 586 1206 q 566 1069 589 1106 q 506 1013 543 1032 q 431 993 469 993 m 436 1042 q 485 1068 464 1043 q 507 1136 507 1093 q 483 1226 507 1196 q 424 1253 460 1256 q 372 1224 392 1251 q 351 1153 351 1197 q 374 1071 351 1101 q 436 1042 397 1040 z "},"Ã":{"ha":869,"x_min":-8,"x_max":886,"o":"m -8 0 l -8 46 q 56 68 33 46 q 92 129 78 90 q 126 219 107 168 l 413 999 l 446 999 l 756 208 q 781 133 767 179 q 792 56 794 88 q 839 58 815 57 q 886 61 863 60 l 886 0 l 568 0 l 568 46 q 638 69 621 47 q 650 122 654 92 q 636 178 646 153 l 588 308 l 226 300 l 178 151 q 160 99 168 118 q 143 56 153 79 q 198 58 171 57 q 251 61 225 60 l 251 0 l -8 0 m 247 360 l 568 360 l 469 625 q 438 710 454 668 q 407 796 422 753 l 404 796 q 376 718 390 757 q 346 639 361 679 l 247 360 m 697 1235 q 651 1144 678 1178 q 593 1094 624 1110 q 532 1079 563 1079 q 461 1094 492 1079 q 406 1128 431 1108 q 358 1163 381 1149 q 311 1178 336 1178 q 258 1156 281 1178 q 208 1094 235 1133 l 161 1121 q 230 1222 185 1182 q 318 1264 275 1263 q 389 1251 360 1265 q 442 1217 418 1236 q 489 1182 465 1197 q 540 1167 513 1167 q 605 1194 578 1167 q 653 1257 632 1221 l 697 1235 z "},"Æ":{"ha":1318,"x_min":-29,"x_max":1256,"o":"m -29 0 l -29 46 q 36 66 8 46 q 86 116 64 86 q 126 174 108 146 l 628 917 l 503 911 l 503 972 l 1199 972 l 1206 729 l 1160 729 q 1135 853 1160 811 q 1067 910 1110 896 q 972 924 1025 925 l 853 921 q 779 901 801 919 q 752 848 757 883 q 747 756 747 813 l 747 533 l 1008 532 l 999 651 l 1060 651 l 1060 360 l 1014 360 q 997 447 1014 421 q 944 479 981 474 q 849 482 908 485 l 747 478 l 747 164 q 747 100 747 126 q 743 56 746 74 l 1017 51 q 1119 72 1076 51 q 1185 142 1161 93 q 1208 271 1208 190 l 1256 271 l 1247 0 l 531 0 l 531 50 q 590 64 569 53 q 618 102 610 75 q 626 181 626 129 l 626 307 l 289 300 l 221 199 q 173 128 197 164 q 125 56 149 92 l 231 61 l 231 0 l -29 0 m 328 360 l 626 360 l 626 808 l 328 360 z "},"B":{"ha":864,"x_min":76,"x_max":810,"o":"m 76 0 l 76 46 q 149 70 129 47 q 170 133 168 93 q 172 224 172 172 l 172 807 q 174 872 172 844 q 176 917 175 899 q 126 914 151 915 q 76 911 101 913 l 76 972 q 230 974 153 974 q 390 975 307 975 q 642 918 551 975 q 731 738 733 861 q 705 649 731 693 q 628 570 679 604 q 501 522 578 536 l 501 519 q 732 449 654 519 q 810 272 810 379 q 767 126 810 188 q 650 33 724 65 q 482 0 576 0 l 76 0 m 289 56 q 342 53 311 54 q 401 53 374 53 q 436 53 428 53 q 609 106 543 53 q 675 264 675 160 q 642 396 675 349 q 554 463 608 443 q 436 482 500 482 q 360 481 394 482 q 293 478 326 481 l 293 164 q 292 100 293 126 q 289 56 292 74 m 293 532 l 394 535 q 519 567 474 536 q 585 646 565 599 q 604 744 606 693 q 570 858 603 819 q 490 911 538 897 q 397 925 443 925 q 329 913 351 925 q 300 871 307 900 q 293 790 293 842 l 293 532 z "},"C":{"ha":971,"x_min":64,"x_max":929,"o":"m 844 663 q 753 865 831 793 q 556 938 676 938 q 417 906 482 938 q 304 817 353 875 q 228 676 256 758 q 200 492 200 594 q 250 261 200 361 q 385 106 300 161 q 572 50 469 50 q 750 91 663 50 q 893 210 838 132 l 929 181 q 800 54 869 99 q 662 -6 731 10 q 536 -22 593 -22 q 345 15 432 -22 q 195 120 258 53 q 98 277 132 188 q 64 471 64 367 q 94 663 64 569 q 183 831 124 756 q 334 950 243 906 q 546 994 425 994 q 693 974 624 994 q 826 910 763 953 l 819 985 l 894 985 l 894 663 l 844 663 z "},"Ć":{"ha":971,"x_min":64,"x_max":929,"o":"m 492 1056 l 461 1096 l 636 1263 q 684 1288 664 1286 q 716 1281 704 1289 q 729 1269 728 1274 q 737 1249 733 1264 q 733 1217 740 1235 q 693 1179 725 1199 l 492 1056 m 844 663 q 753 865 831 793 q 556 938 676 938 q 417 906 482 938 q 304 817 353 875 q 228 676 256 758 q 200 492 200 594 q 250 261 200 361 q 385 106 300 161 q 572 50 469 50 q 750 91 663 50 q 893 210 838 132 l 929 181 q 800 54 869 99 q 662 -6 731 10 q 536 -22 593 -22 q 345 15 432 -22 q 195 120 258 53 q 98 277 132 188 q 64 471 64 367 q 94 663 64 569 q 183 831 124 756 q 334 950 243 906 q 546 994 425 994 q 693 974 624 994 q 826 910 763 953 l 819 985 l 894 985 l 894 663 l 844 663 z "},"Č":{"ha":971,"x_min":64,"x_max":929,"o":"m 844 663 q 753 865 831 793 q 556 938 676 938 q 417 906 482 938 q 304 817 353 875 q 228 676 256 758 q 200 492 200 594 q 250 261 200 361 q 385 106 300 161 q 572 50 469 50 q 750 91 663 50 q 893 210 838 132 l 929 181 q 800 54 869 99 q 662 -6 731 10 q 536 -22 593 -22 q 345 15 432 -22 q 195 120 258 53 q 98 277 132 188 q 64 471 64 367 q 94 663 64 569 q 183 831 124 756 q 334 950 243 906 q 546 994 425 994 q 693 974 624 994 q 826 910 763 953 l 819 985 l 894 985 l 894 663 l 844 663 m 532 1083 l 276 1279 l 307 1326 l 540 1204 l 776 1329 l 804 1285 l 535 1083 l 532 1083 z "},"Ç":{"ha":971,"x_min":64,"x_max":929,"o":"m 844 663 q 753 865 831 793 q 556 938 676 938 q 417 906 482 938 q 304 817 353 875 q 228 676 256 758 q 200 492 200 594 q 250 261 200 361 q 385 106 300 161 q 572 50 469 50 q 750 91 663 50 q 893 210 838 132 l 929 181 q 800 54 869 99 q 662 -6 731 10 q 536 -22 593 -22 q 345 15 432 -22 q 195 120 258 53 q 98 277 132 188 q 64 471 64 367 q 94 663 64 569 q 183 831 124 756 q 334 950 243 906 q 546 994 425 994 q 693 974 624 994 q 826 910 763 953 l 819 985 l 894 985 l 894 663 l 844 663 m 464 -361 l 456 -308 q 522 -291 492 -301 q 576 -266 553 -281 q 612 -234 599 -251 q 625 -196 625 -217 q 608 -158 625 -167 q 565 -153 590 -149 q 519 -171 540 -157 l 469 -147 l 510 11 l 590 11 l 553 -107 q 599 -90 572 -94 q 643 -85 626 -85 q 723 -113 696 -85 q 750 -183 750 -142 q 719 -256 750 -225 q 642 -309 689 -287 q 548 -343 596 -331 q 464 -361 500 -356 z "},"Ĉ":{"ha":971,"x_min":64,"x_max":929,"o":"m 844 663 q 753 865 831 793 q 556 938 676 938 q 417 906 482 938 q 304 817 353 875 q 228 676 256 758 q 200 492 200 594 q 250 261 200 361 q 385 106 300 161 q 572 50 469 50 q 750 91 663 50 q 893 210 838 132 l 929 181 q 800 54 869 99 q 662 -6 731 10 q 536 -22 593 -22 q 345 15 432 -22 q 195 120 258 53 q 98 277 132 188 q 64 471 64 367 q 94 663 64 569 q 183 831 124 756 q 334 950 243 906 q 546 994 425 994 q 693 974 624 994 q 826 910 763 953 l 819 985 l 894 985 l 894 663 l 844 663 m 721 1056 l 542 1172 l 365 1056 l 331 1096 l 546 1293 l 549 1293 l 753 1097 l 721 1056 z "},"Ċ":{"ha":971,"x_min":64,"x_max":929,"o":"m 844 663 q 753 865 831 793 q 556 938 676 938 q 417 906 482 938 q 304 817 353 875 q 228 676 256 758 q 200 492 200 594 q 250 261 200 361 q 385 106 300 161 q 572 50 469 50 q 750 91 663 50 q 893 210 838 132 l 929 181 q 800 54 869 99 q 662 -6 731 10 q 536 -22 593 -22 q 345 15 432 -22 q 195 120 258 53 q 98 277 132 188 q 64 471 64 367 q 94 663 64 569 q 183 831 124 756 q 334 950 243 906 q 546 994 425 994 q 693 974 624 994 q 826 910 763 953 l 819 985 l 894 985 l 894 663 l 844 663 m 540 1124 q 489 1147 511 1124 q 467 1206 467 1171 q 490 1265 467 1240 q 542 1289 513 1289 q 595 1265 574 1289 q 617 1206 617 1240 q 594 1147 617 1171 q 540 1124 571 1124 z "},"D":{"ha":1035,"x_min":76,"x_max":971,"o":"m 76 46 q 149 70 129 49 q 170 130 168 92 q 172 217 172 168 l 172 817 q 174 870 172 844 q 176 917 175 896 q 126 914 151 915 q 76 911 101 913 l 76 972 l 404 974 q 633 944 529 974 q 813 855 738 915 q 930 702 889 794 q 971 485 971 610 q 938 301 971 389 q 838 147 904 214 q 672 40 771 79 q 442 0 572 0 l 76 0 l 76 46 m 293 164 q 292 100 293 126 q 289 56 292 74 q 358 53 326 54 q 410 53 389 53 q 438 53 432 53 q 601 86 528 53 q 726 178 674 119 q 806 317 778 238 q 835 490 835 397 q 787 719 835 622 q 640 869 739 815 q 389 922 542 922 q 317 901 338 922 q 295 843 297 881 q 293 756 293 806 l 293 164 z "},"Ð":{"ha":1036,"x_min":26,"x_max":972,"o":"m 26 465 l 26 524 l 546 524 l 546 465 l 26 465 m 78 46 q 150 70 131 49 q 172 130 169 92 q 174 217 174 168 l 174 817 q 175 870 174 844 q 178 917 176 896 q 128 914 153 915 q 78 911 103 913 l 78 972 l 406 974 q 635 944 531 974 q 815 855 739 915 q 931 702 890 794 q 972 485 972 610 q 939 301 972 389 q 839 147 906 214 q 673 40 772 79 q 443 0 574 0 l 78 0 l 78 46 m 294 164 q 294 100 294 126 q 290 56 293 74 q 359 53 328 54 q 412 53 390 53 q 439 53 433 53 q 602 86 529 53 q 727 178 675 119 q 808 317 779 238 q 836 490 836 397 q 788 719 836 622 q 642 869 740 815 q 390 922 543 922 q 319 901 339 922 q 297 843 299 881 q 294 756 294 806 l 294 164 z "},"Ď":{"ha":1035,"x_min":76,"x_max":971,"o":"m 76 46 q 149 70 129 49 q 170 130 168 92 q 172 217 172 168 l 172 817 q 174 870 172 844 q 176 917 175 896 q 126 914 151 915 q 76 911 101 913 l 76 972 l 404 974 q 633 944 529 974 q 813 855 738 915 q 930 702 889 794 q 971 485 971 610 q 938 301 971 389 q 838 147 904 214 q 672 40 771 79 q 442 0 572 0 l 76 0 l 76 46 m 293 164 q 292 100 293 126 q 289 56 292 74 q 358 53 326 54 q 410 53 389 53 q 438 53 432 53 q 601 86 528 53 q 726 178 674 119 q 806 317 778 238 q 835 490 835 397 q 787 719 835 622 q 640 869 739 815 q 389 922 542 922 q 317 901 338 922 q 295 843 297 881 q 293 756 293 806 l 293 164 m 472 1083 l 217 1279 l 247 1326 l 481 1204 l 717 1329 l 744 1285 l 475 1083 l 472 1083 z "},"Đ":{"ha":1036,"x_min":26,"x_max":972,"o":"m 26 465 l 26 524 l 546 524 l 546 465 l 26 465 m 78 46 q 150 70 131 49 q 172 130 169 92 q 174 217 174 168 l 174 817 q 175 870 174 844 q 178 917 176 896 q 128 914 153 915 q 78 911 103 913 l 78 972 l 406 974 q 635 944 531 974 q 815 855 739 915 q 931 702 890 794 q 972 485 972 610 q 939 301 972 389 q 839 147 906 214 q 673 40 772 79 q 443 0 574 0 l 78 0 l 78 46 m 294 164 q 294 100 294 126 q 290 56 293 74 q 359 53 328 54 q 412 53 390 53 q 439 53 433 53 q 602 86 529 53 q 727 178 675 119 q 808 317 779 238 q 836 490 836 397 q 788 719 836 622 q 642 869 740 815 q 390 922 543 922 q 319 901 339 922 q 297 843 299 881 q 294 756 294 806 l 294 164 z "},"E":{"ha":864,"x_min":76,"x_max":801,"o":"m 560 360 q 543 447 560 421 q 490 479 526 474 q 394 482 454 485 l 293 478 l 293 160 q 292 96 293 122 q 289 51 292 69 l 554 56 q 660 76 615 57 q 729 142 704 94 q 754 271 754 189 l 801 271 l 793 0 l 76 0 l 76 46 q 149 70 129 49 q 170 130 168 92 q 172 217 172 168 l 172 817 q 174 870 172 844 q 176 917 175 896 q 126 914 151 915 q 76 911 101 913 l 76 972 l 744 972 l 751 729 l 706 729 q 681 853 706 811 q 613 910 656 896 q 518 924 571 925 l 399 921 q 325 901 347 919 q 298 848 303 883 q 293 756 293 813 l 293 533 l 554 532 l 544 651 l 606 651 l 606 360 l 560 360 z "},"É":{"ha":864,"x_min":76,"x_max":801,"o":"m 406 1056 l 375 1096 l 550 1263 q 598 1288 578 1286 q 630 1281 618 1289 q 643 1269 642 1274 q 651 1249 647 1264 q 647 1217 654 1235 q 607 1179 639 1199 l 406 1056 m 560 360 q 543 447 560 421 q 490 479 526 474 q 394 482 454 485 l 293 478 l 293 160 q 292 96 293 122 q 289 51 292 69 l 554 56 q 660 76 615 57 q 729 142 704 94 q 754 271 754 189 l 801 271 l 793 0 l 76 0 l 76 46 q 149 70 129 49 q 170 130 168 92 q 172 217 172 168 l 172 817 q 174 870 172 844 q 176 917 175 896 q 126 914 151 915 q 76 911 101 913 l 76 972 l 744 972 l 751 729 l 706 729 q 681 853 706 811 q 613 910 656 896 q 518 924 571 925 l 399 921 q 325 901 347 919 q 298 848 303 883 q 293 756 293 813 l 293 533 l 554 532 l 544 651 l 606 651 l 606 360 l 560 360 z "},"Ĕ":{"ha":864,"x_min":76,"x_max":801,"o":"m 560 360 q 543 447 560 421 q 490 479 526 474 q 394 482 454 485 l 293 478 l 293 160 q 292 96 293 122 q 289 51 292 69 l 554 56 q 660 76 615 57 q 729 142 704 94 q 754 271 754 189 l 801 271 l 793 0 l 76 0 l 76 46 q 149 70 129 49 q 170 130 168 92 q 172 217 172 168 l 172 817 q 174 870 172 844 q 176 917 175 896 q 126 914 151 915 q 76 911 101 913 l 76 972 l 744 972 l 751 729 l 706 729 q 681 853 706 811 q 613 910 656 896 q 518 924 571 925 l 399 921 q 325 901 347 919 q 298 848 303 883 q 293 756 293 813 l 293 533 l 554 532 l 544 651 l 606 651 l 606 360 l 560 360 m 454 1124 q 374 1140 413 1124 q 303 1189 335 1157 q 251 1267 272 1221 l 288 1283 q 356 1231 310 1254 q 454 1208 401 1208 q 553 1231 507 1208 q 621 1283 599 1254 l 658 1267 q 606 1189 638 1221 q 535 1140 574 1157 q 454 1124 497 1124 z "},"Ě":{"ha":864,"x_min":76,"x_max":801,"o":"m 560 360 q 543 447 560 421 q 490 479 526 474 q 394 482 454 485 l 293 478 l 293 160 q 292 96 293 122 q 289 51 292 69 l 554 56 q 660 76 615 57 q 729 142 704 94 q 754 271 754 189 l 801 271 l 793 0 l 76 0 l 76 46 q 149 70 129 49 q 170 130 168 92 q 172 217 172 168 l 172 817 q 174 870 172 844 q 176 917 175 896 q 126 914 151 915 q 76 911 101 913 l 76 972 l 744 972 l 751 729 l 706 729 q 681 853 706 811 q 613 910 656 896 q 518 924 571 925 l 399 921 q 325 901 347 919 q 298 848 303 883 q 293 756 293 813 l 293 533 l 554 532 l 544 651 l 606 651 l 606 360 l 560 360 m 446 1083 l 190 1279 l 221 1326 l 454 1204 l 690 1329 l 718 1285 l 449 1083 l 446 1083 z "},"Ê":{"ha":864,"x_min":76,"x_max":801,"o":"m 560 360 q 543 447 560 421 q 490 479 526 474 q 394 482 454 485 l 293 478 l 293 160 q 292 96 293 122 q 289 51 292 69 l 554 56 q 660 76 615 57 q 729 142 704 94 q 754 271 754 189 l 801 271 l 793 0 l 76 0 l 76 46 q 149 70 129 49 q 170 130 168 92 q 172 217 172 168 l 172 817 q 174 870 172 844 q 176 917 175 896 q 126 914 151 915 q 76 911 101 913 l 76 972 l 744 972 l 751 729 l 706 729 q 681 853 706 811 q 613 910 656 896 q 518 924 571 925 l 399 921 q 325 901 347 919 q 298 848 303 883 q 293 756 293 813 l 293 533 l 554 532 l 544 651 l 606 651 l 606 360 l 560 360 m 635 1056 l 456 1172 l 279 1056 l 244 1096 l 460 1293 l 463 1293 l 667 1097 l 635 1056 z "},"Ế":{"ha":864,"x_min":76,"x_max":851,"o":"m 560 360 q 543 447 560 421 q 490 479 526 474 q 394 482 454 485 l 293 478 l 293 160 q 292 96 293 122 q 289 51 292 69 l 554 56 q 660 76 615 57 q 729 142 704 94 q 754 271 754 189 l 801 271 l 793 0 l 76 0 l 76 46 q 149 70 129 49 q 170 130 168 92 q 172 217 172 168 l 172 817 q 174 870 172 844 q 176 917 175 896 q 126 914 151 915 q 76 911 101 913 l 76 972 l 744 972 l 751 729 l 706 729 q 681 853 706 811 q 613 910 656 896 q 518 924 571 925 l 399 921 q 325 901 347 919 q 298 848 303 883 q 293 756 293 813 l 293 533 l 554 532 l 544 651 l 606 651 l 606 360 l 560 360 m 604 1042 l 456 1138 l 310 1042 l 281 1075 l 460 1238 l 461 1238 l 631 1076 l 604 1042 m 664 1144 l 625 1176 l 742 1364 q 782 1399 763 1394 q 815 1399 801 1404 q 832 1390 829 1393 q 844 1372 838 1386 q 848 1338 851 1358 q 819 1292 844 1318 l 664 1144 z "},"Ệ":{"ha":864,"x_min":76,"x_max":801,"o":"m 517 -256 q 470 -235 490 -256 q 450 -182 450 -214 q 470 -130 450 -151 q 518 -108 490 -108 q 565 -130 546 -108 q 585 -182 585 -151 q 564 -235 585 -214 q 517 -256 543 -256 m 560 360 q 543 447 560 421 q 490 479 526 474 q 394 482 454 485 l 293 478 l 293 160 q 292 96 293 122 q 289 51 292 69 l 554 56 q 660 76 615 57 q 729 142 704 94 q 754 271 754 189 l 801 271 l 793 0 l 76 0 l 76 46 q 149 70 129 49 q 170 130 168 92 q 172 217 172 168 l 172 817 q 174 870 172 844 q 176 917 175 896 q 126 914 151 915 q 76 911 101 913 l 76 972 l 744 972 l 751 729 l 706 729 q 681 853 706 811 q 613 910 656 896 q 518 924 571 925 l 399 921 q 325 901 347 919 q 298 848 303 883 q 293 756 293 813 l 293 533 l 554 532 l 544 651 l 606 651 l 606 360 l 560 360 m 635 1056 l 456 1172 l 279 1056 l 244 1096 l 460 1293 l 463 1293 l 667 1097 l 635 1056 z "},"Ề":{"ha":864,"x_min":76,"x_max":801,"o":"m 560 360 q 543 447 560 421 q 490 479 526 474 q 394 482 454 485 l 293 478 l 293 160 q 292 96 293 122 q 289 51 292 69 l 554 56 q 660 76 615 57 q 729 142 704 94 q 754 271 754 189 l 801 271 l 793 0 l 76 0 l 76 46 q 149 70 129 49 q 170 130 168 92 q 172 217 172 168 l 172 817 q 174 870 172 844 q 176 917 175 896 q 126 914 151 915 q 76 911 101 913 l 76 972 l 744 972 l 751 729 l 706 729 q 681 853 706 811 q 613 910 656 896 q 518 924 571 925 l 399 921 q 325 901 347 919 q 298 848 303 883 q 293 756 293 813 l 293 533 l 554 532 l 544 651 l 606 651 l 606 360 l 560 360 m 604 1042 l 456 1138 l 310 1042 l 281 1075 l 460 1238 l 461 1238 l 631 1076 l 604 1042 m 633 1188 l 478 1335 q 449 1381 453 1361 q 453 1415 446 1401 q 465 1433 460 1429 q 483 1442 469 1436 q 515 1442 496 1447 q 556 1407 535 1438 l 672 1219 l 633 1188 z "},"Ể":{"ha":864,"x_min":76,"x_max":801,"o":"m 560 360 q 543 447 560 421 q 490 479 526 474 q 394 482 454 485 l 293 478 l 293 160 q 292 96 293 122 q 289 51 292 69 l 554 56 q 660 76 615 57 q 729 142 704 94 q 754 271 754 189 l 801 271 l 793 0 l 76 0 l 76 46 q 149 70 129 49 q 170 130 168 92 q 172 217 172 168 l 172 817 q 174 870 172 844 q 176 917 175 896 q 126 914 151 915 q 76 911 101 913 l 76 972 l 744 972 l 751 729 l 706 729 q 681 853 706 811 q 613 910 656 896 q 518 924 571 925 l 399 921 q 325 901 347 919 q 298 848 303 883 q 293 756 293 813 l 293 533 l 554 532 l 544 651 l 606 651 l 606 360 l 560 360 m 604 1042 l 456 1138 l 310 1042 l 281 1075 l 460 1238 l 461 1238 l 631 1076 l 604 1042 m 614 1176 q 631 1218 614 1201 q 667 1250 649 1235 q 687 1277 681 1261 q 693 1307 693 1293 q 674 1357 693 1335 q 619 1379 654 1379 q 576 1366 594 1379 q 554 1338 557 1353 q 560 1328 557 1333 q 563 1315 563 1322 q 549 1289 563 1299 q 519 1279 536 1279 q 488 1292 503 1279 q 474 1332 474 1304 q 490 1378 474 1356 q 540 1415 507 1400 q 618 1429 572 1429 q 731 1394 692 1429 q 769 1317 769 1358 q 753 1261 769 1282 q 713 1221 738 1240 q 683 1198 696 1208 q 671 1176 671 1188 l 614 1176 z "},"Ễ":{"ha":864,"x_min":76,"x_max":801,"o":"m 560 360 q 543 447 560 421 q 490 479 526 474 q 394 482 454 485 l 293 478 l 293 160 q 292 96 293 122 q 289 51 292 69 l 554 56 q 660 76 615 57 q 729 142 704 94 q 754 271 754 189 l 801 271 l 793 0 l 76 0 l 76 46 q 149 70 129 49 q 170 130 168 92 q 172 217 172 168 l 172 817 q 174 870 172 844 q 176 917 175 896 q 126 914 151 915 q 76 911 101 913 l 76 972 l 744 972 l 751 729 l 706 729 q 681 853 706 811 q 613 910 656 896 q 518 924 571 925 l 399 921 q 325 901 347 919 q 298 848 303 883 q 293 756 293 813 l 293 533 l 554 532 l 544 651 l 606 651 l 606 360 l 560 360 m 604 1042 l 456 1138 l 310 1042 l 281 1075 l 460 1238 l 461 1238 l 631 1076 l 604 1042 m 714 1388 q 650 1288 692 1319 q 572 1256 608 1256 q 498 1274 529 1256 q 442 1312 467 1293 q 390 1331 417 1331 q 337 1317 365 1331 q 289 1272 308 1304 l 247 1296 q 308 1379 265 1344 q 389 1415 350 1414 q 463 1398 433 1417 q 517 1360 492 1379 q 572 1342 542 1342 q 630 1360 603 1342 q 674 1408 657 1378 l 714 1388 z "},"Ë":{"ha":864,"x_min":76,"x_max":801,"o":"m 560 360 q 543 447 560 421 q 490 479 526 474 q 394 482 454 485 l 293 478 l 293 160 q 292 96 293 122 q 289 51 292 69 l 554 56 q 660 76 615 57 q 729 142 704 94 q 754 271 754 189 l 801 271 l 793 0 l 76 0 l 76 46 q 149 70 129 49 q 170 130 168 92 q 172 217 172 168 l 172 817 q 174 870 172 844 q 176 917 175 896 q 126 914 151 915 q 76 911 101 913 l 76 972 l 744 972 l 751 729 l 706 729 q 681 853 706 811 q 613 910 656 896 q 518 924 571 925 l 399 921 q 325 901 347 919 q 298 848 303 883 q 293 756 293 813 l 293 533 l 554 532 l 544 651 l 606 651 l 606 360 l 560 360 m 329 1078 q 276 1103 299 1078 q 254 1165 254 1129 q 277 1228 254 1203 q 331 1254 300 1254 q 384 1228 363 1254 q 406 1165 406 1203 q 383 1103 406 1129 q 329 1078 360 1078 m 579 1078 q 526 1103 549 1078 q 504 1165 504 1129 q 527 1228 504 1203 q 581 1254 550 1254 q 633 1228 613 1254 q 654 1165 654 1203 q 632 1103 654 1129 q 579 1078 610 1078 z "},"Ė":{"ha":864,"x_min":76,"x_max":801,"o":"m 560 360 q 543 447 560 421 q 490 479 526 474 q 394 482 454 485 l 293 478 l 293 160 q 292 96 293 122 q 289 51 292 69 l 554 56 q 660 76 615 57 q 729 142 704 94 q 754 271 754 189 l 801 271 l 793 0 l 76 0 l 76 46 q 149 70 129 49 q 170 130 168 92 q 172 217 172 168 l 172 817 q 174 870 172 844 q 176 917 175 896 q 126 914 151 915 q 76 911 101 913 l 76 972 l 744 972 l 751 729 l 706 729 q 681 853 706 811 q 613 910 656 896 q 518 924 571 925 l 399 921 q 325 901 347 919 q 298 848 303 883 q 293 756 293 813 l 293 533 l 554 532 l 544 651 l 606 651 l 606 360 l 560 360 m 454 1124 q 403 1147 425 1124 q 381 1206 381 1171 q 403 1265 381 1240 q 456 1289 426 1289 q 509 1265 488 1289 q 531 1206 531 1240 q 508 1147 531 1171 q 454 1124 485 1124 z "},"Ẹ":{"ha":864,"x_min":76,"x_max":801,"o":"m 517 -256 q 470 -235 490 -256 q 450 -182 450 -214 q 470 -130 450 -151 q 518 -108 490 -108 q 565 -130 546 -108 q 585 -182 585 -151 q 564 -235 585 -214 q 517 -256 543 -256 m 560 360 q 543 447 560 421 q 490 479 526 474 q 394 482 454 485 l 293 478 l 293 160 q 292 96 293 122 q 289 51 292 69 l 554 56 q 660 76 615 57 q 729 142 704 94 q 754 271 754 189 l 801 271 l 793 0 l 76 0 l 76 46 q 149 70 129 49 q 170 130 168 92 q 172 217 172 168 l 172 817 q 174 870 172 844 q 176 917 175 896 q 126 914 151 915 q 76 911 101 913 l 76 972 l 744 972 l 751 729 l 706 729 q 681 853 706 811 q 613 910 656 896 q 518 924 571 925 l 399 921 q 325 901 347 919 q 298 848 303 883 q 293 756 293 813 l 293 533 l 554 532 l 544 651 l 606 651 l 606 360 l 560 360 z "},"È":{"ha":864,"x_min":76,"x_max":801,"o":"m 560 360 q 543 447 560 421 q 490 479 526 474 q 394 482 454 485 l 293 478 l 293 160 q 292 96 293 122 q 289 51 292 69 l 554 56 q 660 76 615 57 q 729 142 704 94 q 754 271 754 189 l 801 271 l 793 0 l 76 0 l 76 46 q 149 70 129 49 q 170 130 168 92 q 172 217 172 168 l 172 817 q 174 870 172 844 q 176 917 175 896 q 126 914 151 915 q 76 911 101 913 l 76 972 l 744 972 l 751 729 l 706 729 q 681 853 706 811 q 613 910 656 896 q 518 924 571 925 l 399 921 q 325 901 347 919 q 298 848 303 883 q 293 756 293 813 l 293 533 l 554 532 l 544 651 l 606 651 l 606 360 l 560 360 m 504 1056 l 303 1179 q 264 1217 272 1199 q 259 1249 256 1235 q 267 1269 263 1264 q 281 1281 269 1274 q 313 1288 293 1289 q 360 1263 333 1286 l 535 1096 l 504 1056 z "},"Ẻ":{"ha":864,"x_min":76,"x_max":801,"o":"m 560 360 q 543 447 560 421 q 490 479 526 474 q 394 482 454 485 l 293 478 l 293 160 q 292 96 293 122 q 289 51 292 69 l 554 56 q 660 76 615 57 q 729 142 704 94 q 754 271 754 189 l 801 271 l 793 0 l 76 0 l 76 46 q 149 70 129 49 q 170 130 168 92 q 172 217 172 168 l 172 817 q 174 870 172 844 q 176 917 175 896 q 126 914 151 915 q 76 911 101 913 l 76 972 l 744 972 l 751 729 l 706 729 q 681 853 706 811 q 613 910 656 896 q 518 924 571 925 l 399 921 q 325 901 347 919 q 298 848 303 883 q 293 756 293 813 l 293 533 l 554 532 l 544 651 l 606 651 l 606 360 l 560 360 m 432 1064 q 449 1106 432 1089 q 485 1138 467 1122 q 505 1165 499 1149 q 511 1194 511 1181 q 492 1244 511 1222 q 438 1267 472 1267 q 394 1253 413 1267 q 372 1225 375 1240 q 378 1215 375 1221 q 381 1203 381 1210 q 367 1176 381 1186 q 338 1167 354 1167 q 306 1179 321 1167 q 292 1219 292 1192 q 308 1265 292 1243 q 358 1302 325 1288 q 436 1317 390 1317 q 549 1281 510 1317 q 588 1204 588 1246 q 572 1149 588 1169 q 531 1108 556 1128 q 501 1085 514 1096 q 489 1064 489 1075 l 432 1064 z "},"Ē":{"ha":864,"x_min":76,"x_max":801,"o":"m 560 360 q 543 447 560 421 q 490 479 526 474 q 394 482 454 485 l 293 478 l 293 160 q 292 96 293 122 q 289 51 292 69 l 554 56 q 660 76 615 57 q 729 142 704 94 q 754 271 754 189 l 801 271 l 793 0 l 76 0 l 76 46 q 149 70 129 49 q 170 130 168 92 q 172 217 172 168 l 172 817 q 174 870 172 844 q 176 917 175 896 q 126 914 151 915 q 76 911 101 913 l 76 972 l 744 972 l 751 729 l 706 729 q 681 853 706 811 q 613 910 656 896 q 518 924 571 925 l 399 921 q 325 901 347 919 q 298 848 303 883 q 293 756 293 813 l 293 533 l 554 532 l 544 651 l 606 651 l 606 360 l 560 360 m 269 1167 l 269 1250 l 638 1250 l 638 1172 l 269 1167 z "},"Ę":{"ha":864,"x_min":76,"x_max":801,"o":"m 560 360 q 543 447 560 421 q 490 479 526 474 q 394 482 454 485 l 293 478 l 293 160 q 292 96 293 122 q 289 51 292 69 l 554 56 q 660 76 615 57 q 729 142 704 94 q 754 271 754 189 l 801 271 l 793 0 l 76 0 l 76 46 q 149 70 129 49 q 170 130 168 92 q 172 217 172 168 l 172 817 q 174 870 172 844 q 176 917 175 896 q 126 914 151 915 q 76 911 101 913 l 76 972 l 744 972 l 751 729 l 706 729 q 681 853 706 811 q 613 910 656 896 q 518 924 571 925 l 399 921 q 325 901 347 919 q 298 848 303 883 q 293 756 293 813 l 293 533 l 554 532 l 544 651 l 606 651 l 606 360 l 560 360 m 631 -353 q 524 -313 564 -353 q 483 -211 483 -274 q 528 -101 483 -151 q 640 -15 572 -51 q 779 43 708 22 l 779 7 q 688 -37 731 -10 q 621 -101 646 -64 q 596 -183 596 -137 q 622 -253 596 -226 q 682 -279 647 -279 q 730 -268 707 -279 q 772 -240 753 -257 l 796 -265 q 725 -326 769 -299 q 631 -353 681 -353 z "},"Ẽ":{"ha":864,"x_min":76,"x_max":801,"o":"m 560 360 q 543 447 560 421 q 490 479 526 474 q 394 482 454 485 l 293 478 l 293 160 q 292 96 293 122 q 289 51 292 69 l 554 56 q 660 76 615 57 q 729 142 704 94 q 754 271 754 189 l 801 271 l 793 0 l 76 0 l 76 46 q 149 70 129 49 q 170 130 168 92 q 172 217 172 168 l 172 817 q 174 870 172 844 q 176 917 175 896 q 126 914 151 915 q 76 911 101 913 l 76 972 l 744 972 l 751 729 l 706 729 q 681 853 706 811 q 613 910 656 896 q 518 924 571 925 l 399 921 q 325 901 347 919 q 298 848 303 883 q 293 756 293 813 l 293 533 l 554 532 l 544 651 l 606 651 l 606 360 l 560 360 m 688 1260 q 624 1160 665 1192 q 546 1128 582 1128 q 472 1147 503 1128 q 415 1184 440 1165 q 364 1203 390 1203 q 310 1190 339 1203 q 263 1144 282 1176 l 221 1168 q 281 1251 239 1217 q 363 1288 324 1286 q 436 1270 407 1289 q 490 1233 465 1251 q 546 1214 515 1214 q 603 1232 576 1214 q 647 1281 631 1250 l 688 1260 z "},"Ʒ":{"ha":851,"x_min":56,"x_max":797,"o":"m 446 568 q 640 530 563 568 q 758 426 718 492 q 797 279 797 361 q 767 148 797 204 q 685 53 736 92 q 569 -3 633 15 q 435 -22 504 -22 q 327 -10 379 -22 q 226 28 275 3 q 135 91 178 53 q 56 181 93 129 l 92 210 q 232 88 149 132 q 404 44 315 44 q 531 71 474 44 q 624 150 589 97 q 660 281 660 203 q 588 449 660 393 q 367 511 515 506 l 332 510 l 332 568 l 446 568 m 540 810 q 595 869 568 843 q 663 921 622 896 l 315 915 q 192 859 233 914 q 151 685 151 804 l 104 685 l 113 972 l 782 972 l 781 924 l 429 518 l 332 568 l 540 810 z "},"Ǯ":{"ha":851,"x_min":56,"x_max":797,"o":"m 446 568 q 640 530 563 568 q 758 426 718 492 q 797 279 797 361 q 767 148 797 204 q 685 53 736 92 q 569 -3 633 15 q 435 -22 504 -22 q 327 -10 379 -22 q 226 28 275 3 q 135 91 178 53 q 56 181 93 129 l 92 210 q 232 88 149 132 q 404 44 315 44 q 531 71 474 44 q 624 150 589 97 q 660 281 660 203 q 588 449 660 393 q 367 511 515 506 l 332 510 l 332 568 l 446 568 m 540 810 q 595 869 568 843 q 663 921 622 896 l 315 915 q 192 859 233 914 q 151 685 151 804 l 104 685 l 113 972 l 782 972 l 781 924 l 429 518 l 332 568 l 540 810 m 432 1083 l 176 1279 l 207 1326 l 440 1204 l 676 1329 l 704 1285 l 435 1083 l 432 1083 z "},"F":{"ha":761,"x_min":76,"x_max":728,"o":"m 76 0 l 76 46 q 149 70 129 49 q 170 130 168 92 q 172 217 172 168 l 172 817 q 174 870 172 844 q 176 917 175 896 q 126 914 151 915 q 76 911 101 913 l 76 972 l 721 972 l 728 729 l 682 729 q 656 853 682 811 q 586 910 629 896 q 490 924 543 925 l 389 921 q 318 897 338 919 q 296 836 299 874 q 293 750 293 799 l 293 511 l 535 510 l 525 631 l 586 631 l 586 338 l 542 338 q 524 426 542 400 q 471 458 507 453 q 376 461 435 464 l 293 457 l 293 165 q 292 101 293 128 q 289 56 292 74 q 336 58 313 57 q 383 60 360 58 q 431 61 407 61 l 431 0 l 76 0 z "},"G":{"ha":1057,"x_min":65,"x_max":1028,"o":"m 538 -22 q 292 36 399 -22 q 125 204 185 94 q 65 465 65 314 q 95 658 65 564 q 185 828 125 751 q 337 949 246 904 q 549 994 428 994 q 650 985 599 994 q 749 959 701 976 q 836 918 797 942 l 831 985 l 907 985 l 907 667 l 857 667 q 810 815 851 754 q 704 907 769 875 q 558 939 639 939 q 420 906 485 939 q 306 815 356 874 q 229 675 257 756 q 201 497 201 594 q 249 264 201 367 q 380 103 296 161 q 574 44 464 44 q 652 51 611 44 q 734 74 693 58 q 811 114 775 90 l 811 283 q 811 351 811 317 q 811 418 811 385 q 763 415 788 417 q 714 413 738 414 l 714 474 l 1028 474 l 1028 428 q 968 408 989 428 q 939 359 947 388 q 929 303 931 331 q 928 263 928 276 l 928 50 l 890 50 q 829 42 868 50 q 740 14 790 33 q 640 -12 697 -3 q 538 -22 583 -22 z "},"Ğ":{"ha":1057,"x_min":65,"x_max":1028,"o":"m 538 -22 q 292 36 399 -22 q 125 204 185 94 q 65 465 65 314 q 95 658 65 564 q 185 828 125 751 q 337 949 246 904 q 549 994 428 994 q 650 985 599 994 q 749 959 701 976 q 836 918 797 942 l 831 985 l 907 985 l 907 667 l 857 667 q 810 815 851 754 q 704 907 769 875 q 558 939 639 939 q 420 906 485 939 q 306 815 356 874 q 229 675 257 756 q 201 497 201 594 q 249 264 201 367 q 380 103 296 161 q 574 44 464 44 q 652 51 611 44 q 734 74 693 58 q 811 114 775 90 l 811 283 q 811 351 811 317 q 811 418 811 385 q 763 415 788 417 q 714 413 738 414 l 714 474 l 1028 474 l 1028 428 q 968 408 989 428 q 939 359 947 388 q 929 303 931 331 q 928 263 928 276 l 928 50 l 890 50 q 829 42 868 50 q 740 14 790 33 q 640 -12 697 -3 q 538 -22 583 -22 m 550 1124 q 469 1140 508 1124 q 399 1189 431 1157 q 347 1267 368 1221 l 383 1283 q 451 1231 406 1254 q 550 1208 497 1208 q 649 1231 603 1208 q 717 1283 694 1254 l 754 1267 q 701 1189 733 1221 q 631 1140 669 1157 q 550 1124 593 1124 z "},"Ǧ":{"ha":1057,"x_min":65,"x_max":1028,"o":"m 538 -22 q 292 36 399 -22 q 125 204 185 94 q 65 465 65 314 q 95 658 65 564 q 185 828 125 751 q 337 949 246 904 q 549 994 428 994 q 650 985 599 994 q 749 959 701 976 q 836 918 797 942 l 831 985 l 907 985 l 907 667 l 857 667 q 810 815 851 754 q 704 907 769 875 q 558 939 639 939 q 420 906 485 939 q 306 815 356 874 q 229 675 257 756 q 201 497 201 594 q 249 264 201 367 q 380 103 296 161 q 574 44 464 44 q 652 51 611 44 q 734 74 693 58 q 811 114 775 90 l 811 283 q 811 351 811 317 q 811 418 811 385 q 763 415 788 417 q 714 413 738 414 l 714 474 l 1028 474 l 1028 428 q 968 408 989 428 q 939 359 947 388 q 929 303 931 331 q 928 263 928 276 l 928 50 l 890 50 q 829 42 868 50 q 740 14 790 33 q 640 -12 697 -3 q 538 -22 583 -22 m 542 1083 l 286 1279 l 317 1326 l 550 1204 l 786 1329 l 814 1285 l 544 1083 l 542 1083 z "},"Ĝ":{"ha":1057,"x_min":65,"x_max":1028,"o":"m 538 -22 q 292 36 399 -22 q 125 204 185 94 q 65 465 65 314 q 95 658 65 564 q 185 828 125 751 q 337 949 246 904 q 549 994 428 994 q 650 985 599 994 q 749 959 701 976 q 836 918 797 942 l 831 985 l 907 985 l 907 667 l 857 667 q 810 815 851 754 q 704 907 769 875 q 558 939 639 939 q 420 906 485 939 q 306 815 356 874 q 229 675 257 756 q 201 497 201 594 q 249 264 201 367 q 380 103 296 161 q 574 44 464 44 q 652 51 611 44 q 734 74 693 58 q 811 114 775 90 l 811 283 q 811 351 811 317 q 811 418 811 385 q 763 415 788 417 q 714 413 738 414 l 714 474 l 1028 474 l 1028 428 q 968 408 989 428 q 939 359 947 388 q 929 303 931 331 q 928 263 928 276 l 928 50 l 890 50 q 829 42 868 50 q 740 14 790 33 q 640 -12 697 -3 q 538 -22 583 -22 m 731 1056 l 551 1172 l 375 1056 l 340 1096 l 556 1293 l 558 1293 l 763 1097 l 731 1056 z "},"Ģ":{"ha":1057,"x_min":65,"x_max":1028,"o":"m 538 -22 q 292 36 399 -22 q 125 204 185 94 q 65 465 65 314 q 95 658 65 564 q 185 828 125 751 q 337 949 246 904 q 549 994 428 994 q 650 985 599 994 q 749 959 701 976 q 836 918 797 942 l 831 985 l 907 985 l 907 667 l 857 667 q 810 815 851 754 q 704 907 769 875 q 558 939 639 939 q 420 906 485 939 q 306 815 356 874 q 229 675 257 756 q 201 497 201 594 q 249 264 201 367 q 380 103 296 161 q 574 44 464 44 q 652 51 611 44 q 734 74 693 58 q 811 114 775 90 l 811 283 q 811 351 811 317 q 811 418 811 385 q 763 415 788 417 q 714 413 738 414 l 714 474 l 1028 474 l 1028 428 q 968 408 989 428 q 939 359 947 388 q 929 303 931 331 q 928 263 928 276 l 928 50 l 890 50 q 829 42 868 50 q 740 14 790 33 q 640 -12 697 -3 q 538 -22 583 -22 m 542 -360 l 506 -333 q 546 -236 536 -278 q 552 -158 556 -194 q 536 -83 549 -122 l 632 -56 q 654 -144 654 -99 q 624 -252 654 -197 q 542 -360 594 -307 z "},"Ǥ":{"ha":1057,"x_min":65,"x_max":1044,"o":"m 650 257 l 650 317 l 1044 317 l 1044 263 l 650 257 m 538 -22 q 292 36 399 -22 q 125 204 185 94 q 65 465 65 314 q 95 658 65 564 q 185 828 125 751 q 337 949 246 904 q 549 994 428 994 q 650 985 599 994 q 749 959 701 976 q 836 918 797 942 l 831 985 l 907 985 l 907 667 l 857 667 q 810 815 851 754 q 704 907 769 875 q 558 939 639 939 q 420 906 485 939 q 306 815 356 874 q 229 675 257 756 q 201 497 201 594 q 249 264 201 367 q 380 103 296 161 q 574 44 464 44 q 652 51 611 44 q 734 74 693 58 q 811 114 775 90 l 811 283 q 811 351 811 317 q 811 418 811 385 q 763 415 788 417 q 714 413 738 414 l 714 474 l 1028 474 l 1028 428 q 968 408 989 428 q 939 359 947 388 q 929 303 931 331 q 928 263 928 276 l 928 50 l 890 50 q 829 42 868 50 q 740 14 790 33 q 640 -12 697 -3 q 538 -22 583 -22 z "},"H":{"ha":1083,"x_min":76,"x_max":1007,"o":"m 76 0 l 76 46 q 149 70 129 49 q 170 130 168 92 q 172 217 172 168 l 172 817 q 174 870 172 844 q 176 917 175 896 q 126 914 151 915 q 76 911 101 913 l 76 972 l 389 972 l 389 926 q 317 903 338 925 q 295 843 297 881 q 293 756 293 806 l 293 525 l 790 525 l 790 817 q 792 870 790 844 q 794 917 793 896 q 744 914 769 915 q 694 911 719 913 l 694 972 l 1007 972 l 1007 926 q 935 903 956 925 q 913 843 915 881 q 911 756 911 806 l 911 165 q 910 101 911 128 q 907 56 910 74 q 957 58 932 57 q 1007 61 982 60 l 1007 0 l 694 0 l 694 46 q 767 70 747 49 q 788 130 786 92 q 790 217 790 168 l 790 469 l 293 464 l 293 165 q 292 101 293 128 q 289 56 292 74 q 339 58 314 57 q 389 61 364 60 l 389 0 l 76 0 z "},"Ħ":{"ha":1083,"x_min":51,"x_max":1031,"o":"m 51 715 l 51 775 l 1031 775 l 1031 721 l 51 715 m 76 0 l 76 46 q 149 70 129 49 q 170 130 168 92 q 172 217 172 168 l 172 817 q 174 870 172 844 q 176 917 175 896 q 126 914 151 915 q 76 911 101 913 l 76 972 l 389 972 l 389 926 q 317 903 338 925 q 295 843 297 881 q 293 756 293 806 l 293 525 l 790 525 l 790 817 q 792 870 790 844 q 794 917 793 896 q 744 914 769 915 q 694 911 719 913 l 694 972 l 1007 972 l 1007 926 q 935 903 956 925 q 913 843 915 881 q 911 756 911 806 l 911 165 q 910 101 911 128 q 907 56 910 74 q 957 58 932 57 q 1007 61 982 60 l 1007 0 l 694 0 l 694 46 q 767 70 747 49 q 788 130 786 92 q 790 217 790 168 l 790 469 l 293 464 l 293 165 q 292 101 293 128 q 289 56 292 74 q 339 58 314 57 q 389 61 364 60 l 389 0 l 76 0 z "},"Ȟ":{"ha":1083,"x_min":76,"x_max":1007,"o":"m 76 0 l 76 46 q 149 70 129 49 q 170 130 168 92 q 172 217 172 168 l 172 817 q 174 870 172 844 q 176 917 175 896 q 126 914 151 915 q 76 911 101 913 l 76 972 l 389 972 l 389 926 q 317 903 338 925 q 295 843 297 881 q 293 756 293 806 l 293 525 l 790 525 l 790 817 q 792 870 790 844 q 794 917 793 896 q 744 914 769 915 q 694 911 719 913 l 694 972 l 1007 972 l 1007 926 q 935 903 956 925 q 913 843 915 881 q 911 756 911 806 l 911 165 q 910 101 911 128 q 907 56 910 74 q 957 58 932 57 q 1007 61 982 60 l 1007 0 l 694 0 l 694 46 q 767 70 747 49 q 788 130 786 92 q 790 217 790 168 l 790 469 l 293 464 l 293 165 q 292 101 293 128 q 289 56 292 74 q 339 58 314 57 q 389 61 364 60 l 389 0 l 76 0 m 533 1083 l 278 1279 l 308 1326 l 542 1204 l 778 1329 l 806 1285 l 536 1083 l 533 1083 z "},"Ĥ":{"ha":1083,"x_min":76,"x_max":1007,"o":"m 76 0 l 76 46 q 149 70 129 49 q 170 130 168 92 q 172 217 172 168 l 172 817 q 174 870 172 844 q 176 917 175 896 q 126 914 151 915 q 76 911 101 913 l 76 972 l 389 972 l 389 926 q 317 903 338 925 q 295 843 297 881 q 293 756 293 806 l 293 525 l 790 525 l 790 817 q 792 870 790 844 q 794 917 793 896 q 744 914 769 915 q 694 911 719 913 l 694 972 l 1007 972 l 1007 926 q 935 903 956 925 q 913 843 915 881 q 911 756 911 806 l 911 165 q 910 101 911 128 q 907 56 910 74 q 957 58 932 57 q 1007 61 982 60 l 1007 0 l 694 0 l 694 46 q 767 70 747 49 q 788 130 786 92 q 790 217 790 168 l 790 469 l 293 464 l 293 165 q 292 101 293 128 q 289 56 292 74 q 339 58 314 57 q 389 61 364 60 l 389 0 l 76 0 m 722 1056 l 543 1172 l 367 1056 l 332 1096 l 547 1293 l 550 1293 l 754 1097 l 722 1056 z "},"I":{"ha":465,"x_min":76,"x_max":389,"o":"m 389 926 q 317 903 338 925 q 295 843 297 881 q 293 756 293 806 l 293 165 q 292 101 293 128 q 289 56 292 74 q 339 58 314 57 q 389 61 364 60 l 389 0 l 76 0 l 76 46 q 149 70 129 49 q 170 130 168 92 q 172 217 172 168 l 172 817 q 174 870 172 844 q 176 917 175 896 q 126 914 151 915 q 76 911 101 913 l 76 972 l 389 972 l 389 926 z "},"Í":{"ha":465,"x_min":76,"x_max":438,"o":"m 189 1056 l 158 1096 l 333 1263 q 381 1288 361 1286 q 413 1281 401 1289 q 426 1269 425 1274 q 434 1249 431 1264 q 430 1217 438 1235 q 390 1179 422 1199 l 189 1056 m 389 926 q 317 903 338 925 q 295 843 297 881 q 293 756 293 806 l 293 165 q 292 101 293 128 q 289 56 292 74 q 339 58 314 57 q 389 61 364 60 l 389 0 l 76 0 l 76 46 q 149 70 129 49 q 170 130 168 92 q 172 217 172 168 l 172 817 q 174 870 172 844 q 176 917 175 896 q 126 914 151 915 q 76 911 101 913 l 76 972 l 389 972 l 389 926 z "},"Ĭ":{"ha":465,"x_min":35,"x_max":442,"o":"m 389 926 q 317 903 338 925 q 295 843 297 881 q 293 756 293 806 l 293 165 q 292 101 293 128 q 289 56 292 74 q 339 58 314 57 q 389 61 364 60 l 389 0 l 76 0 l 76 46 q 149 70 129 49 q 170 130 168 92 q 172 217 172 168 l 172 817 q 174 870 172 844 q 176 917 175 896 q 126 914 151 915 q 76 911 101 913 l 76 972 l 389 972 l 389 926 m 238 1124 q 157 1140 196 1124 q 87 1189 118 1157 q 35 1267 56 1221 l 71 1283 q 139 1231 93 1254 q 238 1208 185 1208 q 336 1231 290 1208 q 404 1283 382 1254 l 442 1267 q 389 1189 421 1221 q 319 1140 357 1157 q 238 1124 281 1124 z "},"Î":{"ha":465,"x_min":28,"x_max":450,"o":"m 389 926 q 317 903 338 925 q 295 843 297 881 q 293 756 293 806 l 293 165 q 292 101 293 128 q 289 56 292 74 q 339 58 314 57 q 389 61 364 60 l 389 0 l 76 0 l 76 46 q 149 70 129 49 q 170 130 168 92 q 172 217 172 168 l 172 817 q 174 870 172 844 q 176 917 175 896 q 126 914 151 915 q 76 911 101 913 l 76 972 l 389 972 l 389 926 m 418 1056 l 239 1172 l 63 1056 l 28 1096 l 243 1293 l 246 1293 l 450 1097 l 418 1056 z "},"Ï":{"ha":465,"x_min":38,"x_max":438,"o":"m 389 926 q 317 903 338 925 q 295 843 297 881 q 293 756 293 806 l 293 165 q 292 101 293 128 q 289 56 292 74 q 339 58 314 57 q 389 61 364 60 l 389 0 l 76 0 l 76 46 q 149 70 129 49 q 170 130 168 92 q 172 217 172 168 l 172 817 q 174 870 172 844 q 176 917 175 896 q 126 914 151 915 q 76 911 101 913 l 76 972 l 389 972 l 389 926 m 113 1078 q 60 1103 82 1078 q 38 1165 38 1129 q 60 1228 38 1203 q 114 1254 83 1254 q 167 1228 146 1254 q 189 1165 189 1203 q 166 1103 189 1129 q 113 1078 143 1078 m 363 1078 q 310 1103 332 1078 q 288 1165 288 1129 q 310 1228 288 1203 q 364 1254 333 1254 q 417 1228 396 1254 q 438 1165 438 1203 q 415 1103 438 1129 q 363 1078 393 1078 z "},"İ":{"ha":465,"x_min":76,"x_max":389,"o":"m 389 926 q 317 903 338 925 q 295 843 297 881 q 293 756 293 806 l 293 165 q 292 101 293 128 q 289 56 292 74 q 339 58 314 57 q 389 61 364 60 l 389 0 l 76 0 l 76 46 q 149 70 129 49 q 170 130 168 92 q 172 217 172 168 l 172 817 q 174 870 172 844 q 176 917 175 896 q 126 914 151 915 q 76 911 101 913 l 76 972 l 389 972 l 389 926 m 238 1124 q 186 1147 208 1124 q 164 1206 164 1171 q 187 1265 164 1240 q 239 1289 210 1289 q 292 1265 271 1289 q 314 1206 314 1240 q 291 1147 314 1171 q 238 1124 268 1124 z "},"Ị":{"ha":465,"x_min":76,"x_max":389,"o":"m 233 -256 q 187 -235 207 -256 q 167 -182 167 -214 q 187 -130 167 -151 q 235 -108 207 -108 q 282 -130 263 -108 q 301 -182 301 -151 q 281 -235 301 -214 q 233 -256 260 -256 m 389 926 q 317 903 338 925 q 295 843 297 881 q 293 756 293 806 l 293 165 q 292 101 293 128 q 289 56 292 74 q 339 58 314 57 q 389 61 364 60 l 389 0 l 76 0 l 76 46 q 149 70 129 49 q 170 130 168 92 q 172 217 172 168 l 172 817 q 174 870 172 844 q 176 917 175 896 q 126 914 151 915 q 76 911 101 913 l 76 972 l 389 972 l 389 926 z "},"Ì":{"ha":465,"x_min":39,"x_max":389,"o":"m 389 926 q 317 903 338 925 q 295 843 297 881 q 293 756 293 806 l 293 165 q 292 101 293 128 q 289 56 292 74 q 339 58 314 57 q 389 61 364 60 l 389 0 l 76 0 l 76 46 q 149 70 129 49 q 170 130 168 92 q 172 217 172 168 l 172 817 q 174 870 172 844 q 176 917 175 896 q 126 914 151 915 q 76 911 101 913 l 76 972 l 389 972 l 389 926 m 288 1056 l 86 1179 q 47 1217 56 1199 q 42 1249 39 1235 q 50 1269 46 1264 q 65 1281 53 1274 q 97 1288 76 1289 q 143 1263 117 1286 l 318 1096 l 288 1056 z "},"Ỉ":{"ha":465,"x_min":75,"x_max":389,"o":"m 389 926 q 317 903 338 925 q 295 843 297 881 q 293 756 293 806 l 293 165 q 292 101 293 128 q 289 56 292 74 q 339 58 314 57 q 389 61 364 60 l 389 0 l 76 0 l 76 46 q 149 70 129 49 q 170 130 168 92 q 172 217 172 168 l 172 817 q 174 870 172 844 q 176 917 175 896 q 126 914 151 915 q 76 911 101 913 l 76 972 l 389 972 l 389 926 m 215 1064 q 233 1106 215 1089 q 268 1138 250 1122 q 288 1165 282 1149 q 294 1194 294 1181 q 275 1244 294 1222 q 221 1267 256 1267 q 177 1253 196 1267 q 156 1225 158 1240 q 161 1215 158 1221 q 164 1203 164 1210 q 151 1176 164 1186 q 121 1167 138 1167 q 90 1179 104 1167 q 75 1219 75 1192 q 92 1265 75 1243 q 141 1302 108 1288 q 219 1317 174 1317 q 332 1281 293 1317 q 371 1204 371 1246 q 355 1149 371 1169 q 314 1108 339 1128 q 285 1085 297 1096 q 272 1064 272 1075 l 215 1064 z "},"Ī":{"ha":465,"x_min":53,"x_max":421,"o":"m 389 926 q 317 903 338 925 q 295 843 297 881 q 293 756 293 806 l 293 165 q 292 101 293 128 q 289 56 292 74 q 339 58 314 57 q 389 61 364 60 l 389 0 l 76 0 l 76 46 q 149 70 129 49 q 170 130 168 92 q 172 217 172 168 l 172 817 q 174 870 172 844 q 176 917 175 896 q 126 914 151 915 q 76 911 101 913 l 76 972 l 389 972 l 389 926 m 53 1167 l 53 1250 l 421 1250 l 421 1172 l 53 1167 z "},"Į":{"ha":465,"x_min":76,"x_max":399,"o":"m 389 926 q 317 903 338 925 q 295 843 297 881 q 293 756 293 806 l 293 165 q 292 101 293 128 q 289 56 292 74 q 339 58 314 57 q 389 61 364 60 l 389 0 l 76 0 l 76 46 q 149 70 129 49 q 170 130 168 92 q 172 217 172 168 l 172 817 q 174 870 172 844 q 176 917 175 896 q 126 914 151 915 q 76 911 101 913 l 76 972 l 389 972 l 389 926 m 233 -360 q 126 -320 167 -360 q 86 -218 86 -281 q 131 -108 86 -158 q 243 -22 175 -58 q 382 36 311 15 l 382 0 q 291 -44 333 -17 q 224 -108 249 -71 q 199 -190 199 -144 q 224 -260 199 -233 q 285 -286 250 -286 q 333 -275 310 -286 q 375 -247 356 -264 l 399 -272 q 328 -333 372 -306 q 233 -360 283 -360 z "},"Ĩ":{"ha":465,"x_min":4,"x_max":471,"o":"m 389 926 q 317 903 338 925 q 295 843 297 881 q 293 756 293 806 l 293 165 q 292 101 293 128 q 289 56 292 74 q 339 58 314 57 q 389 61 364 60 l 389 0 l 76 0 l 76 46 q 149 70 129 49 q 170 130 168 92 q 172 217 172 168 l 172 817 q 174 870 172 844 q 176 917 175 896 q 126 914 151 915 q 76 911 101 913 l 76 972 l 389 972 l 389 926 m 471 1260 q 407 1160 449 1192 q 329 1128 365 1128 q 255 1147 286 1128 q 199 1184 224 1165 q 147 1203 174 1203 q 94 1190 122 1203 q 46 1144 65 1176 l 4 1168 q 65 1251 22 1217 q 146 1288 107 1286 q 219 1270 190 1289 q 274 1233 249 1251 q 329 1214 299 1214 q 387 1232 360 1214 q 431 1281 414 1250 l 471 1260 z "},"J":{"ha":518,"x_min":-3,"x_max":476,"o":"m 144 -22 q 72 -10 106 -22 q 18 24 39 1 q -3 76 -3 46 q 12 126 -3 104 q 57 149 26 147 q 105 130 92 151 q 118 88 118 108 q 117 73 118 82 q 113 57 115 64 q 139 38 121 43 q 167 35 157 33 q 228 72 208 36 q 249 193 249 108 l 249 793 q 249 856 249 825 q 249 917 249 886 q 178 914 214 915 q 107 911 143 913 l 107 972 l 476 972 l 476 926 q 408 908 431 926 q 377 859 385 890 q 369 789 369 828 l 369 339 q 317 60 369 143 q 144 -22 264 -22 z "},"Ĵ":{"ha":518,"x_min":-3,"x_max":511,"o":"m 144 -22 q 72 -10 106 -22 q 18 24 39 1 q -3 76 -3 46 q 12 126 -3 104 q 57 149 26 147 q 105 130 92 151 q 118 88 118 108 q 117 73 118 82 q 113 57 115 64 q 139 38 121 43 q 167 35 157 33 q 228 72 208 36 q 249 193 249 108 l 249 793 q 249 856 249 825 q 249 917 249 886 q 178 914 214 915 q 107 911 143 913 l 107 972 l 476 972 l 476 926 q 408 908 431 926 q 377 859 385 890 q 369 789 369 828 l 369 339 q 317 60 369 143 q 144 -22 264 -22 m 479 1056 l 300 1172 l 124 1056 l 89 1096 l 304 1293 l 307 1293 l 511 1097 l 479 1056 z "},"K":{"ha":949,"x_min":76,"x_max":942,"o":"m 76 0 l 76 46 q 149 70 129 49 q 170 130 168 92 q 172 217 172 168 l 172 817 q 174 870 172 844 q 176 917 175 896 q 126 914 151 915 q 76 911 101 913 l 76 972 l 389 972 l 389 926 q 317 903 338 925 q 295 843 297 881 q 293 756 293 806 l 293 528 l 397 528 l 571 801 q 615 863 589 829 q 669 918 642 896 q 627 917 649 917 q 585 915 606 917 l 585 972 l 883 972 l 883 926 q 779 907 825 922 q 692 853 733 892 q 603 739 650 815 l 467 522 q 532 467 507 499 q 582 404 557 436 l 738 197 q 824 95 790 128 q 885 54 858 63 q 942 46 913 46 l 942 0 l 772 0 q 735 19 758 0 q 686 70 713 39 q 632 136 660 101 l 465 361 q 413 427 439 396 q 361 474 386 458 l 293 472 l 293 165 q 292 101 293 128 q 289 56 292 74 q 339 58 314 57 q 389 61 364 60 l 389 0 l 76 0 z "},"Ǩ":{"ha":949,"x_min":76,"x_max":942,"o":"m 76 0 l 76 46 q 149 70 129 49 q 170 130 168 92 q 172 217 172 168 l 172 817 q 174 870 172 844 q 176 917 175 896 q 126 914 151 915 q 76 911 101 913 l 76 972 l 389 972 l 389 926 q 317 903 338 925 q 295 843 297 881 q 293 756 293 806 l 293 528 l 397 528 l 571 801 q 615 863 589 829 q 669 918 642 896 q 627 917 649 917 q 585 915 606 917 l 585 972 l 883 972 l 883 926 q 779 907 825 922 q 692 853 733 892 q 603 739 650 815 l 467 522 q 532 467 507 499 q 582 404 557 436 l 738 197 q 824 95 790 128 q 885 54 858 63 q 942 46 913 46 l 942 0 l 772 0 q 735 19 758 0 q 686 70 713 39 q 632 136 660 101 l 465 361 q 413 427 439 396 q 361 474 386 458 l 293 472 l 293 165 q 292 101 293 128 q 289 56 292 74 q 339 58 314 57 q 389 61 364 60 l 389 0 l 76 0 m 474 1083 l 218 1279 l 249 1326 l 482 1204 l 718 1329 l 746 1285 l 476 1083 l 474 1083 z "},"Ķ":{"ha":949,"x_min":76,"x_max":942,"o":"m 76 0 l 76 46 q 149 70 129 49 q 170 130 168 92 q 172 217 172 168 l 172 817 q 174 870 172 844 q 176 917 175 896 q 126 914 151 915 q 76 911 101 913 l 76 972 l 389 972 l 389 926 q 317 903 338 925 q 295 843 297 881 q 293 756 293 806 l 293 528 l 397 528 l 571 801 q 615 863 589 829 q 669 918 642 896 q 627 917 649 917 q 585 915 606 917 l 585 972 l 883 972 l 883 926 q 779 907 825 922 q 692 853 733 892 q 603 739 650 815 l 467 522 q 532 467 507 499 q 582 404 557 436 l 738 197 q 824 95 790 128 q 885 54 858 63 q 942 46 913 46 l 942 0 l 772 0 q 735 19 758 0 q 686 70 713 39 q 632 136 660 101 l 465 361 q 413 427 439 396 q 361 474 386 458 l 293 472 l 293 165 q 292 101 293 128 q 289 56 292 74 q 339 58 314 57 q 389 61 364 60 l 389 0 l 76 0 m 474 -360 l 438 -333 q 478 -236 468 -278 q 484 -158 488 -194 q 468 -83 481 -122 l 564 -56 q 586 -144 586 -99 q 556 -252 586 -197 q 474 -360 526 -307 z "},"L":{"ha":803,"x_min":76,"x_max":774,"o":"m 76 0 l 76 46 q 149 70 129 49 q 170 130 168 92 q 172 217 172 168 l 172 817 q 174 870 172 844 q 176 917 175 896 q 126 914 151 915 q 76 911 101 913 l 76 972 l 389 972 l 389 926 q 317 903 338 925 q 295 843 297 881 q 293 756 293 806 l 293 160 q 292 96 293 122 q 289 51 292 69 l 549 56 q 681 111 636 57 q 726 288 726 165 l 774 288 l 765 0 l 76 0 z "},"Ĺ":{"ha":803,"x_min":76,"x_max":774,"o":"m 203 1056 l 172 1096 l 347 1263 q 395 1288 375 1286 q 427 1281 415 1289 q 440 1269 439 1274 q 448 1249 444 1264 q 444 1217 451 1235 q 404 1179 436 1199 l 203 1056 m 76 0 l 76 46 q 149 70 129 49 q 170 130 168 92 q 172 217 172 168 l 172 817 q 174 870 172 844 q 176 917 175 896 q 126 914 151 915 q 76 911 101 913 l 76 972 l 389 972 l 389 926 q 317 903 338 925 q 295 843 297 881 q 293 756 293 806 l 293 160 q 292 96 293 122 q 289 51 292 69 l 549 56 q 681 111 636 57 q 726 288 726 165 l 774 288 l 765 0 l 76 0 z "},"Ľ":{"ha":803,"x_min":76,"x_max":774,"o":"m 76 0 l 76 46 q 149 70 129 49 q 170 130 168 92 q 172 217 172 168 l 172 817 q 174 870 172 844 q 176 917 175 896 q 126 914 151 915 q 76 911 101 913 l 76 972 l 389 972 l 389 926 q 317 903 338 925 q 295 843 297 881 q 293 756 293 806 l 293 160 q 292 96 293 122 q 289 51 292 69 l 549 56 q 681 111 636 57 q 726 288 726 165 l 774 288 l 765 0 l 76 0 m 576 678 l 540 706 q 583 812 571 764 q 592 902 594 860 q 579 985 590 944 l 675 967 q 690 926 686 943 q 690 883 693 908 q 653 775 685 828 q 576 678 621 722 z "},"Ļ":{"ha":803,"x_min":76,"x_max":774,"o":"m 76 0 l 76 46 q 149 70 129 49 q 170 130 168 92 q 172 217 172 168 l 172 817 q 174 870 172 844 q 176 917 175 896 q 126 914 151 915 q 76 911 101 913 l 76 972 l 389 972 l 389 926 q 317 903 338 925 q 295 843 297 881 q 293 756 293 806 l 293 160 q 292 96 293 122 q 289 51 292 69 l 549 56 q 681 111 636 57 q 726 288 726 165 l 774 288 l 765 0 l 76 0 m 392 -360 l 356 -333 q 396 -236 386 -278 q 402 -158 406 -194 q 386 -83 399 -122 l 482 -56 q 504 -144 504 -99 q 474 -252 504 -197 q 392 -360 444 -307 z "},"Ŀ":{"ha":833,"x_min":76,"x_max":774,"o":"m 76 0 l 76 46 q 149 70 129 49 q 170 130 168 92 q 172 217 172 168 l 172 817 q 174 870 172 844 q 176 917 175 896 q 126 914 151 915 q 76 911 101 913 l 76 972 l 389 972 l 389 926 q 317 903 338 925 q 295 843 297 881 q 293 756 293 806 l 293 160 q 292 96 293 122 q 289 51 292 69 l 549 56 q 681 111 636 57 q 726 288 726 165 l 774 288 l 765 0 l 76 0 m 507 367 q 451 392 475 367 q 426 456 426 418 q 451 519 426 493 q 508 546 476 546 q 566 519 543 546 q 589 456 589 493 q 564 392 589 418 q 507 367 539 367 z "},"Ł":{"ha":803,"x_min":67,"x_max":774,"o":"m 67 317 l 67 394 l 542 744 l 542 668 l 67 317 m 76 0 l 76 46 q 149 70 129 49 q 170 130 168 92 q 172 217 172 168 l 172 817 q 174 870 172 844 q 176 917 175 896 q 126 914 151 915 q 76 911 101 913 l 76 972 l 389 972 l 389 926 q 317 903 338 925 q 295 843 297 881 q 293 756 293 806 l 293 160 q 292 96 293 122 q 289 51 292 69 l 549 56 q 681 111 636 57 q 726 288 726 165 l 774 288 l 765 0 l 76 0 z "},"M":{"ha":1275,"x_min":61,"x_max":1228,"o":"m 600 -14 q 476 263 539 125 q 354 543 414 401 q 316 633 335 588 q 280 724 297 678 q 244 815 263 769 q 244 785 244 800 q 243 754 243 769 q 240 634 242 704 q 235 484 238 564 q 231 324 232 404 q 228 174 229 244 q 226 113 226 143 q 222 56 225 82 q 274 58 249 57 q 326 61 300 60 l 326 0 l 61 0 l 61 46 q 124 65 104 47 q 150 111 144 82 q 157 174 156 140 l 183 807 q 185 863 185 835 q 188 917 186 890 q 138 915 163 915 q 88 913 113 914 l 88 972 l 300 972 l 539 421 q 574 338 557 379 q 610 254 592 296 q 647 169 629 213 l 650 169 q 686 259 665 207 q 721 349 707 311 q 848 655 782 501 q 978 972 914 808 l 1183 972 l 1183 926 q 1126 913 1149 928 q 1094 865 1104 899 q 1088 775 1085 832 l 1124 143 q 1126 97 1126 119 q 1126 57 1126 75 q 1177 59 1151 58 q 1228 61 1203 60 l 1228 0 l 917 0 l 917 46 q 981 67 960 47 q 1006 122 1001 86 q 1008 211 1011 158 l 981 669 q 978 714 979 692 q 975 758 976 736 q 972 803 974 781 q 963 782 968 793 q 954 758 958 771 l 642 -14 l 600 -14 z "},"N":{"ha":1058,"x_min":79,"x_max":999,"o":"m 836 -22 l 282 722 q 258 755 269 739 q 233 788 246 771 l 232 788 l 236 193 q 236 124 236 158 q 233 56 236 89 q 283 58 258 57 q 333 61 308 60 l 333 0 l 79 0 l 79 46 q 141 65 122 46 q 165 109 160 83 q 171 156 171 135 l 172 824 q 172 871 172 847 q 172 917 172 894 q 126 914 150 915 q 79 911 103 913 l 79 972 l 244 972 l 765 275 q 801 228 783 251 q 836 181 818 204 l 838 181 l 839 817 q 840 870 839 844 q 843 917 842 896 q 793 914 818 915 q 743 911 768 913 l 743 972 l 999 972 l 999 926 q 928 903 947 925 q 907 843 908 881 q 906 756 906 806 l 903 -22 l 836 -22 z "},"Ń":{"ha":1058,"x_min":79,"x_max":999,"o":"m 500 1056 l 469 1096 l 644 1263 q 692 1288 672 1286 q 724 1281 713 1289 q 738 1269 736 1274 q 745 1249 742 1264 q 741 1217 749 1235 q 701 1179 733 1199 l 500 1056 m 836 -22 l 282 722 q 258 755 269 739 q 233 788 246 771 l 232 788 l 236 193 q 236 124 236 158 q 233 56 236 89 q 283 58 258 57 q 333 61 308 60 l 333 0 l 79 0 l 79 46 q 141 65 122 46 q 165 109 160 83 q 171 156 171 135 l 172 824 q 172 871 172 847 q 172 917 172 894 q 126 914 150 915 q 79 911 103 913 l 79 972 l 244 972 l 765 275 q 801 228 783 251 q 836 181 818 204 l 838 181 l 839 817 q 840 870 839 844 q 843 917 842 896 q 793 914 818 915 q 743 911 768 913 l 743 972 l 999 972 l 999 926 q 928 903 947 925 q 907 843 908 881 q 906 756 906 806 l 903 -22 l 836 -22 z "},"Ň":{"ha":1058,"x_min":79,"x_max":999,"o":"m 836 -22 l 282 722 q 258 755 269 739 q 233 788 246 771 l 232 788 l 236 193 q 236 124 236 158 q 233 56 236 89 q 283 58 258 57 q 333 61 308 60 l 333 0 l 79 0 l 79 46 q 141 65 122 46 q 165 109 160 83 q 171 156 171 135 l 172 824 q 172 871 172 847 q 172 917 172 894 q 126 914 150 915 q 79 911 103 913 l 79 972 l 244 972 l 765 275 q 801 228 783 251 q 836 181 818 204 l 838 181 l 839 817 q 840 870 839 844 q 843 917 842 896 q 793 914 818 915 q 743 911 768 913 l 743 972 l 999 972 l 999 926 q 928 903 947 925 q 907 843 908 881 q 906 756 906 806 l 903 -22 l 836 -22 m 540 1083 l 285 1279 l 315 1326 l 549 1204 l 785 1329 l 813 1285 l 543 1083 l 540 1083 z "},"Ņ":{"ha":1058,"x_min":79,"x_max":999,"o":"m 836 -22 l 282 722 q 258 755 269 739 q 233 788 246 771 l 232 788 l 236 193 q 236 124 236 158 q 233 56 236 89 q 283 58 258 57 q 333 61 308 60 l 333 0 l 79 0 l 79 46 q 141 65 122 46 q 165 109 160 83 q 171 156 171 135 l 172 824 q 172 871 172 847 q 172 917 172 894 q 126 914 150 915 q 79 911 103 913 l 79 972 l 244 972 l 765 275 q 801 228 783 251 q 836 181 818 204 l 838 181 l 839 817 q 840 870 839 844 q 843 917 842 896 q 793 914 818 915 q 743 911 768 913 l 743 972 l 999 972 l 999 926 q 928 903 947 925 q 907 843 908 881 q 906 756 906 806 l 903 -22 l 836 -22 m 478 -360 l 442 -333 q 482 -236 472 -278 q 488 -158 492 -194 q 472 -83 485 -122 l 568 -56 q 590 -144 590 -99 q 560 -252 590 -197 q 478 -360 531 -307 z "},"Ŋ":{"ha":1058,"x_min":79,"x_max":999,"o":"m 719 -376 q 631 -353 664 -376 q 599 -299 599 -329 q 615 -254 599 -274 q 658 -233 631 -235 q 706 -253 693 -232 q 719 -292 719 -275 q 719 -298 719 -294 q 718 -304 719 -301 q 750 -312 738 -312 q 776 -306 765 -312 q 796 -289 786 -299 q 828 -222 819 -265 q 836 -119 836 -178 l 838 135 l 903 135 l 903 -115 q 853 -311 903 -246 q 719 -376 804 -376 m 836 -22 l 282 722 q 258 755 269 739 q 233 788 246 771 l 232 788 l 236 193 q 236 124 236 158 q 233 56 236 89 q 283 58 258 57 q 333 61 308 60 l 333 0 l 79 0 l 79 46 q 141 65 122 46 q 165 109 160 83 q 171 156 171 135 l 172 824 q 172 871 172 847 q 172 917 172 894 q 126 914 150 915 q 79 911 103 913 l 79 972 l 244 972 l 765 275 q 801 228 783 251 q 836 181 818 204 l 838 181 l 839 817 q 840 870 839 844 q 843 917 842 896 q 793 914 818 915 q 743 911 768 913 l 743 972 l 999 972 l 999 926 q 928 903 947 925 q 907 843 908 881 q 906 756 906 806 l 903 -22 l 836 -22 z "},"Ñ":{"ha":1058,"x_min":79,"x_max":999,"o":"m 836 -22 l 282 722 q 258 755 269 739 q 233 788 246 771 l 232 788 l 236 193 q 236 124 236 158 q 233 56 236 89 q 283 58 258 57 q 333 61 308 60 l 333 0 l 79 0 l 79 46 q 141 65 122 46 q 165 109 160 83 q 171 156 171 135 l 172 824 q 172 871 172 847 q 172 917 172 894 q 126 914 150 915 q 79 911 103 913 l 79 972 l 244 972 l 765 275 q 801 228 783 251 q 836 181 818 204 l 838 181 l 839 817 q 840 870 839 844 q 843 917 842 896 q 793 914 818 915 q 743 911 768 913 l 743 972 l 999 972 l 999 926 q 928 903 947 925 q 907 843 908 881 q 906 756 906 806 l 903 -22 l 836 -22 m 817 1235 q 770 1144 797 1178 q 713 1094 743 1110 q 651 1079 682 1079 q 581 1094 611 1079 q 525 1128 550 1108 q 478 1163 500 1149 q 431 1178 456 1178 q 377 1156 400 1178 q 328 1094 354 1133 l 281 1121 q 349 1222 304 1182 q 438 1264 394 1263 q 508 1251 479 1265 q 561 1217 538 1236 q 608 1182 585 1197 q 660 1167 632 1167 q 724 1194 697 1167 q 772 1257 751 1221 l 817 1235 z "},"O":{"ha":1103,"x_min":64,"x_max":1042,"o":"m 558 -22 q 332 22 426 -22 q 178 141 238 67 q 92 306 119 215 q 64 486 64 396 q 93 663 64 574 q 183 828 122 753 q 334 949 243 903 q 547 994 425 994 q 768 949 675 994 q 922 827 861 903 q 1012 663 982 751 q 1042 486 1042 574 q 1013 310 1042 400 q 923 145 983 221 q 772 24 863 69 q 558 -22 682 -22 m 561 35 q 711 72 647 35 q 817 170 775 108 q 881 308 860 232 q 903 460 903 383 q 879 631 903 546 q 810 785 856 715 q 697 897 764 854 q 543 939 629 939 q 392 901 457 939 q 285 802 328 864 q 222 665 243 740 q 200 511 200 589 q 222 351 200 435 q 288 196 243 268 q 400 79 332 124 q 561 35 468 35 z "},"Ó":{"ha":1103,"x_min":64,"x_max":1042,"o":"m 492 1056 l 461 1096 l 636 1263 q 684 1288 664 1286 q 716 1281 704 1289 q 729 1269 728 1274 q 737 1249 733 1264 q 733 1217 740 1235 q 693 1179 725 1199 l 492 1056 m 558 -22 q 332 22 426 -22 q 178 141 238 67 q 92 306 119 215 q 64 486 64 396 q 93 663 64 574 q 183 828 122 753 q 334 949 243 903 q 547 994 425 994 q 768 949 675 994 q 922 827 861 903 q 1012 663 982 751 q 1042 486 1042 574 q 1013 310 1042 400 q 923 145 983 221 q 772 24 863 69 q 558 -22 682 -22 m 561 35 q 711 72 647 35 q 817 170 775 108 q 881 308 860 232 q 903 460 903 383 q 879 631 903 546 q 810 785 856 715 q 697 897 764 854 q 543 939 629 939 q 392 901 457 939 q 285 802 328 864 q 222 665 243 740 q 200 511 200 589 q 222 351 200 435 q 288 196 243 268 q 400 79 332 124 q 561 35 468 35 z "},"Ŏ":{"ha":1103,"x_min":64,"x_max":1042,"o":"m 558 -22 q 332 22 426 -22 q 178 141 238 67 q 92 306 119 215 q 64 486 64 396 q 93 663 64 574 q 183 828 122 753 q 334 949 243 903 q 547 994 425 994 q 768 949 675 994 q 922 827 861 903 q 1012 663 982 751 q 1042 486 1042 574 q 1013 310 1042 400 q 923 145 983 221 q 772 24 863 69 q 558 -22 682 -22 m 561 35 q 711 72 647 35 q 817 170 775 108 q 881 308 860 232 q 903 460 903 383 q 879 631 903 546 q 810 785 856 715 q 697 897 764 854 q 543 939 629 939 q 392 901 457 939 q 285 802 328 864 q 222 665 243 740 q 200 511 200 589 q 222 351 200 435 q 288 196 243 268 q 400 79 332 124 q 561 35 468 35 m 540 1124 q 460 1140 499 1124 q 390 1189 421 1157 q 338 1267 358 1221 l 374 1283 q 442 1231 396 1254 q 540 1208 488 1208 q 639 1231 593 1208 q 707 1283 685 1254 l 744 1267 q 692 1189 724 1221 q 622 1140 660 1157 q 540 1124 583 1124 z "},"Ô":{"ha":1103,"x_min":64,"x_max":1042,"o":"m 558 -22 q 332 22 426 -22 q 178 141 238 67 q 92 306 119 215 q 64 486 64 396 q 93 663 64 574 q 183 828 122 753 q 334 949 243 903 q 547 994 425 994 q 768 949 675 994 q 922 827 861 903 q 1012 663 982 751 q 1042 486 1042 574 q 1013 310 1042 400 q 923 145 983 221 q 772 24 863 69 q 558 -22 682 -22 m 561 35 q 711 72 647 35 q 817 170 775 108 q 881 308 860 232 q 903 460 903 383 q 879 631 903 546 q 810 785 856 715 q 697 897 764 854 q 543 939 629 939 q 392 901 457 939 q 285 802 328 864 q 222 665 243 740 q 200 511 200 589 q 222 351 200 435 q 288 196 243 268 q 400 79 332 124 q 561 35 468 35 m 721 1056 l 542 1172 l 365 1056 l 331 1096 l 546 1293 l 549 1293 l 753 1097 l 721 1056 z "},"Ố":{"ha":1103,"x_min":64,"x_max":1042,"o":"m 558 -22 q 332 22 426 -22 q 178 141 238 67 q 92 306 119 215 q 64 486 64 396 q 93 663 64 574 q 183 828 122 753 q 334 949 243 903 q 547 994 425 994 q 768 949 675 994 q 922 827 861 903 q 1012 663 982 751 q 1042 486 1042 574 q 1013 310 1042 400 q 923 145 983 221 q 772 24 863 69 q 558 -22 682 -22 m 561 35 q 711 72 647 35 q 817 170 775 108 q 881 308 860 232 q 903 460 903 383 q 879 631 903 546 q 810 785 856 715 q 697 897 764 854 q 543 939 629 939 q 392 901 457 939 q 285 802 328 864 q 222 665 243 740 q 200 511 200 589 q 222 351 200 435 q 288 196 243 268 q 400 79 332 124 q 561 35 468 35 m 690 1042 l 542 1138 l 396 1042 l 367 1075 l 546 1238 l 547 1238 l 717 1076 l 690 1042 m 750 1144 l 711 1176 l 828 1364 q 868 1399 849 1394 q 901 1399 888 1404 q 918 1390 915 1393 q 931 1372 924 1386 q 934 1338 938 1358 q 906 1292 931 1318 l 750 1144 z "},"Ộ":{"ha":1103,"x_min":64,"x_max":1042,"o":"m 551 -256 q 505 -235 525 -256 q 485 -182 485 -214 q 505 -130 485 -151 q 553 -108 525 -108 q 600 -130 581 -108 q 619 -182 619 -151 q 599 -235 619 -214 q 551 -256 578 -256 m 558 -22 q 332 22 426 -22 q 178 141 238 67 q 92 306 119 215 q 64 486 64 396 q 93 663 64 574 q 183 828 122 753 q 334 949 243 903 q 547 994 425 994 q 768 949 675 994 q 922 827 861 903 q 1012 663 982 751 q 1042 486 1042 574 q 1013 310 1042 400 q 923 145 983 221 q 772 24 863 69 q 558 -22 682 -22 m 561 35 q 711 72 647 35 q 817 170 775 108 q 881 308 860 232 q 903 460 903 383 q 879 631 903 546 q 810 785 856 715 q 697 897 764 854 q 543 939 629 939 q 392 901 457 939 q 285 802 328 864 q 222 665 243 740 q 200 511 200 589 q 222 351 200 435 q 288 196 243 268 q 400 79 332 124 q 561 35 468 35 m 721 1056 l 542 1172 l 365 1056 l 331 1096 l 546 1293 l 549 1293 l 753 1097 l 721 1056 z "},"Ồ":{"ha":1103,"x_min":64,"x_max":1042,"o":"m 558 -22 q 332 22 426 -22 q 178 141 238 67 q 92 306 119 215 q 64 486 64 396 q 93 663 64 574 q 183 828 122 753 q 334 949 243 903 q 547 994 425 994 q 768 949 675 994 q 922 827 861 903 q 1012 663 982 751 q 1042 486 1042 574 q 1013 310 1042 400 q 923 145 983 221 q 772 24 863 69 q 558 -22 682 -22 m 561 35 q 711 72 647 35 q 817 170 775 108 q 881 308 860 232 q 903 460 903 383 q 879 631 903 546 q 810 785 856 715 q 697 897 764 854 q 543 939 629 939 q 392 901 457 939 q 285 802 328 864 q 222 665 243 740 q 200 511 200 589 q 222 351 200 435 q 288 196 243 268 q 400 79 332 124 q 561 35 468 35 m 690 1042 l 542 1138 l 396 1042 l 367 1075 l 546 1238 l 547 1238 l 717 1076 l 690 1042 m 719 1188 l 564 1335 q 535 1381 539 1361 q 539 1415 532 1401 q 551 1433 546 1429 q 569 1442 556 1436 q 601 1442 582 1447 q 642 1407 621 1438 l 758 1219 l 719 1188 z "},"Ổ":{"ha":1103,"x_min":64,"x_max":1042,"o":"m 558 -22 q 332 22 426 -22 q 178 141 238 67 q 92 306 119 215 q 64 486 64 396 q 93 663 64 574 q 183 828 122 753 q 334 949 243 903 q 547 994 425 994 q 768 949 675 994 q 922 827 861 903 q 1012 663 982 751 q 1042 486 1042 574 q 1013 310 1042 400 q 923 145 983 221 q 772 24 863 69 q 558 -22 682 -22 m 561 35 q 711 72 647 35 q 817 170 775 108 q 881 308 860 232 q 903 460 903 383 q 879 631 903 546 q 810 785 856 715 q 697 897 764 854 q 543 939 629 939 q 392 901 457 939 q 285 802 328 864 q 222 665 243 740 q 200 511 200 589 q 222 351 200 435 q 288 196 243 268 q 400 79 332 124 q 561 35 468 35 m 690 1042 l 542 1138 l 396 1042 l 367 1075 l 546 1238 l 547 1238 l 717 1076 l 690 1042 m 700 1176 q 717 1218 700 1201 q 753 1250 735 1235 q 773 1277 767 1261 q 779 1307 779 1293 q 760 1357 779 1335 q 706 1379 740 1379 q 662 1366 681 1379 q 640 1338 643 1353 q 646 1328 643 1333 q 649 1315 649 1322 q 635 1289 649 1299 q 606 1279 622 1279 q 574 1292 589 1279 q 560 1332 560 1304 q 576 1378 560 1356 q 626 1415 593 1400 q 704 1429 658 1429 q 817 1394 778 1429 q 856 1317 856 1358 q 840 1261 856 1282 q 799 1221 824 1240 q 769 1198 782 1208 q 757 1176 757 1188 l 700 1176 z "},"Ỗ":{"ha":1103,"x_min":64,"x_max":1042,"o":"m 558 -22 q 332 22 426 -22 q 178 141 238 67 q 92 306 119 215 q 64 486 64 396 q 93 663 64 574 q 183 828 122 753 q 334 949 243 903 q 547 994 425 994 q 768 949 675 994 q 922 827 861 903 q 1012 663 982 751 q 1042 486 1042 574 q 1013 310 1042 400 q 923 145 983 221 q 772 24 863 69 q 558 -22 682 -22 m 561 35 q 711 72 647 35 q 817 170 775 108 q 881 308 860 232 q 903 460 903 383 q 879 631 903 546 q 810 785 856 715 q 697 897 764 854 q 543 939 629 939 q 392 901 457 939 q 285 802 328 864 q 222 665 243 740 q 200 511 200 589 q 222 351 200 435 q 288 196 243 268 q 400 79 332 124 q 561 35 468 35 m 690 1042 l 542 1138 l 396 1042 l 367 1075 l 546 1238 l 547 1238 l 717 1076 l 690 1042 m 800 1388 q 736 1288 778 1319 q 658 1256 694 1256 q 584 1274 615 1256 q 528 1312 553 1293 q 476 1331 503 1331 q 423 1317 451 1331 q 375 1272 394 1304 l 333 1296 q 394 1379 351 1344 q 475 1415 436 1414 q 549 1398 519 1417 q 603 1360 578 1379 q 658 1342 628 1342 q 716 1360 689 1342 q 760 1408 743 1378 l 800 1388 z "},"Ö":{"ha":1103,"x_min":64,"x_max":1042,"o":"m 558 -22 q 332 22 426 -22 q 178 141 238 67 q 92 306 119 215 q 64 486 64 396 q 93 663 64 574 q 183 828 122 753 q 334 949 243 903 q 547 994 425 994 q 768 949 675 994 q 922 827 861 903 q 1012 663 982 751 q 1042 486 1042 574 q 1013 310 1042 400 q 923 145 983 221 q 772 24 863 69 q 558 -22 682 -22 m 561 35 q 711 72 647 35 q 817 170 775 108 q 881 308 860 232 q 903 460 903 383 q 879 631 903 546 q 810 785 856 715 q 697 897 764 854 q 543 939 629 939 q 392 901 457 939 q 285 802 328 864 q 222 665 243 740 q 200 511 200 589 q 222 351 200 435 q 288 196 243 268 q 400 79 332 124 q 561 35 468 35 m 415 1078 q 363 1103 385 1078 q 340 1165 340 1129 q 363 1228 340 1203 q 417 1254 386 1254 q 470 1228 449 1254 q 492 1165 492 1203 q 469 1103 492 1129 q 415 1078 446 1078 m 665 1078 q 613 1103 635 1078 q 590 1165 590 1129 q 613 1228 590 1203 q 667 1254 636 1254 q 719 1228 699 1254 q 740 1165 740 1203 q 718 1103 740 1129 q 665 1078 696 1078 z "},"Ọ":{"ha":1103,"x_min":64,"x_max":1042,"o":"m 551 -256 q 505 -235 525 -256 q 485 -182 485 -214 q 505 -130 485 -151 q 553 -108 525 -108 q 600 -130 581 -108 q 619 -182 619 -151 q 599 -235 619 -214 q 551 -256 578 -256 m 558 -22 q 332 22 426 -22 q 178 141 238 67 q 92 306 119 215 q 64 486 64 396 q 93 663 64 574 q 183 828 122 753 q 334 949 243 903 q 547 994 425 994 q 768 949 675 994 q 922 827 861 903 q 1012 663 982 751 q 1042 486 1042 574 q 1013 310 1042 400 q 923 145 983 221 q 772 24 863 69 q 558 -22 682 -22 m 561 35 q 711 72 647 35 q 817 170 775 108 q 881 308 860 232 q 903 460 903 383 q 879 631 903 546 q 810 785 856 715 q 697 897 764 854 q 543 939 629 939 q 392 901 457 939 q 285 802 328 864 q 222 665 243 740 q 200 511 200 589 q 222 351 200 435 q 288 196 243 268 q 400 79 332 124 q 561 35 468 35 z "},"Ò":{"ha":1103,"x_min":64,"x_max":1042,"o":"m 558 -22 q 332 22 426 -22 q 178 141 238 67 q 92 306 119 215 q 64 486 64 396 q 93 663 64 574 q 183 828 122 753 q 334 949 243 903 q 547 994 425 994 q 768 949 675 994 q 922 827 861 903 q 1012 663 982 751 q 1042 486 1042 574 q 1013 310 1042 400 q 923 145 983 221 q 772 24 863 69 q 558 -22 682 -22 m 561 35 q 711 72 647 35 q 817 170 775 108 q 881 308 860 232 q 903 460 903 383 q 879 631 903 546 q 810 785 856 715 q 697 897 764 854 q 543 939 629 939 q 392 901 457 939 q 285 802 328 864 q 222 665 243 740 q 200 511 200 589 q 222 351 200 435 q 288 196 243 268 q 400 79 332 124 q 561 35 468 35 m 590 1056 l 389 1179 q 350 1217 358 1199 q 345 1249 342 1235 q 353 1269 349 1264 q 367 1281 356 1274 q 399 1288 379 1289 q 446 1263 419 1286 l 621 1096 l 590 1056 z "},"Ỏ":{"ha":1103,"x_min":64,"x_max":1042,"o":"m 558 -22 q 332 22 426 -22 q 178 141 238 67 q 92 306 119 215 q 64 486 64 396 q 93 663 64 574 q 183 828 122 753 q 334 949 243 903 q 547 994 425 994 q 768 949 675 994 q 922 827 861 903 q 1012 663 982 751 q 1042 486 1042 574 q 1013 310 1042 400 q 923 145 983 221 q 772 24 863 69 q 558 -22 682 -22 m 561 35 q 711 72 647 35 q 817 170 775 108 q 881 308 860 232 q 903 460 903 383 q 879 631 903 546 q 810 785 856 715 q 697 897 764 854 q 543 939 629 939 q 392 901 457 939 q 285 802 328 864 q 222 665 243 740 q 200 511 200 589 q 222 351 200 435 q 288 196 243 268 q 400 79 332 124 q 561 35 468 35 m 518 1064 q 535 1106 518 1089 q 571 1138 553 1122 q 591 1165 585 1149 q 597 1194 597 1181 q 578 1244 597 1222 q 524 1267 558 1267 q 480 1253 499 1267 q 458 1225 461 1240 q 464 1215 461 1221 q 467 1203 467 1210 q 453 1176 467 1186 q 424 1167 440 1167 q 392 1179 407 1167 q 378 1219 378 1192 q 394 1265 378 1243 q 444 1302 411 1288 q 522 1317 476 1317 q 635 1281 596 1317 q 674 1204 674 1246 q 658 1149 674 1169 q 617 1108 642 1128 q 588 1085 600 1096 q 575 1064 575 1075 l 518 1064 z "},"Ơ":{"ha":1103,"x_min":64,"x_max":1042,"o":"m 558 -22 q 332 22 426 -22 q 178 141 238 67 q 92 306 119 215 q 64 486 64 396 q 93 663 64 574 q 183 828 122 753 q 334 949 243 903 q 547 994 425 994 q 768 949 675 994 q 922 827 861 903 q 1012 663 982 751 q 1042 486 1042 574 q 1013 310 1042 400 q 923 145 983 221 q 772 24 863 69 q 558 -22 682 -22 m 561 35 q 711 72 647 35 q 817 170 775 108 q 881 308 860 232 q 903 460 903 383 q 879 631 903 546 q 810 785 856 715 q 697 897 764 854 q 543 939 629 939 q 392 901 457 939 q 285 802 328 864 q 222 665 243 740 q 200 511 200 589 q 222 351 200 435 q 288 196 243 268 q 400 79 332 124 q 561 35 468 35 m 703 897 l 703 968 q 785 1004 756 968 q 815 1079 815 1040 l 921 1079 q 893 992 921 1033 q 817 924 865 950 q 703 897 768 897 z "},"Ớ":{"ha":1103,"x_min":64,"x_max":1042,"o":"m 558 -22 q 332 22 426 -22 q 178 141 238 67 q 92 306 119 215 q 64 486 64 396 q 93 663 64 574 q 183 828 122 753 q 334 949 243 903 q 547 994 425 994 q 768 949 675 994 q 922 827 861 903 q 1012 663 982 751 q 1042 486 1042 574 q 1013 310 1042 400 q 923 145 983 221 q 772 24 863 69 q 558 -22 682 -22 m 561 35 q 711 72 647 35 q 817 170 775 108 q 881 308 860 232 q 903 460 903 383 q 879 631 903 546 q 810 785 856 715 q 697 897 764 854 q 543 939 629 939 q 392 901 457 939 q 285 802 328 864 q 222 665 243 740 q 200 511 200 589 q 222 351 200 435 q 288 196 243 268 q 400 79 332 124 q 561 35 468 35 m 703 897 l 703 968 q 785 1004 756 968 q 815 1079 815 1040 l 921 1079 q 893 992 921 1033 q 817 924 865 950 q 703 897 768 897 m 467 1083 l 428 1115 l 544 1303 q 585 1338 565 1333 q 618 1338 604 1343 q 635 1329 632 1332 q 647 1311 640 1325 q 651 1277 654 1297 q 622 1231 647 1257 l 467 1083 z "},"Ợ":{"ha":1103,"x_min":64,"x_max":1042,"o":"m 551 -256 q 505 -235 525 -256 q 485 -182 485 -214 q 505 -130 485 -151 q 553 -108 525 -108 q 600 -130 581 -108 q 619 -182 619 -151 q 599 -235 619 -214 q 551 -256 578 -256 m 558 -22 q 332 22 426 -22 q 178 141 238 67 q 92 306 119 215 q 64 486 64 396 q 93 663 64 574 q 183 828 122 753 q 334 949 243 903 q 547 994 425 994 q 768 949 675 994 q 922 827 861 903 q 1012 663 982 751 q 1042 486 1042 574 q 1013 310 1042 400 q 923 145 983 221 q 772 24 863 69 q 558 -22 682 -22 m 561 35 q 711 72 647 35 q 817 170 775 108 q 881 308 860 232 q 903 460 903 383 q 879 631 903 546 q 810 785 856 715 q 697 897 764 854 q 543 939 629 939 q 392 901 457 939 q 285 802 328 864 q 222 665 243 740 q 200 511 200 589 q 222 351 200 435 q 288 196 243 268 q 400 79 332 124 q 561 35 468 35 m 703 897 l 703 968 q 785 1004 756 968 q 815 1079 815 1040 l 921 1079 q 893 992 921 1033 q 817 924 865 950 q 703 897 768 897 z "},"Ờ":{"ha":1103,"x_min":64,"x_max":1042,"o":"m 558 -22 q 332 22 426 -22 q 178 141 238 67 q 92 306 119 215 q 64 486 64 396 q 93 663 64 574 q 183 828 122 753 q 334 949 243 903 q 547 994 425 994 q 768 949 675 994 q 922 827 861 903 q 1012 663 982 751 q 1042 486 1042 574 q 1013 310 1042 400 q 923 145 983 221 q 772 24 863 69 q 558 -22 682 -22 m 561 35 q 711 72 647 35 q 817 170 775 108 q 881 308 860 232 q 903 460 903 383 q 879 631 903 546 q 810 785 856 715 q 697 897 764 854 q 543 939 629 939 q 392 901 457 939 q 285 802 328 864 q 222 665 243 740 q 200 511 200 589 q 222 351 200 435 q 288 196 243 268 q 400 79 332 124 q 561 35 468 35 m 703 897 l 703 968 q 785 1004 756 968 q 815 1079 815 1040 l 921 1079 q 893 992 921 1033 q 817 924 865 950 q 703 897 768 897 m 614 1083 l 458 1231 q 430 1277 433 1257 q 433 1311 426 1297 q 446 1329 440 1325 q 463 1338 450 1332 q 496 1338 476 1343 q 536 1303 515 1333 l 653 1115 l 614 1083 z "},"Ở":{"ha":1103,"x_min":64,"x_max":1042,"o":"m 558 -22 q 332 22 426 -22 q 178 141 238 67 q 92 306 119 215 q 64 486 64 396 q 93 663 64 574 q 183 828 122 753 q 334 949 243 903 q 547 994 425 994 q 768 949 675 994 q 922 827 861 903 q 1012 663 982 751 q 1042 486 1042 574 q 1013 310 1042 400 q 923 145 983 221 q 772 24 863 69 q 558 -22 682 -22 m 561 35 q 711 72 647 35 q 817 170 775 108 q 881 308 860 232 q 903 460 903 383 q 879 631 903 546 q 810 785 856 715 q 697 897 764 854 q 543 939 629 939 q 392 901 457 939 q 285 802 328 864 q 222 665 243 740 q 200 511 200 589 q 222 351 200 435 q 288 196 243 268 q 400 79 332 124 q 561 35 468 35 m 703 897 l 703 968 q 785 1004 756 968 q 815 1079 815 1040 l 921 1079 q 893 992 921 1033 q 817 924 865 950 q 703 897 768 897 m 518 1064 q 535 1106 518 1089 q 571 1138 553 1122 q 591 1165 585 1149 q 597 1194 597 1181 q 578 1244 597 1222 q 524 1267 558 1267 q 480 1253 499 1267 q 458 1225 461 1240 q 464 1215 461 1221 q 467 1203 467 1210 q 453 1176 467 1186 q 424 1167 440 1167 q 392 1179 407 1167 q 378 1219 378 1192 q 394 1265 378 1243 q 444 1302 411 1288 q 522 1317 476 1317 q 635 1281 596 1317 q 674 1204 674 1246 q 658 1149 674 1169 q 617 1108 642 1128 q 588 1085 600 1096 q 575 1064 575 1075 l 518 1064 z "},"Ỡ":{"ha":1103,"x_min":64,"x_max":1042,"o":"m 558 -22 q 332 22 426 -22 q 178 141 238 67 q 92 306 119 215 q 64 486 64 396 q 93 663 64 574 q 183 828 122 753 q 334 949 243 903 q 547 994 425 994 q 768 949 675 994 q 922 827 861 903 q 1012 663 982 751 q 1042 486 1042 574 q 1013 310 1042 400 q 923 145 983 221 q 772 24 863 69 q 558 -22 682 -22 m 561 35 q 711 72 647 35 q 817 170 775 108 q 881 308 860 232 q 903 460 903 383 q 879 631 903 546 q 810 785 856 715 q 697 897 764 854 q 543 939 629 939 q 392 901 457 939 q 285 802 328 864 q 222 665 243 740 q 200 511 200 589 q 222 351 200 435 q 288 196 243 268 q 400 79 332 124 q 561 35 468 35 m 703 897 l 703 968 q 785 1004 756 968 q 815 1079 815 1040 l 921 1079 q 893 992 921 1033 q 817 924 865 950 q 703 897 768 897 m 774 1260 q 710 1160 751 1192 q 632 1128 668 1128 q 558 1147 589 1128 q 501 1184 526 1165 q 450 1203 476 1203 q 397 1190 425 1203 q 349 1144 368 1176 l 307 1168 q 367 1251 325 1217 q 449 1288 410 1286 q 522 1270 493 1289 q 576 1233 551 1251 q 632 1214 601 1214 q 690 1232 663 1214 q 733 1281 717 1250 l 774 1260 z "},"Ő":{"ha":1103,"x_min":64,"x_max":1042,"o":"m 558 -22 q 332 22 426 -22 q 178 141 238 67 q 92 306 119 215 q 64 486 64 396 q 93 663 64 574 q 183 828 122 753 q 334 949 243 903 q 547 994 425 994 q 768 949 675 994 q 922 827 861 903 q 1012 663 982 751 q 1042 486 1042 574 q 1013 310 1042 400 q 923 145 983 221 q 772 24 863 69 q 558 -22 682 -22 m 561 35 q 711 72 647 35 q 817 170 775 108 q 881 308 860 232 q 903 460 903 383 q 879 631 903 546 q 810 785 856 715 q 697 897 764 854 q 543 939 629 939 q 392 901 457 939 q 285 802 328 864 q 222 665 243 740 q 200 511 200 589 q 222 351 200 435 q 288 196 243 268 q 400 79 332 124 q 561 35 468 35 m 617 1072 l 597 1108 l 750 1250 q 794 1267 769 1268 q 832 1240 818 1265 q 839 1209 840 1225 q 829 1181 838 1193 q 807 1161 821 1168 l 617 1072 m 465 1072 l 429 1099 l 514 1247 q 555 1283 531 1275 q 600 1271 579 1290 q 615 1247 611 1261 q 614 1217 618 1232 q 593 1188 610 1201 l 465 1072 z "},"Ō":{"ha":1103,"x_min":64,"x_max":1042,"o":"m 558 -22 q 332 22 426 -22 q 178 141 238 67 q 92 306 119 215 q 64 486 64 396 q 93 663 64 574 q 183 828 122 753 q 334 949 243 903 q 547 994 425 994 q 768 949 675 994 q 922 827 861 903 q 1012 663 982 751 q 1042 486 1042 574 q 1013 310 1042 400 q 923 145 983 221 q 772 24 863 69 q 558 -22 682 -22 m 561 35 q 711 72 647 35 q 817 170 775 108 q 881 308 860 232 q 903 460 903 383 q 879 631 903 546 q 810 785 856 715 q 697 897 764 854 q 543 939 629 939 q 392 901 457 939 q 285 802 328 864 q 222 665 243 740 q 200 511 200 589 q 222 351 200 435 q 288 196 243 268 q 400 79 332 124 q 561 35 468 35 m 356 1167 l 356 1250 l 724 1250 l 724 1172 l 356 1167 z "},"Ø":{"ha":1103,"x_min":63,"x_max":1040,"o":"m 849 1049 l 924 1001 l 268 -111 l 201 -69 l 849 1049 m 557 -22 q 331 22 425 -22 q 177 141 236 67 q 90 306 118 215 q 63 486 63 396 q 92 663 63 574 q 181 828 121 753 q 333 949 242 903 q 546 994 424 994 q 767 949 674 994 q 920 827 860 903 q 1010 663 981 751 q 1040 486 1040 574 q 1011 310 1040 400 q 922 145 982 221 q 771 24 861 69 q 557 -22 681 -22 m 560 35 q 710 72 646 35 q 816 170 774 108 q 880 308 858 232 q 901 460 901 383 q 878 631 901 546 q 808 785 854 715 q 695 897 763 854 q 542 939 628 939 q 391 901 456 939 q 284 802 326 864 q 220 665 242 740 q 199 511 199 589 q 220 351 199 435 q 286 196 242 268 q 399 79 331 124 q 560 35 467 35 z "},"Ǿ":{"ha":1103,"x_min":63,"x_max":1040,"o":"m 503 1056 l 472 1096 l 647 1263 q 695 1288 675 1286 q 727 1281 715 1289 q 740 1269 739 1274 q 748 1249 744 1264 q 744 1217 751 1235 q 704 1179 736 1199 l 503 1056 m 849 1049 l 924 1001 l 268 -111 l 201 -69 l 849 1049 m 557 -22 q 331 22 425 -22 q 177 141 236 67 q 90 306 118 215 q 63 486 63 396 q 92 663 63 574 q 181 828 121 753 q 333 949 242 903 q 546 994 424 994 q 767 949 674 994 q 920 827 860 903 q 1010 663 981 751 q 1040 486 1040 574 q 1011 310 1040 400 q 922 145 982 221 q 771 24 861 69 q 557 -22 681 -22 m 560 35 q 710 72 646 35 q 816 170 774 108 q 880 308 858 232 q 901 460 901 383 q 878 631 901 546 q 808 785 854 715 q 695 897 763 854 q 542 939 628 939 q 391 901 456 939 q 284 802 326 864 q 220 665 242 740 q 199 511 199 589 q 220 351 199 435 q 286 196 242 268 q 399 79 331 124 q 560 35 467 35 z "},"Õ":{"ha":1103,"x_min":64,"x_max":1042,"o":"m 558 -22 q 332 22 426 -22 q 178 141 238 67 q 92 306 119 215 q 64 486 64 396 q 93 663 64 574 q 183 828 122 753 q 334 949 243 903 q 547 994 425 994 q 768 949 675 994 q 922 827 861 903 q 1012 663 982 751 q 1042 486 1042 574 q 1013 310 1042 400 q 923 145 983 221 q 772 24 863 69 q 558 -22 682 -22 m 561 35 q 711 72 647 35 q 817 170 775 108 q 881 308 860 232 q 903 460 903 383 q 879 631 903 546 q 810 785 856 715 q 697 897 764 854 q 543 939 629 939 q 392 901 457 939 q 285 802 328 864 q 222 665 243 740 q 200 511 200 589 q 222 351 200 435 q 288 196 243 268 q 400 79 332 124 q 561 35 468 35 m 808 1235 q 762 1144 789 1178 q 704 1094 735 1110 q 643 1079 674 1079 q 572 1094 603 1079 q 517 1128 542 1108 q 469 1163 492 1149 q 422 1178 447 1178 q 369 1156 392 1178 q 319 1094 346 1133 l 272 1121 q 341 1222 296 1182 q 429 1264 386 1263 q 500 1251 471 1265 q 553 1217 529 1236 q 600 1182 576 1197 q 651 1167 624 1167 q 716 1194 689 1167 q 764 1257 743 1221 l 808 1235 z "},"Œ":{"ha":1419,"x_min":64,"x_max":1357,"o":"m 1118 360 q 1101 447 1118 421 q 1049 479 1085 474 q 953 482 1013 485 l 849 476 l 849 168 q 848 104 849 131 q 844 60 847 78 l 1111 51 q 1217 70 1172 50 q 1285 140 1261 90 q 1310 271 1310 189 l 1357 271 l 1349 0 l 728 0 q 624 -17 672 -11 q 535 -22 575 -22 q 283 40 389 -22 q 121 211 178 103 q 64 457 64 319 q 93 649 64 556 q 182 820 122 743 q 333 944 242 897 q 551 994 425 992 q 639 988 592 994 q 728 972 686 982 l 1300 972 l 1307 729 l 1261 729 q 1236 853 1261 811 q 1169 910 1211 896 q 1074 924 1126 925 l 954 921 q 881 901 903 919 q 853 848 858 883 q 849 756 849 813 l 849 532 l 1113 532 q 1107 592 1110 563 q 1101 651 1104 621 l 1164 651 l 1164 360 l 1118 360 m 728 904 q 642 929 689 922 q 556 936 596 936 q 417 905 482 936 q 303 814 351 874 q 226 669 254 754 q 200 478 199 585 q 249 249 201 347 q 381 98 297 151 q 575 44 465 44 q 728 67 647 44 l 728 904 z "},"P":{"ha":842,"x_min":76,"x_max":808,"o":"m 76 46 q 149 70 129 49 q 170 130 168 92 q 172 217 172 168 l 172 817 q 174 870 172 844 q 176 917 175 896 q 126 914 151 915 q 76 911 101 913 l 76 972 q 228 974 150 974 q 386 975 306 975 q 613 944 521 975 q 753 854 704 914 q 806 706 801 794 q 790 592 808 651 q 720 481 771 533 q 578 397 669 429 q 343 365 486 365 q 322 365 338 365 q 293 367 307 365 l 293 165 q 292 101 293 128 q 289 56 292 74 q 332 58 311 57 q 374 60 353 60 q 417 63 396 61 l 417 0 l 76 0 l 76 46 m 293 424 q 338 420 319 421 q 383 419 357 419 q 528 451 463 419 q 632 540 593 482 q 671 679 671 599 q 650 791 671 744 q 591 866 629 838 q 500 908 553 894 q 383 921 447 921 q 316 900 335 921 q 295 842 297 879 q 293 756 293 806 l 293 424 z "},"Þ":{"ha":828,"x_min":76,"x_max":796,"o":"m 76 0 l 76 46 q 149 70 129 49 q 170 130 168 92 q 172 217 172 168 l 172 817 q 174 870 172 844 q 176 917 175 896 q 126 914 151 915 q 76 911 101 913 l 76 972 l 389 972 l 389 926 q 309 891 325 925 q 293 803 293 857 l 368 804 q 595 776 503 804 q 737 691 688 749 q 792 544 786 633 q 777 434 796 490 q 707 330 758 378 q 564 253 656 282 q 329 224 472 224 q 311 224 319 224 q 293 224 303 224 q 292 113 293 150 q 289 56 292 75 q 339 58 314 57 q 389 61 364 60 l 389 0 l 76 0 m 383 278 q 590 351 524 281 q 657 524 657 421 q 639 622 657 579 q 585 693 621 664 q 498 737 550 722 q 376 751 446 751 q 332 751 351 751 q 293 749 313 750 l 293 282 q 338 277 318 278 q 383 278 358 276 z "},"Q":{"ha":1106,"x_min":64,"x_max":1092,"o":"m 1047 -303 q 960 -299 997 -303 q 890 -280 924 -296 q 813 -225 856 -264 q 708 -122 750 -168 q 629 -49 665 -76 q 549 -22 593 -22 q 327 26 419 -19 q 176 144 235 71 q 91 308 118 218 q 64 486 64 397 q 93 663 64 574 q 183 828 122 753 q 334 949 243 903 q 547 994 425 994 q 768 949 675 994 q 922 827 861 903 q 1012 663 982 751 q 1042 486 1042 574 q 1019 331 1042 410 q 950 183 996 253 q 835 62 904 113 q 671 -10 765 11 q 735 -16 706 -10 q 797 -41 765 -22 q 869 -99 829 -60 q 951 -174 918 -143 q 1008 -222 985 -204 q 1051 -249 1032 -240 q 1092 -257 1071 -257 l 1092 -303 l 1047 -303 m 561 35 q 711 72 647 35 q 817 170 775 108 q 881 308 860 232 q 903 460 903 383 q 879 631 903 546 q 810 785 856 715 q 697 897 764 854 q 543 939 629 939 q 392 901 457 939 q 285 802 328 864 q 222 665 243 740 q 200 511 200 589 q 222 351 200 435 q 288 196 243 268 q 400 79 332 124 q 561 35 468 35 z "},"R":{"ha":872,"x_min":76,"x_max":872,"o":"m 76 0 l 76 46 q 149 70 129 49 q 170 130 168 92 q 172 217 172 168 l 172 817 q 174 870 172 844 q 176 917 175 896 q 126 914 151 915 q 76 911 101 913 l 76 972 q 234 975 154 974 q 394 974 314 976 q 612 942 529 972 q 733 858 694 913 q 772 725 772 803 q 752 615 774 671 q 674 514 731 558 q 513 447 618 469 q 561 397 540 428 q 608 326 582 367 l 703 178 q 749 110 726 140 q 800 63 771 81 q 872 46 829 46 l 872 0 l 697 0 q 630 72 657 36 q 574 154 603 108 l 481 303 q 440 370 463 332 q 388 435 417 408 q 341 433 365 433 q 293 435 317 433 l 293 165 q 292 101 293 128 q 289 56 292 74 q 322 58 306 57 q 356 60 339 58 q 389 61 372 61 l 389 0 l 76 0 m 379 486 q 513 511 456 489 q 604 582 571 533 q 638 710 638 631 q 623 802 638 763 q 578 868 608 842 q 500 908 547 894 q 389 921 453 921 q 317 900 338 921 q 295 842 297 879 q 293 756 293 806 l 293 489 q 335 486 315 488 q 379 486 356 485 z "},"Ŕ":{"ha":872,"x_min":76,"x_max":872,"o":"m 388 1056 l 357 1096 l 532 1263 q 580 1288 560 1286 q 612 1281 600 1289 q 625 1269 624 1274 q 633 1249 629 1264 q 628 1217 636 1235 q 589 1179 621 1199 l 388 1056 m 76 0 l 76 46 q 149 70 129 49 q 170 130 168 92 q 172 217 172 168 l 172 817 q 174 870 172 844 q 176 917 175 896 q 126 914 151 915 q 76 911 101 913 l 76 972 q 234 975 154 974 q 394 974 314 976 q 612 942 529 972 q 733 858 694 913 q 772 725 772 803 q 752 615 774 671 q 674 514 731 558 q 513 447 618 469 q 561 397 540 428 q 608 326 582 367 l 703 178 q 749 110 726 140 q 800 63 771 81 q 872 46 829 46 l 872 0 l 697 0 q 630 72 657 36 q 574 154 603 108 l 481 303 q 440 370 463 332 q 388 435 417 408 q 341 433 365 433 q 293 435 317 433 l 293 165 q 292 101 293 128 q 289 56 292 74 q 322 58 306 57 q 356 60 339 58 q 389 61 372 61 l 389 0 l 76 0 m 379 486 q 513 511 456 489 q 604 582 571 533 q 638 710 638 631 q 623 802 638 763 q 578 868 608 842 q 500 908 547 894 q 389 921 453 921 q 317 900 338 921 q 295 842 297 879 q 293 756 293 806 l 293 489 q 335 486 315 488 q 379 486 356 485 z "},"Ř":{"ha":872,"x_min":76,"x_max":872,"o":"m 76 0 l 76 46 q 149 70 129 49 q 170 130 168 92 q 172 217 172 168 l 172 817 q 174 870 172 844 q 176 917 175 896 q 126 914 151 915 q 76 911 101 913 l 76 972 q 234 975 154 974 q 394 974 314 976 q 612 942 529 972 q 733 858 694 913 q 772 725 772 803 q 752 615 774 671 q 674 514 731 558 q 513 447 618 469 q 561 397 540 428 q 608 326 582 367 l 703 178 q 749 110 726 140 q 800 63 771 81 q 872 46 829 46 l 872 0 l 697 0 q 630 72 657 36 q 574 154 603 108 l 481 303 q 440 370 463 332 q 388 435 417 408 q 341 433 365 433 q 293 435 317 433 l 293 165 q 292 101 293 128 q 289 56 292 74 q 322 58 306 57 q 356 60 339 58 q 389 61 372 61 l 389 0 l 76 0 m 379 486 q 513 511 456 489 q 604 582 571 533 q 638 710 638 631 q 623 802 638 763 q 578 868 608 842 q 500 908 547 894 q 389 921 453 921 q 317 900 338 921 q 295 842 297 879 q 293 756 293 806 l 293 489 q 335 486 315 488 q 379 486 356 485 m 428 1083 l 172 1279 l 203 1326 l 436 1204 l 672 1329 l 700 1285 l 431 1083 l 428 1083 z "},"Ŗ":{"ha":872,"x_min":76,"x_max":872,"o":"m 76 0 l 76 46 q 149 70 129 49 q 170 130 168 92 q 172 217 172 168 l 172 817 q 174 870 172 844 q 176 917 175 896 q 126 914 151 915 q 76 911 101 913 l 76 972 q 234 975 154 974 q 394 974 314 976 q 612 942 529 972 q 733 858 694 913 q 772 725 772 803 q 752 615 774 671 q 674 514 731 558 q 513 447 618 469 q 561 397 540 428 q 608 326 582 367 l 703 178 q 749 110 726 140 q 800 63 771 81 q 872 46 829 46 l 872 0 l 697 0 q 630 72 657 36 q 574 154 603 108 l 481 303 q 440 370 463 332 q 388 435 417 408 q 341 433 365 433 q 293 435 317 433 l 293 165 q 292 101 293 128 q 289 56 292 74 q 322 58 306 57 q 356 60 339 58 q 389 61 372 61 l 389 0 l 76 0 m 379 486 q 513 511 456 489 q 604 582 571 533 q 638 710 638 631 q 623 802 638 763 q 578 868 608 842 q 500 908 547 894 q 389 921 453 921 q 317 900 338 921 q 295 842 297 879 q 293 756 293 806 l 293 489 q 335 486 315 488 q 379 486 356 485 m 413 -360 l 376 -333 q 417 -236 407 -278 q 423 -158 426 -194 q 407 -83 419 -122 l 503 -56 q 525 -144 525 -99 q 495 -252 525 -197 q 413 -360 465 -307 z "},"S":{"ha":788,"x_min":81,"x_max":726,"o":"m 622 678 q 590 804 618 744 q 510 901 563 864 q 375 939 457 939 q 243 890 289 939 q 197 776 197 842 q 231 678 197 718 q 317 609 264 639 q 431 551 371 579 q 536 501 483 528 q 632 439 589 474 q 701 356 675 404 q 726 242 726 308 q 688 106 726 165 q 578 12 650 46 q 401 -22 506 -22 q 272 -4 339 -22 q 154 49 206 14 l 161 -11 l 89 -11 l 81 285 l 135 285 q 219 99 142 163 q 407 36 297 36 q 507 56 461 36 q 580 115 553 76 q 607 210 607 154 q 574 314 607 272 q 488 386 540 356 q 375 444 435 417 q 271 494 322 468 q 177 555 219 521 q 109 636 135 589 q 83 750 83 683 q 96 828 83 786 q 140 908 108 869 q 226 970 171 946 q 365 994 281 994 q 484 980 418 994 q 607 924 550 965 l 601 983 l 672 983 l 672 678 l 622 678 z "},"Ś":{"ha":788,"x_min":81,"x_max":726,"o":"m 329 1056 l 299 1096 l 474 1263 q 522 1288 501 1286 q 553 1281 542 1289 q 567 1269 565 1274 q 574 1249 571 1264 q 570 1217 578 1235 q 531 1179 563 1199 l 329 1056 m 622 678 q 590 804 618 744 q 510 901 563 864 q 375 939 457 939 q 243 890 289 939 q 197 776 197 842 q 231 678 197 718 q 317 609 264 639 q 431 551 371 579 q 536 501 483 528 q 632 439 589 474 q 701 356 675 404 q 726 242 726 308 q 688 106 726 165 q 578 12 650 46 q 401 -22 506 -22 q 272 -4 339 -22 q 154 49 206 14 l 161 -11 l 89 -11 l 81 285 l 135 285 q 219 99 142 163 q 407 36 297 36 q 507 56 461 36 q 580 115 553 76 q 607 210 607 154 q 574 314 607 272 q 488 386 540 356 q 375 444 435 417 q 271 494 322 468 q 177 555 219 521 q 109 636 135 589 q 83 750 83 683 q 96 828 83 786 q 140 908 108 869 q 226 970 171 946 q 365 994 281 994 q 484 980 418 994 q 607 924 550 965 l 601 983 l 672 983 l 672 678 l 622 678 z "},"Š":{"ha":788,"x_min":81,"x_max":726,"o":"m 622 678 q 590 804 618 744 q 510 901 563 864 q 375 939 457 939 q 243 890 289 939 q 197 776 197 842 q 231 678 197 718 q 317 609 264 639 q 431 551 371 579 q 536 501 483 528 q 632 439 589 474 q 701 356 675 404 q 726 242 726 308 q 688 106 726 165 q 578 12 650 46 q 401 -22 506 -22 q 272 -4 339 -22 q 154 49 206 14 l 161 -11 l 89 -11 l 81 285 l 135 285 q 219 99 142 163 q 407 36 297 36 q 507 56 461 36 q 580 115 553 76 q 607 210 607 154 q 574 314 607 272 q 488 386 540 356 q 375 444 435 417 q 271 494 322 468 q 177 555 219 521 q 109 636 135 589 q 83 750 83 683 q 96 828 83 786 q 140 908 108 869 q 226 970 171 946 q 365 994 281 994 q 484 980 418 994 q 607 924 550 965 l 601 983 l 672 983 l 672 678 l 622 678 m 369 1083 l 114 1279 l 144 1326 l 378 1204 l 614 1329 l 642 1285 l 372 1083 l 369 1083 z "},"Ş":{"ha":788,"x_min":81,"x_max":726,"o":"m 622 678 q 590 804 618 744 q 510 901 563 864 q 375 939 457 939 q 243 890 289 939 q 197 776 197 842 q 231 678 197 718 q 317 609 264 639 q 431 551 371 579 q 536 501 483 528 q 632 439 589 474 q 701 356 675 404 q 726 242 726 308 q 688 106 726 165 q 578 12 650 46 q 401 -22 506 -22 q 272 -4 339 -22 q 154 49 206 14 l 161 -11 l 89 -11 l 81 285 l 135 285 q 219 99 142 163 q 407 36 297 36 q 507 56 461 36 q 580 115 553 76 q 607 210 607 154 q 574 314 607 272 q 488 386 540 356 q 375 444 435 417 q 271 494 322 468 q 177 555 219 521 q 109 636 135 589 q 83 750 83 683 q 96 828 83 786 q 140 908 108 869 q 226 970 171 946 q 365 994 281 994 q 484 980 418 994 q 607 924 550 965 l 601 983 l 672 983 l 672 678 l 622 678 m 290 -335 l 282 -289 q 348 -272 318 -282 q 401 -249 378 -262 q 436 -219 424 -236 q 449 -182 449 -203 q 430 -146 449 -154 q 386 -142 411 -137 q 342 -161 361 -147 l 294 -139 l 335 11 l 413 11 l 375 -103 q 420 -85 394 -92 q 469 -79 446 -79 q 538 -104 513 -79 q 563 -171 563 -129 q 534 -242 563 -212 q 462 -290 506 -271 q 372 -319 418 -308 q 290 -335 326 -329 z "},"Ŝ":{"ha":788,"x_min":81,"x_max":726,"o":"m 622 678 q 590 804 618 744 q 510 901 563 864 q 375 939 457 939 q 243 890 289 939 q 197 776 197 842 q 231 678 197 718 q 317 609 264 639 q 431 551 371 579 q 536 501 483 528 q 632 439 589 474 q 701 356 675 404 q 726 242 726 308 q 688 106 726 165 q 578 12 650 46 q 401 -22 506 -22 q 272 -4 339 -22 q 154 49 206 14 l 161 -11 l 89 -11 l 81 285 l 135 285 q 219 99 142 163 q 407 36 297 36 q 507 56 461 36 q 580 115 553 76 q 607 210 607 154 q 574 314 607 272 q 488 386 540 356 q 375 444 435 417 q 271 494 322 468 q 177 555 219 521 q 109 636 135 589 q 83 750 83 683 q 96 828 83 786 q 140 908 108 869 q 226 970 171 946 q 365 994 281 994 q 484 980 418 994 q 607 924 550 965 l 601 983 l 672 983 l 672 678 l 622 678 m 558 1056 l 379 1172 l 203 1056 l 168 1096 l 383 1293 l 386 1293 l 590 1097 l 558 1056 z "},"Ș":{"ha":788,"x_min":81,"x_max":726,"o":"m 622 678 q 590 804 618 744 q 510 901 563 864 q 375 939 457 939 q 243 890 289 939 q 197 776 197 842 q 231 678 197 718 q 317 609 264 639 q 431 551 371 579 q 536 501 483 528 q 632 439 589 474 q 701 356 675 404 q 726 242 726 308 q 688 106 726 165 q 578 12 650 46 q 401 -22 506 -22 q 272 -4 339 -22 q 154 49 206 14 l 161 -11 l 89 -11 l 81 285 l 135 285 q 219 99 142 163 q 407 36 297 36 q 507 56 461 36 q 580 115 553 76 q 607 210 607 154 q 574 314 607 272 q 488 386 540 356 q 375 444 435 417 q 271 494 322 468 q 177 555 219 521 q 109 636 135 589 q 83 750 83 683 q 96 828 83 786 q 140 908 108 869 q 226 970 171 946 q 365 994 281 994 q 484 980 418 994 q 607 924 550 965 l 601 983 l 672 983 l 672 678 l 622 678 m 371 -360 l 335 -333 q 375 -236 365 -278 q 381 -158 385 -194 q 365 -83 378 -122 l 461 -56 q 483 -144 483 -99 q 453 -252 483 -197 q 371 -360 424 -307 z "},"ẞ":{"ha":946,"x_min":68,"x_max":872,"o":"m 565 -22 q 447 -1 503 -22 q 346 64 390 21 l 382 93 q 451 58 410 71 q 532 44 493 44 q 635 71 589 44 q 708 150 681 97 q 735 281 735 203 q 670 449 735 393 q 469 511 606 506 l 435 510 l 435 568 l 615 810 q 669 871 642 846 q 738 921 697 896 l 469 917 q 317 844 365 915 q 268 650 268 774 l 269 147 q 269 121 269 133 q 269 92 269 108 q 267 55 268 76 q 264 0 267 33 l 68 0 l 68 42 q 128 63 111 42 q 147 123 144 85 q 150 211 150 161 l 149 625 q 165 754 149 692 q 217 866 181 817 q 316 944 254 915 q 469 972 378 972 l 829 972 l 828 924 l 558 568 q 696 542 638 565 q 794 481 754 519 q 853 390 833 442 q 872 278 872 338 q 847 147 872 203 q 778 53 822 90 q 680 -3 735 15 q 565 -22 625 -22 z "},"Ə":{"ha":1069,"x_min":88,"x_max":1008,"o":"m 549 -21 q 355 12 440 -21 q 210 106 269 44 q 119 255 150 168 q 88 450 88 342 q 88 481 88 465 q 90 513 89 497 l 872 514 q 842 686 869 608 q 765 820 814 764 q 648 907 715 876 q 499 938 581 938 q 353 907 419 938 q 246 818 288 876 q 194 676 204 760 l 144 676 l 144 985 l 219 985 l 213 910 q 316 961 260 943 q 429 987 372 979 q 535 994 486 994 q 748 953 658 994 q 895 842 838 911 q 981 687 953 772 q 1008 513 1008 601 q 975 306 1008 403 q 881 136 942 210 q 735 21 819 63 q 549 -21 651 -21 m 540 35 q 673 67 614 35 q 775 157 732 99 q 842 292 818 215 q 871 458 867 369 l 211 453 q 235 299 213 374 q 301 165 258 224 q 403 70 343 106 q 540 35 464 35 z "},"T":{"ha":889,"x_min":31,"x_max":857,"o":"m 804 679 q 788 815 803 761 q 734 897 772 869 q 624 922 696 924 l 506 922 l 504 165 q 503 101 504 128 q 500 56 503 74 q 558 58 529 57 q 615 61 586 60 l 615 0 l 289 0 l 289 46 q 360 71 342 49 q 381 131 379 93 q 383 217 383 169 l 385 921 l 242 919 q 118 861 154 919 q 82 679 82 803 l 31 679 l 39 972 l 849 972 l 857 679 l 804 679 z "},"Ŧ":{"ha":889,"x_min":31,"x_max":857,"o":"m 211 442 l 211 501 l 706 501 l 706 447 l 211 442 m 804 679 q 788 815 803 761 q 734 897 772 869 q 624 922 696 924 l 506 922 l 504 165 q 503 101 504 128 q 500 56 503 74 q 558 58 529 57 q 615 61 586 60 l 615 0 l 289 0 l 289 46 q 360 71 342 49 q 381 131 379 93 q 383 217 383 169 l 385 921 l 242 919 q 118 861 154 919 q 82 679 82 803 l 31 679 l 39 972 l 849 972 l 857 679 l 804 679 z "},"Ť":{"ha":889,"x_min":31,"x_max":857,"o":"m 804 679 q 788 815 803 761 q 734 897 772 869 q 624 922 696 924 l 506 922 l 504 165 q 503 101 504 128 q 500 56 503 74 q 558 58 529 57 q 615 61 586 60 l 615 0 l 289 0 l 289 46 q 360 71 342 49 q 381 131 379 93 q 383 217 383 169 l 385 921 l 242 919 q 118 861 154 919 q 82 679 82 803 l 31 679 l 39 972 l 849 972 l 857 679 l 804 679 m 436 1083 l 181 1279 l 211 1326 l 444 1204 l 681 1329 l 708 1285 l 439 1083 l 436 1083 z "},"Ţ":{"ha":889,"x_min":31,"x_max":857,"o":"m 804 679 q 788 815 803 761 q 734 897 772 869 q 624 922 696 924 l 506 922 l 504 165 q 503 101 504 128 q 500 56 503 74 q 558 58 529 57 q 615 61 586 60 l 615 0 l 289 0 l 289 46 q 360 71 342 49 q 381 131 379 93 q 383 217 383 169 l 385 921 l 242 919 q 118 861 154 919 q 82 679 82 803 l 31 679 l 39 972 l 849 972 l 857 679 l 804 679 m 314 -335 l 306 -289 q 372 -272 342 -282 q 424 -249 401 -262 q 460 -219 447 -236 q 472 -182 472 -203 q 453 -146 472 -154 q 410 -142 435 -137 q 365 -161 385 -147 l 318 -139 l 358 11 l 436 11 l 399 -103 q 444 -85 418 -92 q 493 -79 469 -79 q 561 -104 536 -79 q 586 -171 586 -129 q 558 -242 586 -212 q 485 -290 529 -271 q 396 -319 442 -308 q 314 -335 350 -329 z "},"Ț":{"ha":889,"x_min":31,"x_max":857,"o":"m 804 679 q 788 815 803 761 q 734 897 772 869 q 624 922 696 924 l 506 922 l 504 165 q 503 101 504 128 q 500 56 503 74 q 558 58 529 57 q 615 61 586 60 l 615 0 l 289 0 l 289 46 q 360 71 342 49 q 381 131 379 93 q 383 217 383 169 l 385 921 l 242 919 q 118 861 154 919 q 82 679 82 803 l 31 679 l 39 972 l 849 972 l 857 679 l 804 679 m 394 -360 l 358 -333 q 399 -236 389 -278 q 405 -158 408 -194 q 389 -83 401 -122 l 485 -56 q 507 -144 507 -99 q 477 -252 507 -197 q 394 -360 447 -307 z "},"U":{"ha":1044,"x_min":43,"x_max":1003,"o":"m 354 926 q 288 907 308 926 q 264 862 268 888 q 260 817 260 836 l 260 467 q 270 316 260 389 q 310 185 281 243 q 397 92 339 126 q 547 57 454 57 q 710 104 647 57 q 803 235 774 151 q 835 426 833 318 l 839 817 q 840 870 839 844 q 843 917 842 896 q 794 914 818 915 q 744 911 769 913 l 744 972 l 1003 972 l 1003 926 q 930 903 950 925 q 908 843 910 881 q 906 756 906 806 l 903 433 q 883 261 903 343 q 820 115 864 179 q 705 15 776 51 q 529 -22 633 -22 q 342 7 418 -22 q 222 97 267 36 q 157 251 176 158 q 138 474 138 344 l 138 756 q 140 841 138 792 q 143 917 142 890 q 93 915 118 915 q 43 913 68 914 l 43 972 l 354 972 l 354 926 z "},"Ú":{"ha":1044,"x_min":43,"x_max":1003,"o":"m 490 1056 l 460 1096 l 635 1263 q 683 1288 663 1286 q 715 1281 703 1289 q 728 1269 726 1274 q 735 1249 732 1264 q 731 1217 739 1235 q 692 1179 724 1199 l 490 1056 m 354 926 q 288 907 308 926 q 264 862 268 888 q 260 817 260 836 l 260 467 q 270 316 260 389 q 310 185 281 243 q 397 92 339 126 q 547 57 454 57 q 710 104 647 57 q 803 235 774 151 q 835 426 833 318 l 839 817 q 840 870 839 844 q 843 917 842 896 q 794 914 818 915 q 744 911 769 913 l 744 972 l 1003 972 l 1003 926 q 930 903 950 925 q 908 843 910 881 q 906 756 906 806 l 903 433 q 883 261 903 343 q 820 115 864 179 q 705 15 776 51 q 529 -22 633 -22 q 342 7 418 -22 q 222 97 267 36 q 157 251 176 158 q 138 474 138 344 l 138 756 q 140 841 138 792 q 143 917 142 890 q 93 915 118 915 q 43 913 68 914 l 43 972 l 354 972 l 354 926 z "},"Ŭ":{"ha":1044,"x_min":43,"x_max":1003,"o":"m 354 926 q 288 907 308 926 q 264 862 268 888 q 260 817 260 836 l 260 467 q 270 316 260 389 q 310 185 281 243 q 397 92 339 126 q 547 57 454 57 q 710 104 647 57 q 803 235 774 151 q 835 426 833 318 l 839 817 q 840 870 839 844 q 843 917 842 896 q 794 914 818 915 q 744 911 769 913 l 744 972 l 1003 972 l 1003 926 q 930 903 950 925 q 908 843 910 881 q 906 756 906 806 l 903 433 q 883 261 903 343 q 820 115 864 179 q 705 15 776 51 q 529 -22 633 -22 q 342 7 418 -22 q 222 97 267 36 q 157 251 176 158 q 138 474 138 344 l 138 756 q 140 841 138 792 q 143 917 142 890 q 93 915 118 915 q 43 913 68 914 l 43 972 l 354 972 l 354 926 m 539 1124 q 458 1140 497 1124 q 388 1189 419 1157 q 336 1267 357 1221 l 372 1283 q 440 1231 394 1254 q 539 1208 486 1208 q 638 1231 592 1208 q 706 1283 683 1254 l 743 1267 q 690 1189 722 1221 q 620 1140 658 1157 q 539 1124 582 1124 z "},"Ǔ":{"ha":1044,"x_min":43,"x_max":1003,"o":"m 354 926 q 288 907 308 926 q 264 862 268 888 q 260 817 260 836 l 260 467 q 270 316 260 389 q 310 185 281 243 q 397 92 339 126 q 547 57 454 57 q 710 104 647 57 q 803 235 774 151 q 835 426 833 318 l 839 817 q 840 870 839 844 q 843 917 842 896 q 794 914 818 915 q 744 911 769 913 l 744 972 l 1003 972 l 1003 926 q 930 903 950 925 q 908 843 910 881 q 906 756 906 806 l 903 433 q 883 261 903 343 q 820 115 864 179 q 705 15 776 51 q 529 -22 633 -22 q 342 7 418 -22 q 222 97 267 36 q 157 251 176 158 q 138 474 138 344 l 138 756 q 140 841 138 792 q 143 917 142 890 q 93 915 118 915 q 43 913 68 914 l 43 972 l 354 972 l 354 926 m 531 1083 l 275 1279 l 306 1326 l 539 1204 l 775 1329 l 803 1285 l 533 1083 l 531 1083 z "},"Û":{"ha":1044,"x_min":43,"x_max":1003,"o":"m 354 926 q 288 907 308 926 q 264 862 268 888 q 260 817 260 836 l 260 467 q 270 316 260 389 q 310 185 281 243 q 397 92 339 126 q 547 57 454 57 q 710 104 647 57 q 803 235 774 151 q 835 426 833 318 l 839 817 q 840 870 839 844 q 843 917 842 896 q 794 914 818 915 q 744 911 769 913 l 744 972 l 1003 972 l 1003 926 q 930 903 950 925 q 908 843 910 881 q 906 756 906 806 l 903 433 q 883 261 903 343 q 820 115 864 179 q 705 15 776 51 q 529 -22 633 -22 q 342 7 418 -22 q 222 97 267 36 q 157 251 176 158 q 138 474 138 344 l 138 756 q 140 841 138 792 q 143 917 142 890 q 93 915 118 915 q 43 913 68 914 l 43 972 l 354 972 l 354 926 m 719 1056 l 540 1172 l 364 1056 l 329 1096 l 544 1293 l 547 1293 l 751 1097 l 719 1056 z "},"Ü":{"ha":1044,"x_min":43,"x_max":1003,"o":"m 354 926 q 288 907 308 926 q 264 862 268 888 q 260 817 260 836 l 260 467 q 270 316 260 389 q 310 185 281 243 q 397 92 339 126 q 547 57 454 57 q 710 104 647 57 q 803 235 774 151 q 835 426 833 318 l 839 817 q 840 870 839 844 q 843 917 842 896 q 794 914 818 915 q 744 911 769 913 l 744 972 l 1003 972 l 1003 926 q 930 903 950 925 q 908 843 910 881 q 906 756 906 806 l 903 433 q 883 261 903 343 q 820 115 864 179 q 705 15 776 51 q 529 -22 633 -22 q 342 7 418 -22 q 222 97 267 36 q 157 251 176 158 q 138 474 138 344 l 138 756 q 140 841 138 792 q 143 917 142 890 q 93 915 118 915 q 43 913 68 914 l 43 972 l 354 972 l 354 926 m 414 1078 q 361 1103 383 1078 q 339 1165 339 1129 q 362 1228 339 1203 q 415 1254 385 1254 q 469 1228 447 1254 q 490 1165 490 1203 q 467 1103 490 1129 q 414 1078 444 1078 m 664 1078 q 611 1103 633 1078 q 589 1165 589 1129 q 612 1228 589 1203 q 665 1254 635 1254 q 718 1228 697 1254 q 739 1165 739 1203 q 717 1103 739 1129 q 664 1078 694 1078 z "},"Ụ":{"ha":1044,"x_min":43,"x_max":1003,"o":"m 522 -256 q 476 -235 496 -256 q 456 -182 456 -214 q 476 -130 456 -151 q 524 -108 496 -108 q 571 -130 551 -108 q 590 -182 590 -151 q 569 -235 590 -214 q 522 -256 549 -256 m 354 926 q 288 907 308 926 q 264 862 268 888 q 260 817 260 836 l 260 467 q 270 316 260 389 q 310 185 281 243 q 397 92 339 126 q 547 57 454 57 q 710 104 647 57 q 803 235 774 151 q 835 426 833 318 l 839 817 q 840 870 839 844 q 843 917 842 896 q 794 914 818 915 q 744 911 769 913 l 744 972 l 1003 972 l 1003 926 q 930 903 950 925 q 908 843 910 881 q 906 756 906 806 l 903 433 q 883 261 903 343 q 820 115 864 179 q 705 15 776 51 q 529 -22 633 -22 q 342 7 418 -22 q 222 97 267 36 q 157 251 176 158 q 138 474 138 344 l 138 756 q 140 841 138 792 q 143 917 142 890 q 93 915 118 915 q 43 913 68 914 l 43 972 l 354 972 l 354 926 z "},"Ù":{"ha":1044,"x_min":43,"x_max":1003,"o":"m 354 926 q 288 907 308 926 q 264 862 268 888 q 260 817 260 836 l 260 467 q 270 316 260 389 q 310 185 281 243 q 397 92 339 126 q 547 57 454 57 q 710 104 647 57 q 803 235 774 151 q 835 426 833 318 l 839 817 q 840 870 839 844 q 843 917 842 896 q 794 914 818 915 q 744 911 769 913 l 744 972 l 1003 972 l 1003 926 q 930 903 950 925 q 908 843 910 881 q 906 756 906 806 l 903 433 q 883 261 903 343 q 820 115 864 179 q 705 15 776 51 q 529 -22 633 -22 q 342 7 418 -22 q 222 97 267 36 q 157 251 176 158 q 138 474 138 344 l 138 756 q 140 841 138 792 q 143 917 142 890 q 93 915 118 915 q 43 913 68 914 l 43 972 l 354 972 l 354 926 m 589 1056 l 388 1179 q 349 1217 357 1199 q 344 1249 340 1235 q 351 1269 347 1264 q 366 1281 354 1274 q 398 1288 378 1289 q 444 1263 418 1286 l 619 1096 l 589 1056 z "},"Ủ":{"ha":1044,"x_min":43,"x_max":1003,"o":"m 354 926 q 288 907 308 926 q 264 862 268 888 q 260 817 260 836 l 260 467 q 270 316 260 389 q 310 185 281 243 q 397 92 339 126 q 547 57 454 57 q 710 104 647 57 q 803 235 774 151 q 835 426 833 318 l 839 817 q 840 870 839 844 q 843 917 842 896 q 794 914 818 915 q 744 911 769 913 l 744 972 l 1003 972 l 1003 926 q 930 903 950 925 q 908 843 910 881 q 906 756 906 806 l 903 433 q 883 261 903 343 q 820 115 864 179 q 705 15 776 51 q 529 -22 633 -22 q 342 7 418 -22 q 222 97 267 36 q 157 251 176 158 q 138 474 138 344 l 138 756 q 140 841 138 792 q 143 917 142 890 q 93 915 118 915 q 43 913 68 914 l 43 972 l 354 972 l 354 926 m 517 1064 q 534 1106 517 1089 q 569 1138 551 1122 q 590 1165 583 1149 q 596 1194 596 1181 q 576 1244 596 1222 q 522 1267 557 1267 q 478 1253 497 1267 q 457 1225 460 1240 q 463 1215 460 1221 q 465 1203 465 1210 q 452 1176 465 1186 q 422 1167 439 1167 q 391 1179 406 1167 q 376 1219 376 1192 q 393 1265 376 1243 q 442 1302 410 1288 q 521 1317 475 1317 q 633 1281 594 1317 q 672 1204 672 1246 q 656 1149 672 1169 q 615 1108 640 1128 q 586 1085 599 1096 q 574 1064 574 1075 l 517 1064 z "},"Ư":{"ha":1044,"x_min":43,"x_max":1078,"o":"m 354 926 q 288 907 308 926 q 264 862 268 888 q 260 817 260 836 l 260 467 q 270 316 260 389 q 310 185 281 243 q 397 92 339 126 q 547 57 454 57 q 710 104 647 57 q 803 235 774 151 q 835 426 833 318 l 839 817 q 840 870 839 844 q 843 917 842 896 q 794 914 818 915 q 744 911 769 913 l 744 972 l 906 972 l 903 433 q 883 261 903 343 q 820 115 864 179 q 705 15 776 51 q 529 -22 633 -22 q 342 7 418 -22 q 222 97 267 36 q 157 251 176 158 q 138 474 138 344 l 138 756 q 140 841 138 792 q 143 917 142 890 q 93 915 118 915 q 43 913 68 914 l 43 972 l 354 972 l 354 926 m 860 897 l 860 968 q 942 1004 913 968 q 972 1079 972 1040 l 1078 1079 q 1050 992 1078 1033 q 974 924 1022 950 q 860 897 925 897 z "},"Ứ":{"ha":1044,"x_min":43,"x_max":1078,"o":"m 354 926 q 288 907 308 926 q 264 862 268 888 q 260 817 260 836 l 260 467 q 270 316 260 389 q 310 185 281 243 q 397 92 339 126 q 547 57 454 57 q 710 104 647 57 q 803 235 774 151 q 835 426 833 318 l 839 817 q 840 870 839 844 q 843 917 842 896 q 794 914 818 915 q 744 911 769 913 l 744 972 l 906 972 l 903 433 q 883 261 903 343 q 820 115 864 179 q 705 15 776 51 q 529 -22 633 -22 q 342 7 418 -22 q 222 97 267 36 q 157 251 176 158 q 138 474 138 344 l 138 756 q 140 841 138 792 q 143 917 142 890 q 93 915 118 915 q 43 913 68 914 l 43 972 l 354 972 l 354 926 m 860 897 l 860 968 q 942 1004 913 968 q 972 1079 972 1040 l 1078 1079 q 1050 992 1078 1033 q 974 924 1022 950 q 860 897 925 897 m 465 1083 l 426 1115 l 543 1303 q 583 1338 564 1333 q 617 1338 603 1343 q 633 1329 631 1332 q 646 1311 639 1325 q 649 1277 653 1297 q 621 1231 646 1257 l 465 1083 z "},"Ự":{"ha":1044,"x_min":43,"x_max":1078,"o":"m 522 -256 q 476 -235 496 -256 q 456 -182 456 -214 q 476 -130 456 -151 q 524 -108 496 -108 q 571 -130 551 -108 q 590 -182 590 -151 q 569 -235 590 -214 q 522 -256 549 -256 m 354 926 q 288 907 308 926 q 264 862 268 888 q 260 817 260 836 l 260 467 q 270 316 260 389 q 310 185 281 243 q 397 92 339 126 q 547 57 454 57 q 710 104 647 57 q 803 235 774 151 q 835 426 833 318 l 839 817 q 840 870 839 844 q 843 917 842 896 q 794 914 818 915 q 744 911 769 913 l 744 972 l 906 972 l 903 433 q 883 261 903 343 q 820 115 864 179 q 705 15 776 51 q 529 -22 633 -22 q 342 7 418 -22 q 222 97 267 36 q 157 251 176 158 q 138 474 138 344 l 138 756 q 140 841 138 792 q 143 917 142 890 q 93 915 118 915 q 43 913 68 914 l 43 972 l 354 972 l 354 926 m 860 897 l 860 968 q 942 1004 913 968 q 972 1079 972 1040 l 1078 1079 q 1050 992 1078 1033 q 974 924 1022 950 q 860 897 925 897 z "},"Ừ":{"ha":1044,"x_min":43,"x_max":1078,"o":"m 354 926 q 288 907 308 926 q 264 862 268 888 q 260 817 260 836 l 260 467 q 270 316 260 389 q 310 185 281 243 q 397 92 339 126 q 547 57 454 57 q 710 104 647 57 q 803 235 774 151 q 835 426 833 318 l 839 817 q 840 870 839 844 q 843 917 842 896 q 794 914 818 915 q 744 911 769 913 l 744 972 l 906 972 l 903 433 q 883 261 903 343 q 820 115 864 179 q 705 15 776 51 q 529 -22 633 -22 q 342 7 418 -22 q 222 97 267 36 q 157 251 176 158 q 138 474 138 344 l 138 756 q 140 841 138 792 q 143 917 142 890 q 93 915 118 915 q 43 913 68 914 l 43 972 l 354 972 l 354 926 m 860 897 l 860 968 q 942 1004 913 968 q 972 1079 972 1040 l 1078 1079 q 1050 992 1078 1033 q 974 924 1022 950 q 860 897 925 897 m 613 1083 l 457 1231 q 428 1277 432 1257 q 432 1311 425 1297 q 444 1329 439 1325 q 462 1338 449 1332 q 494 1338 475 1343 q 535 1303 514 1333 l 651 1115 l 613 1083 z "},"Ử":{"ha":1044,"x_min":43,"x_max":1078,"o":"m 354 926 q 288 907 308 926 q 264 862 268 888 q 260 817 260 836 l 260 467 q 270 316 260 389 q 310 185 281 243 q 397 92 339 126 q 547 57 454 57 q 710 104 647 57 q 803 235 774 151 q 835 426 833 318 l 839 817 q 840 870 839 844 q 843 917 842 896 q 794 914 818 915 q 744 911 769 913 l 744 972 l 906 972 l 903 433 q 883 261 903 343 q 820 115 864 179 q 705 15 776 51 q 529 -22 633 -22 q 342 7 418 -22 q 222 97 267 36 q 157 251 176 158 q 138 474 138 344 l 138 756 q 140 841 138 792 q 143 917 142 890 q 93 915 118 915 q 43 913 68 914 l 43 972 l 354 972 l 354 926 m 860 897 l 860 968 q 942 1004 913 968 q 972 1079 972 1040 l 1078 1079 q 1050 992 1078 1033 q 974 924 1022 950 q 860 897 925 897 m 517 1064 q 534 1106 517 1089 q 569 1138 551 1122 q 590 1165 583 1149 q 596 1194 596 1181 q 576 1244 596 1222 q 522 1267 557 1267 q 478 1253 497 1267 q 457 1225 460 1240 q 463 1215 460 1221 q 465 1203 465 1210 q 452 1176 465 1186 q 422 1167 439 1167 q 391 1179 406 1167 q 376 1219 376 1192 q 393 1265 376 1243 q 442 1302 410 1288 q 521 1317 475 1317 q 633 1281 594 1317 q 672 1204 672 1246 q 656 1149 672 1169 q 615 1108 640 1128 q 586 1085 599 1096 q 574 1064 574 1075 l 517 1064 z "},"Ữ":{"ha":1044,"x_min":43,"x_max":1078,"o":"m 354 926 q 288 907 308 926 q 264 862 268 888 q 260 817 260 836 l 260 467 q 270 316 260 389 q 310 185 281 243 q 397 92 339 126 q 547 57 454 57 q 710 104 647 57 q 803 235 774 151 q 835 426 833 318 l 839 817 q 840 870 839 844 q 843 917 842 896 q 794 914 818 915 q 744 911 769 913 l 744 972 l 906 972 l 903 433 q 883 261 903 343 q 820 115 864 179 q 705 15 776 51 q 529 -22 633 -22 q 342 7 418 -22 q 222 97 267 36 q 157 251 176 158 q 138 474 138 344 l 138 756 q 140 841 138 792 q 143 917 142 890 q 93 915 118 915 q 43 913 68 914 l 43 972 l 354 972 l 354 926 m 860 897 l 860 968 q 942 1004 913 968 q 972 1079 972 1040 l 1078 1079 q 1050 992 1078 1033 q 974 924 1022 950 q 860 897 925 897 m 772 1260 q 708 1160 750 1192 q 631 1128 667 1128 q 556 1147 588 1128 q 500 1184 525 1165 q 449 1203 475 1203 q 395 1190 424 1203 q 347 1144 367 1176 l 306 1168 q 366 1251 324 1217 q 447 1288 408 1286 q 521 1270 492 1289 q 575 1233 550 1251 q 631 1214 600 1214 q 688 1232 661 1214 q 732 1281 715 1250 l 772 1260 z "},"Ű":{"ha":1044,"x_min":43,"x_max":1003,"o":"m 354 926 q 288 907 308 926 q 264 862 268 888 q 260 817 260 836 l 260 467 q 270 316 260 389 q 310 185 281 243 q 397 92 339 126 q 547 57 454 57 q 710 104 647 57 q 803 235 774 151 q 835 426 833 318 l 839 817 q 840 870 839 844 q 843 917 842 896 q 794 914 818 915 q 744 911 769 913 l 744 972 l 1003 972 l 1003 926 q 930 903 950 925 q 908 843 910 881 q 906 756 906 806 l 903 433 q 883 261 903 343 q 820 115 864 179 q 705 15 776 51 q 529 -22 633 -22 q 342 7 418 -22 q 222 97 267 36 q 157 251 176 158 q 138 474 138 344 l 138 756 q 140 841 138 792 q 143 917 142 890 q 93 915 118 915 q 43 913 68 914 l 43 972 l 354 972 l 354 926 m 615 1072 l 596 1108 l 749 1250 q 792 1267 768 1268 q 831 1240 817 1265 q 838 1209 839 1225 q 828 1181 836 1193 q 806 1161 819 1168 l 615 1072 m 464 1072 l 428 1099 l 513 1247 q 553 1283 529 1275 q 599 1271 578 1290 q 613 1247 610 1261 q 613 1217 617 1232 q 592 1188 608 1201 l 464 1072 z "},"Ū":{"ha":1044,"x_min":43,"x_max":1003,"o":"m 354 926 q 288 907 308 926 q 264 862 268 888 q 260 817 260 836 l 260 467 q 270 316 260 389 q 310 185 281 243 q 397 92 339 126 q 547 57 454 57 q 710 104 647 57 q 803 235 774 151 q 835 426 833 318 l 839 817 q 840 870 839 844 q 843 917 842 896 q 794 914 818 915 q 744 911 769 913 l 744 972 l 1003 972 l 1003 926 q 930 903 950 925 q 908 843 910 881 q 906 756 906 806 l 903 433 q 883 261 903 343 q 820 115 864 179 q 705 15 776 51 q 529 -22 633 -22 q 342 7 418 -22 q 222 97 267 36 q 157 251 176 158 q 138 474 138 344 l 138 756 q 140 841 138 792 q 143 917 142 890 q 93 915 118 915 q 43 913 68 914 l 43 972 l 354 972 l 354 926 m 354 1167 l 354 1250 l 722 1250 l 722 1172 l 354 1167 z "},"Ų":{"ha":1044,"x_min":43,"x_max":1003,"o":"m 354 926 q 288 907 308 926 q 264 862 268 888 q 260 817 260 836 l 260 467 q 270 316 260 389 q 310 185 281 243 q 397 92 339 126 q 547 57 454 57 q 710 104 647 57 q 803 235 774 151 q 835 426 833 318 l 839 817 q 840 870 839 844 q 843 917 842 896 q 794 914 818 915 q 744 911 769 913 l 744 972 l 1003 972 l 1003 926 q 930 903 950 925 q 908 843 910 881 q 906 756 906 806 l 903 433 q 883 261 903 343 q 820 115 864 179 q 705 15 776 51 q 529 -22 633 -22 q 342 7 418 -22 q 222 97 267 36 q 157 251 176 158 q 138 474 138 344 l 138 756 q 140 841 138 792 q 143 917 142 890 q 93 915 118 915 q 43 913 68 914 l 43 972 l 354 972 l 354 926 m 543 -353 q 436 -313 476 -353 q 396 -211 396 -274 q 440 -101 396 -151 q 553 -15 485 -51 q 692 43 621 22 l 692 7 q 601 -37 643 -10 q 533 -101 558 -64 q 508 -183 508 -137 q 534 -253 508 -226 q 594 -279 560 -279 q 642 -268 619 -279 q 685 -240 665 -257 l 708 -265 q 638 -326 682 -299 q 543 -353 593 -353 z "},"Ů":{"ha":1044,"x_min":43,"x_max":1003,"o":"m 354 926 q 288 907 308 926 q 264 862 268 888 q 260 817 260 836 l 260 467 q 270 316 260 389 q 310 185 281 243 q 397 92 339 126 q 547 57 454 57 q 710 104 647 57 q 803 235 774 151 q 835 426 833 318 l 839 817 q 840 870 839 844 q 843 917 842 896 q 794 914 818 915 q 744 911 769 913 l 744 972 l 1003 972 l 1003 926 q 930 903 950 925 q 908 843 910 881 q 906 756 906 806 l 903 433 q 883 261 903 343 q 820 115 864 179 q 705 15 776 51 q 529 -22 633 -22 q 342 7 418 -22 q 222 97 267 36 q 157 251 176 158 q 138 474 138 344 l 138 756 q 140 841 138 792 q 143 917 142 890 q 93 915 118 915 q 43 913 68 914 l 43 972 l 354 972 l 354 926 m 540 1069 q 476 1083 507 1069 q 424 1124 444 1096 q 403 1196 404 1153 q 421 1269 401 1238 q 472 1317 440 1300 q 538 1335 504 1335 q 601 1322 571 1335 q 653 1281 632 1308 q 675 1210 674 1253 q 656 1135 676 1167 q 605 1087 636 1104 q 540 1069 574 1069 m 544 1113 q 585 1136 569 1114 q 601 1194 601 1158 q 585 1266 601 1239 q 538 1292 568 1293 q 494 1267 511 1290 q 476 1208 476 1244 q 494 1140 476 1168 q 544 1113 513 1111 z "},"Ũ":{"ha":1044,"x_min":43,"x_max":1003,"o":"m 354 926 q 288 907 308 926 q 264 862 268 888 q 260 817 260 836 l 260 467 q 270 316 260 389 q 310 185 281 243 q 397 92 339 126 q 547 57 454 57 q 710 104 647 57 q 803 235 774 151 q 835 426 833 318 l 839 817 q 840 870 839 844 q 843 917 842 896 q 794 914 818 915 q 744 911 769 913 l 744 972 l 1003 972 l 1003 926 q 930 903 950 925 q 908 843 910 881 q 906 756 906 806 l 903 433 q 883 261 903 343 q 820 115 864 179 q 705 15 776 51 q 529 -22 633 -22 q 342 7 418 -22 q 222 97 267 36 q 157 251 176 158 q 138 474 138 344 l 138 756 q 140 841 138 792 q 143 917 142 890 q 93 915 118 915 q 43 913 68 914 l 43 972 l 354 972 l 354 926 m 772 1260 q 708 1160 750 1192 q 631 1128 667 1128 q 556 1147 588 1128 q 500 1184 525 1165 q 449 1203 475 1203 q 395 1190 424 1203 q 347 1144 367 1176 l 306 1168 q 366 1251 324 1217 q 447 1288 408 1286 q 521 1270 492 1289 q 575 1233 550 1251 q 631 1214 600 1214 q 688 1232 661 1214 q 732 1281 715 1250 l 772 1260 z "},"V":{"ha":907,"x_min":-6,"x_max":932,"o":"m 447 -14 l 132 725 q 89 840 101 796 q 72 914 76 883 q 33 913 53 913 q -6 911 14 913 l -6 972 l 317 972 l 315 925 q 232 883 246 921 q 246 775 218 844 q 310 617 279 693 q 378 451 340 540 q 442 302 411 374 q 490 183 474 231 l 493 183 q 524 276 508 232 q 563 382 540 321 q 633 579 604 499 q 682 717 661 660 q 717 814 703 774 q 739 875 729 850 q 757 917 749 900 q 704 914 731 915 q 650 911 678 913 l 650 972 l 932 972 l 932 926 q 838 894 871 924 q 779 790 806 865 q 772 772 776 783 q 758 733 768 760 q 731 656 749 707 q 681 519 713 606 q 602 303 650 433 q 486 -14 554 172 l 447 -14 z "},"W":{"ha":1382,"x_min":10,"x_max":1403,"o":"m 394 -14 l 146 725 q 108 841 122 799 q 88 914 94 883 q 49 913 68 913 q 10 911 29 913 l 10 972 l 347 972 l 347 926 q 251 890 267 922 q 257 775 235 858 q 308 610 281 683 q 363 451 336 536 q 402 336 382 389 q 443 218 422 283 l 446 218 q 460 268 453 242 q 476 319 468 294 q 492 366 485 344 q 503 401 499 388 q 580 641 542 525 q 647 845 618 757 q 688 975 676 933 l 732 975 q 768 858 744 929 q 818 710 792 788 q 867 563 844 632 q 904 451 890 493 q 945 328 924 389 q 985 201 967 267 l 989 201 q 1016 288 1001 242 q 1046 381 1031 333 q 1105 553 1082 483 q 1142 668 1128 622 q 1167 748 1157 714 q 1189 814 1178 782 q 1208 865 1197 838 q 1232 915 1218 892 q 1176 913 1204 914 q 1121 911 1149 913 l 1121 972 l 1403 972 l 1403 926 q 1328 906 1356 921 q 1281 849 1301 890 q 1231 721 1260 807 q 1106 349 1167 532 q 981 -14 1046 167 l 939 -14 l 728 589 q 703 660 715 625 q 679 729 692 694 q 656 660 668 694 q 633 590 644 625 l 435 -14 l 394 -14 z "},"X":{"ha":901,"x_min":13,"x_max":911,"o":"m 17 0 l 17 46 q 122 102 83 60 q 207 213 160 144 l 388 471 q 238 681 292 606 q 153 800 183 757 q 113 864 126 840 q 89 914 100 888 q 51 913 71 913 q 13 911 32 913 l 13 972 l 372 972 l 372 926 l 311 924 q 251 905 261 922 q 252 863 240 888 q 279 811 264 838 q 351 703 304 769 q 451 563 397 638 l 585 756 q 653 851 621 806 q 708 917 686 897 q 650 914 679 915 q 592 911 621 913 l 592 972 l 865 972 l 865 926 q 782 890 821 921 q 710 817 743 860 q 647 733 676 775 l 490 511 q 588 381 540 444 q 675 267 636 318 q 735 188 714 217 q 783 123 758 156 q 831 58 807 90 q 871 60 850 60 q 911 61 892 60 l 911 0 l 571 0 l 571 46 q 642 60 625 44 q 652 101 658 76 q 629 147 646 125 q 543 259 597 190 q 425 417 489 328 q 356 316 390 367 q 288 213 322 265 q 235 135 263 175 q 174 54 208 94 q 231 58 203 57 q 289 61 260 60 l 289 0 l 17 0 z "},"Y":{"ha":881,"x_min":-8,"x_max":894,"o":"m 299 0 l 299 46 q 370 71 351 49 q 391 131 389 93 q 393 217 393 169 l 394 375 l 153 757 q 101 850 118 813 q 78 914 83 888 q 35 913 56 913 q -8 911 14 913 l -8 972 l 350 972 l 350 926 q 261 907 286 926 q 242 853 236 888 q 276 775 249 819 l 388 600 q 414 560 400 581 q 442 517 428 539 q 474 472 457 496 l 476 472 q 507 531 492 503 q 536 586 522 560 l 654 810 q 672 842 661 824 q 694 881 682 861 q 721 915 707 901 q 667 913 694 914 q 611 911 639 913 l 611 972 l 894 972 l 894 926 q 783 879 826 922 q 690 747 739 836 q 599 576 643 658 q 515 417 556 494 q 515 350 515 392 q 514 266 514 308 q 514 194 514 224 q 514 165 514 165 q 513 101 514 128 q 510 56 513 74 q 567 58 539 57 q 625 61 596 60 l 625 0 l 299 0 z "},"Ý":{"ha":881,"x_min":-8,"x_max":894,"o":"m 411 1056 l 381 1096 l 556 1263 q 603 1288 583 1286 q 635 1281 624 1289 q 649 1269 647 1274 q 656 1249 653 1264 q 652 1217 660 1235 q 613 1179 644 1199 l 411 1056 m 299 0 l 299 46 q 370 71 351 49 q 391 131 389 93 q 393 217 393 169 l 394 375 l 153 757 q 101 850 118 813 q 78 914 83 888 q 35 913 56 913 q -8 911 14 913 l -8 972 l 350 972 l 350 926 q 261 907 286 926 q 242 853 236 888 q 276 775 249 819 l 388 600 q 414 560 400 581 q 442 517 428 539 q 474 472 457 496 l 476 472 q 507 531 492 503 q 536 586 522 560 l 654 810 q 672 842 661 824 q 694 881 682 861 q 721 915 707 901 q 667 913 694 914 q 611 911 639 913 l 611 972 l 894 972 l 894 926 q 783 879 826 922 q 690 747 739 836 q 599 576 643 658 q 515 417 556 494 q 515 350 515 392 q 514 266 514 308 q 514 194 514 224 q 514 165 514 165 q 513 101 514 128 q 510 56 513 74 q 567 58 539 57 q 625 61 596 60 l 625 0 l 299 0 z "},"Ÿ":{"ha":881,"x_min":-8,"x_max":894,"o":"m 299 0 l 299 46 q 370 71 351 49 q 391 131 389 93 q 393 217 393 169 l 394 375 l 153 757 q 101 850 118 813 q 78 914 83 888 q 35 913 56 913 q -8 911 14 913 l -8 972 l 350 972 l 350 926 q 261 907 286 926 q 242 853 236 888 q 276 775 249 819 l 388 600 q 414 560 400 581 q 442 517 428 539 q 474 472 457 496 l 476 472 q 507 531 492 503 q 536 586 522 560 l 654 810 q 672 842 661 824 q 694 881 682 861 q 721 915 707 901 q 667 913 694 914 q 611 911 639 913 l 611 972 l 894 972 l 894 926 q 783 879 826 922 q 690 747 739 836 q 599 576 643 658 q 515 417 556 494 q 515 350 515 392 q 514 266 514 308 q 514 194 514 224 q 514 165 514 165 q 513 101 514 128 q 510 56 513 74 q 567 58 539 57 q 625 61 596 60 l 625 0 l 299 0 m 335 1078 q 282 1103 304 1078 q 260 1165 260 1129 q 283 1228 260 1203 q 336 1254 306 1254 q 390 1228 368 1254 q 411 1165 411 1203 q 388 1103 411 1129 q 335 1078 365 1078 m 585 1078 q 532 1103 554 1078 q 510 1165 510 1129 q 533 1228 510 1203 q 586 1254 556 1254 q 639 1228 618 1254 q 660 1165 660 1203 q 638 1103 660 1129 q 585 1078 615 1078 z "},"Ỵ":{"ha":881,"x_min":-8,"x_max":894,"o":"m 440 -256 q 394 -235 414 -256 q 374 -182 374 -214 q 394 -130 374 -151 q 442 -108 414 -108 q 489 -130 469 -108 q 508 -182 508 -151 q 488 -235 508 -214 q 440 -256 467 -256 m 299 0 l 299 46 q 370 71 351 49 q 391 131 389 93 q 393 217 393 169 l 394 375 l 153 757 q 101 850 118 813 q 78 914 83 888 q 35 913 56 913 q -8 911 14 913 l -8 972 l 350 972 l 350 926 q 261 907 286 926 q 242 853 236 888 q 276 775 249 819 l 388 600 q 414 560 400 581 q 442 517 428 539 q 474 472 457 496 l 476 472 q 507 531 492 503 q 536 586 522 560 l 654 810 q 672 842 661 824 q 694 881 682 861 q 721 915 707 901 q 667 913 694 914 q 611 911 639 913 l 611 972 l 894 972 l 894 926 q 783 879 826 922 q 690 747 739 836 q 599 576 643 658 q 515 417 556 494 q 515 350 515 392 q 514 266 514 308 q 514 194 514 224 q 514 165 514 165 q 513 101 514 128 q 510 56 513 74 q 567 58 539 57 q 625 61 596 60 l 625 0 l 299 0 z "},"Ỳ":{"ha":881,"x_min":-8,"x_max":894,"o":"m 299 0 l 299 46 q 370 71 351 49 q 391 131 389 93 q 393 217 393 169 l 394 375 l 153 757 q 101 850 118 813 q 78 914 83 888 q 35 913 56 913 q -8 911 14 913 l -8 972 l 350 972 l 350 926 q 261 907 286 926 q 242 853 236 888 q 276 775 249 819 l 388 600 q 414 560 400 581 q 442 517 428 539 q 474 472 457 496 l 476 472 q 507 531 492 503 q 536 586 522 560 l 654 810 q 672 842 661 824 q 694 881 682 861 q 721 915 707 901 q 667 913 694 914 q 611 911 639 913 l 611 972 l 894 972 l 894 926 q 783 879 826 922 q 690 747 739 836 q 599 576 643 658 q 515 417 556 494 q 515 350 515 392 q 514 266 514 308 q 514 194 514 224 q 514 165 514 165 q 513 101 514 128 q 510 56 513 74 q 567 58 539 57 q 625 61 596 60 l 625 0 l 299 0 m 533 1083 l 378 1231 q 349 1277 353 1257 q 353 1311 346 1297 q 365 1329 360 1325 q 383 1338 369 1332 q 415 1338 396 1343 q 456 1303 435 1333 l 572 1115 l 533 1083 z "},"Ỷ":{"ha":881,"x_min":-8,"x_max":894,"o":"m 299 0 l 299 46 q 370 71 351 49 q 391 131 389 93 q 393 217 393 169 l 394 375 l 153 757 q 101 850 118 813 q 78 914 83 888 q 35 913 56 913 q -8 911 14 913 l -8 972 l 350 972 l 350 926 q 261 907 286 926 q 242 853 236 888 q 276 775 249 819 l 388 600 q 414 560 400 581 q 442 517 428 539 q 474 472 457 496 l 476 472 q 507 531 492 503 q 536 586 522 560 l 654 810 q 672 842 661 824 q 694 881 682 861 q 721 915 707 901 q 667 913 694 914 q 611 911 639 913 l 611 972 l 894 972 l 894 926 q 783 879 826 922 q 690 747 739 836 q 599 576 643 658 q 515 417 556 494 q 515 350 515 392 q 514 266 514 308 q 514 194 514 224 q 514 165 514 165 q 513 101 514 128 q 510 56 513 74 q 567 58 539 57 q 625 61 596 60 l 625 0 l 299 0 m 438 1064 q 455 1106 438 1089 q 490 1138 472 1122 q 510 1165 504 1149 q 517 1194 517 1181 q 497 1244 517 1222 q 443 1267 478 1267 q 399 1253 418 1267 q 378 1225 381 1240 q 383 1215 381 1221 q 386 1203 386 1210 q 373 1176 386 1186 q 343 1167 360 1167 q 312 1179 326 1167 q 297 1219 297 1192 q 314 1265 297 1243 q 363 1302 331 1288 q 442 1317 396 1317 q 554 1281 515 1317 q 593 1204 593 1246 q 577 1149 593 1169 q 536 1108 561 1128 q 507 1085 519 1096 q 494 1064 494 1075 l 438 1064 z "},"Ỹ":{"ha":881,"x_min":-8,"x_max":894,"o":"m 299 0 l 299 46 q 370 71 351 49 q 391 131 389 93 q 393 217 393 169 l 394 375 l 153 757 q 101 850 118 813 q 78 914 83 888 q 35 913 56 913 q -8 911 14 913 l -8 972 l 350 972 l 350 926 q 261 907 286 926 q 242 853 236 888 q 276 775 249 819 l 388 600 q 414 560 400 581 q 442 517 428 539 q 474 472 457 496 l 476 472 q 507 531 492 503 q 536 586 522 560 l 654 810 q 672 842 661 824 q 694 881 682 861 q 721 915 707 901 q 667 913 694 914 q 611 911 639 913 l 611 972 l 894 972 l 894 926 q 783 879 826 922 q 690 747 739 836 q 599 576 643 658 q 515 417 556 494 q 515 350 515 392 q 514 266 514 308 q 514 194 514 224 q 514 165 514 165 q 513 101 514 128 q 510 56 513 74 q 567 58 539 57 q 625 61 596 60 l 625 0 l 299 0 m 693 1260 q 629 1160 671 1192 q 551 1128 588 1128 q 477 1147 508 1128 q 421 1184 446 1165 q 369 1203 396 1203 q 316 1190 344 1203 q 268 1144 288 1176 l 226 1168 q 287 1251 244 1217 q 368 1288 329 1286 q 442 1270 413 1289 q 496 1233 471 1251 q 551 1214 521 1214 q 609 1232 582 1214 q 653 1281 636 1250 l 693 1260 z "},"Z":{"ha":847,"x_min":60,"x_max":781,"o":"m 60 0 l 60 64 q 259 348 138 174 q 553 796 381 522 q 594 859 572 828 q 642 921 615 890 l 288 915 q 165 858 206 913 q 124 685 124 804 l 76 685 l 85 972 l 774 972 l 774 924 l 275 167 q 224 97 244 122 q 181 51 203 71 l 518 57 q 672 113 610 58 q 733 285 733 168 l 781 285 l 772 0 l 60 0 z "},"Ź":{"ha":847,"x_min":60,"x_max":781,"o":"m 375 1056 l 344 1096 l 519 1263 q 567 1288 547 1286 q 599 1281 588 1289 q 613 1269 611 1274 q 620 1249 617 1264 q 616 1217 624 1235 q 576 1179 608 1199 l 375 1056 m 60 0 l 60 64 q 259 348 138 174 q 553 796 381 522 q 594 859 572 828 q 642 921 615 890 l 288 915 q 165 858 206 913 q 124 685 124 804 l 76 685 l 85 972 l 774 972 l 774 924 l 275 167 q 224 97 244 122 q 181 51 203 71 l 518 57 q 672 113 610 58 q 733 285 733 168 l 781 285 l 772 0 l 60 0 z "},"Ž":{"ha":847,"x_min":60,"x_max":781,"o":"m 60 0 l 60 64 q 259 348 138 174 q 553 796 381 522 q 594 859 572 828 q 642 921 615 890 l 288 915 q 165 858 206 913 q 124 685 124 804 l 76 685 l 85 972 l 774 972 l 774 924 l 275 167 q 224 97 244 122 q 181 51 203 71 l 518 57 q 672 113 610 58 q 733 285 733 168 l 781 285 l 772 0 l 60 0 m 415 1083 l 160 1279 l 190 1326 l 424 1204 l 660 1329 l 688 1285 l 418 1083 l 415 1083 z "},"Ż":{"ha":847,"x_min":60,"x_max":781,"o":"m 60 0 l 60 64 q 259 348 138 174 q 553 796 381 522 q 594 859 572 828 q 642 921 615 890 l 288 915 q 165 858 206 913 q 124 685 124 804 l 76 685 l 85 972 l 774 972 l 774 924 l 275 167 q 224 97 244 122 q 181 51 203 71 l 518 57 q 672 113 610 58 q 733 285 733 168 l 781 285 l 772 0 l 60 0 m 424 1124 q 372 1147 394 1124 q 350 1206 350 1171 q 373 1265 350 1240 q 425 1289 396 1289 q 478 1265 457 1289 q 500 1206 500 1240 q 477 1147 500 1171 q 424 1124 454 1124 z "},"a":{"ha":717,"x_min":47,"x_max":682,"o":"m 483 0 q 478 42 479 24 q 474 79 476 60 q 372 5 426 32 q 256 -22 317 -22 q 99 26 150 -22 q 47 143 47 74 q 87 253 47 207 q 190 330 126 300 q 327 374 253 360 q 471 388 401 389 l 471 474 q 463 565 471 522 q 426 636 454 608 q 338 665 399 664 q 255 650 297 667 q 193 593 213 633 q 208 567 204 582 q 211 540 211 553 q 197 502 211 524 q 149 482 183 481 q 104 502 119 482 q 89 550 89 522 q 124 635 89 597 q 222 694 160 672 q 364 717 285 717 q 536 655 481 717 q 590 460 592 593 q 590 356 590 408 q 590 252 590 304 q 589 147 589 200 q 588 103 589 125 q 583 53 586 81 q 633 56 608 54 q 682 58 657 57 l 682 0 l 483 0 m 471 340 q 372 328 424 339 q 276 297 319 318 q 205 242 232 276 q 179 160 178 208 q 213 83 182 108 q 288 57 244 57 q 387 78 344 57 q 471 139 429 100 q 469 172 469 154 q 469 210 469 190 q 470 254 469 217 q 471 340 471 292 z "},"á":{"ha":717,"x_min":47,"x_max":682,"o":"m 483 0 q 478 42 479 24 q 474 79 476 60 q 372 5 426 32 q 256 -22 317 -22 q 99 26 150 -22 q 47 143 47 74 q 87 253 47 207 q 190 330 126 300 q 327 374 253 360 q 471 388 401 389 l 471 474 q 463 565 471 522 q 426 636 454 608 q 338 665 399 664 q 255 650 297 667 q 193 593 213 633 q 208 567 204 582 q 211 540 211 553 q 197 502 211 524 q 149 482 183 481 q 104 502 119 482 q 89 550 89 522 q 124 635 89 597 q 222 694 160 672 q 364 717 285 717 q 536 655 481 717 q 590 460 592 593 q 590 356 590 408 q 590 252 590 304 q 589 147 589 200 q 588 103 589 125 q 583 53 586 81 q 633 56 608 54 q 682 58 657 57 l 682 0 l 483 0 m 471 340 q 372 328 424 339 q 276 297 319 318 q 205 242 232 276 q 179 160 178 208 q 213 83 182 108 q 288 57 244 57 q 387 78 344 57 q 471 139 429 100 q 469 172 469 154 q 469 210 469 190 q 470 254 469 217 q 471 340 471 292 m 275 851 l 236 883 l 353 1071 q 393 1106 374 1101 q 426 1106 413 1111 q 443 1097 440 1100 q 456 1079 449 1093 q 459 1045 463 1065 q 431 999 456 1025 l 275 851 z "},"ă":{"ha":717,"x_min":47,"x_max":682,"o":"m 483 0 q 478 42 479 24 q 474 79 476 60 q 372 5 426 32 q 256 -22 317 -22 q 99 26 150 -22 q 47 143 47 74 q 87 253 47 207 q 190 330 126 300 q 327 374 253 360 q 471 388 401 389 l 471 474 q 463 565 471 522 q 426 636 454 608 q 338 665 399 664 q 255 650 297 667 q 193 593 213 633 q 208 567 204 582 q 211 540 211 553 q 197 502 211 524 q 149 482 183 481 q 104 502 119 482 q 89 550 89 522 q 124 635 89 597 q 222 694 160 672 q 364 717 285 717 q 536 655 481 717 q 590 460 592 593 q 590 356 590 408 q 590 252 590 304 q 589 147 589 200 q 588 103 589 125 q 583 53 586 81 q 633 56 608 54 q 682 58 657 57 l 682 0 l 483 0 m 471 340 q 372 328 424 339 q 276 297 319 318 q 205 242 232 276 q 179 160 178 208 q 213 83 182 108 q 288 57 244 57 q 387 78 344 57 q 471 139 429 100 q 469 172 469 154 q 469 210 469 190 q 470 254 469 217 q 471 340 471 292 m 346 885 q 273 902 310 885 q 206 956 236 919 q 158 1046 176 992 l 199 1067 q 261 999 219 1028 q 350 969 303 969 q 440 1000 399 969 q 500 1069 481 1031 l 538 1053 q 459 927 507 969 q 346 885 411 885 z "},"ắ":{"ha":717,"x_min":47,"x_max":682,"o":"m 483 0 q 478 42 479 24 q 474 79 476 60 q 372 5 426 32 q 256 -22 317 -22 q 99 26 150 -22 q 47 143 47 74 q 87 253 47 207 q 190 330 126 300 q 327 374 253 360 q 471 388 401 389 l 471 474 q 463 565 471 522 q 426 636 454 608 q 338 665 399 664 q 255 650 297 667 q 193 593 213 633 q 208 567 204 582 q 211 540 211 553 q 197 502 211 524 q 149 482 183 481 q 104 502 119 482 q 89 550 89 522 q 124 635 89 597 q 222 694 160 672 q 364 717 285 717 q 536 655 481 717 q 590 460 592 593 q 590 356 590 408 q 590 252 590 304 q 589 147 589 200 q 588 103 589 125 q 583 53 586 81 q 633 56 608 54 q 682 58 657 57 l 682 0 l 483 0 m 471 340 q 372 328 424 339 q 276 297 319 318 q 205 242 232 276 q 179 160 178 208 q 213 83 182 108 q 288 57 244 57 q 387 78 344 57 q 471 139 429 100 q 469 172 469 154 q 469 210 469 190 q 470 254 469 217 q 471 340 471 292 m 343 788 q 270 805 307 788 q 203 858 233 822 q 156 949 174 894 l 196 969 q 258 901 217 931 q 347 872 300 872 q 437 903 396 872 q 497 972 478 933 l 535 956 q 456 830 504 872 q 343 788 408 788 m 356 951 l 317 983 l 433 1171 q 474 1206 454 1201 q 507 1206 493 1211 q 524 1197 521 1200 q 536 1179 529 1193 q 540 1145 543 1165 q 511 1099 536 1125 l 356 951 z "},"ặ":{"ha":717,"x_min":47,"x_max":682,"o":"m 358 -256 q 312 -235 332 -256 q 292 -182 292 -214 q 312 -130 292 -151 q 360 -108 332 -108 q 407 -130 388 -108 q 426 -182 426 -151 q 406 -235 426 -214 q 358 -256 385 -256 m 483 0 q 478 42 479 24 q 474 79 476 60 q 372 5 426 32 q 256 -22 317 -22 q 99 26 150 -22 q 47 143 47 74 q 87 253 47 207 q 190 330 126 300 q 327 374 253 360 q 471 388 401 389 l 471 474 q 463 565 471 522 q 426 636 454 608 q 338 665 399 664 q 255 650 297 667 q 193 593 213 633 q 208 567 204 582 q 211 540 211 553 q 197 502 211 524 q 149 482 183 481 q 104 502 119 482 q 89 550 89 522 q 124 635 89 597 q 222 694 160 672 q 364 717 285 717 q 536 655 481 717 q 590 460 592 593 q 590 356 590 408 q 590 252 590 304 q 589 147 589 200 q 588 103 589 125 q 583 53 586 81 q 633 56 608 54 q 682 58 657 57 l 682 0 l 483 0 m 471 340 q 372 328 424 339 q 276 297 319 318 q 205 242 232 276 q 179 160 178 208 q 213 83 182 108 q 288 57 244 57 q 387 78 344 57 q 471 139 429 100 q 469 172 469 154 q 469 210 469 190 q 470 254 469 217 q 471 340 471 292 m 346 790 q 273 808 310 790 q 206 861 236 825 q 158 951 176 897 l 199 972 q 261 904 219 933 q 350 875 303 875 q 440 906 399 875 q 500 975 481 936 l 538 958 q 459 833 507 875 q 346 790 411 790 z "},"ằ":{"ha":717,"x_min":47,"x_max":682,"o":"m 483 0 q 478 42 479 24 q 474 79 476 60 q 372 5 426 32 q 256 -22 317 -22 q 99 26 150 -22 q 47 143 47 74 q 87 253 47 207 q 190 330 126 300 q 327 374 253 360 q 471 388 401 389 l 471 474 q 463 565 471 522 q 426 636 454 608 q 338 665 399 664 q 255 650 297 667 q 193 593 213 633 q 208 567 204 582 q 211 540 211 553 q 197 502 211 524 q 149 482 183 481 q 104 502 119 482 q 89 550 89 522 q 124 635 89 597 q 222 694 160 672 q 364 717 285 717 q 536 655 481 717 q 590 460 592 593 q 590 356 590 408 q 590 252 590 304 q 589 147 589 200 q 588 103 589 125 q 583 53 586 81 q 633 56 608 54 q 682 58 657 57 l 682 0 l 483 0 m 471 340 q 372 328 424 339 q 276 297 319 318 q 205 242 232 276 q 179 160 178 208 q 213 83 182 108 q 288 57 244 57 q 387 78 344 57 q 471 139 429 100 q 469 172 469 154 q 469 210 469 190 q 470 254 469 217 q 471 340 471 292 m 347 933 l 192 1081 q 163 1127 167 1107 q 167 1161 160 1147 q 179 1179 174 1175 q 197 1188 183 1182 q 229 1188 210 1193 q 269 1153 249 1183 l 386 965 l 347 933 m 346 786 q 273 803 310 786 q 206 857 236 821 q 158 947 176 893 l 199 968 q 261 900 219 929 q 350 871 303 871 q 440 901 399 871 q 500 971 481 932 l 538 954 q 459 828 507 871 q 346 786 411 786 z "},"ẳ":{"ha":717,"x_min":47,"x_max":682,"o":"m 483 0 q 478 42 479 24 q 474 79 476 60 q 372 5 426 32 q 256 -22 317 -22 q 99 26 150 -22 q 47 143 47 74 q 87 253 47 207 q 190 330 126 300 q 327 374 253 360 q 471 388 401 389 l 471 474 q 463 565 471 522 q 426 636 454 608 q 338 665 399 664 q 255 650 297 667 q 193 593 213 633 q 208 567 204 582 q 211 540 211 553 q 197 502 211 524 q 149 482 183 481 q 104 502 119 482 q 89 550 89 522 q 124 635 89 597 q 222 694 160 672 q 364 717 285 717 q 536 655 481 717 q 590 460 592 593 q 590 356 590 408 q 590 252 590 304 q 589 147 589 200 q 588 103 589 125 q 583 53 586 81 q 633 56 608 54 q 682 58 657 57 l 682 0 l 483 0 m 471 340 q 372 328 424 339 q 276 297 319 318 q 205 242 232 276 q 179 160 178 208 q 213 83 182 108 q 288 57 244 57 q 387 78 344 57 q 471 139 429 100 q 469 172 469 154 q 469 210 469 190 q 470 254 469 217 q 471 340 471 292 m 350 790 q 277 808 314 790 q 210 861 240 825 q 163 951 181 897 l 203 972 q 265 904 224 933 q 354 875 307 875 q 444 906 403 875 q 504 975 485 936 l 542 958 q 463 833 511 875 q 350 790 415 790 m 325 988 q 342 1029 325 1013 q 378 1061 360 1046 q 398 1088 392 1072 q 404 1118 404 1104 q 385 1168 404 1146 q 331 1190 365 1190 q 287 1177 306 1190 q 265 1149 268 1164 q 271 1139 268 1144 q 274 1126 274 1133 q 260 1100 274 1110 q 231 1090 247 1090 q 199 1103 214 1090 q 185 1143 185 1115 q 201 1189 185 1167 q 251 1226 218 1211 q 329 1240 283 1240 q 442 1205 403 1240 q 481 1128 481 1169 q 465 1072 481 1093 q 424 1032 449 1051 q 394 1009 407 1019 q 382 988 382 999 l 325 988 z "},"ẵ":{"ha":717,"x_min":47,"x_max":682,"o":"m 483 0 q 478 42 479 24 q 474 79 476 60 q 372 5 426 32 q 256 -22 317 -22 q 99 26 150 -22 q 47 143 47 74 q 87 253 47 207 q 190 330 126 300 q 327 374 253 360 q 471 388 401 389 l 471 474 q 463 565 471 522 q 426 636 454 608 q 338 665 399 664 q 255 650 297 667 q 193 593 213 633 q 208 567 204 582 q 211 540 211 553 q 197 502 211 524 q 149 482 183 481 q 104 502 119 482 q 89 550 89 522 q 124 635 89 597 q 222 694 160 672 q 364 717 285 717 q 536 655 481 717 q 590 460 592 593 q 590 356 590 408 q 590 252 590 304 q 589 147 589 200 q 588 103 589 125 q 583 53 586 81 q 633 56 608 54 q 682 58 657 57 l 682 0 l 483 0 m 471 340 q 372 328 424 339 q 276 297 319 318 q 205 242 232 276 q 179 160 178 208 q 213 83 182 108 q 288 57 244 57 q 387 78 344 57 q 471 139 429 100 q 469 172 469 154 q 469 210 469 190 q 470 254 469 217 q 471 340 471 292 m 336 783 q 263 801 300 783 q 197 854 226 818 q 149 944 167 890 l 189 965 q 251 897 210 926 q 340 868 293 868 q 430 899 389 868 q 490 968 471 929 l 528 951 q 449 826 497 868 q 336 783 401 783 m 582 1135 q 518 1035 560 1067 q 440 1003 476 1003 q 366 1022 397 1003 q 310 1059 335 1040 q 258 1078 285 1078 q 205 1065 233 1078 q 157 1019 176 1051 l 115 1043 q 176 1126 133 1092 q 257 1163 218 1161 q 331 1145 301 1164 q 385 1108 360 1126 q 440 1089 410 1089 q 498 1107 471 1089 q 542 1156 525 1125 l 582 1135 z "},"ǎ":{"ha":717,"x_min":47,"x_max":682,"o":"m 483 0 q 478 42 479 24 q 474 79 476 60 q 372 5 426 32 q 256 -22 317 -22 q 99 26 150 -22 q 47 143 47 74 q 87 253 47 207 q 190 330 126 300 q 327 374 253 360 q 471 388 401 389 l 471 474 q 463 565 471 522 q 426 636 454 608 q 338 665 399 664 q 255 650 297 667 q 193 593 213 633 q 208 567 204 582 q 211 540 211 553 q 197 502 211 524 q 149 482 183 481 q 104 502 119 482 q 89 550 89 522 q 124 635 89 597 q 222 694 160 672 q 364 717 285 717 q 536 655 481 717 q 590 460 592 593 q 590 356 590 408 q 590 252 590 304 q 589 147 589 200 q 588 103 589 125 q 583 53 586 81 q 633 56 608 54 q 682 58 657 57 l 682 0 l 483 0 m 471 340 q 372 328 424 339 q 276 297 319 318 q 205 242 232 276 q 179 160 178 208 q 213 83 182 108 q 288 57 244 57 q 387 78 344 57 q 471 139 429 100 q 469 172 469 154 q 469 210 469 190 q 470 254 469 217 q 471 340 471 292 m 340 842 l 133 1068 l 171 1113 l 347 961 l 350 961 l 529 1115 l 564 1075 l 343 842 l 340 842 z "},"â":{"ha":717,"x_min":47,"x_max":682,"o":"m 483 0 q 478 42 479 24 q 474 79 476 60 q 372 5 426 32 q 256 -22 317 -22 q 99 26 150 -22 q 47 143 47 74 q 87 253 47 207 q 190 330 126 300 q 327 374 253 360 q 471 388 401 389 l 471 474 q 463 565 471 522 q 426 636 454 608 q 338 665 399 664 q 255 650 297 667 q 193 593 213 633 q 208 567 204 582 q 211 540 211 553 q 197 502 211 524 q 149 482 183 481 q 104 502 119 482 q 89 550 89 522 q 124 635 89 597 q 222 694 160 672 q 364 717 285 717 q 536 655 481 717 q 590 460 592 593 q 590 356 590 408 q 590 252 590 304 q 589 147 589 200 q 588 103 589 125 q 583 53 586 81 q 633 56 608 54 q 682 58 657 57 l 682 0 l 483 0 m 471 340 q 372 328 424 339 q 276 297 319 318 q 205 242 232 276 q 179 160 178 208 q 213 83 182 108 q 288 57 244 57 q 387 78 344 57 q 471 139 429 100 q 469 172 469 154 q 469 210 469 190 q 470 254 469 217 q 471 340 471 292 m 526 856 l 350 1007 l 347 1007 l 168 865 l 133 906 l 354 1126 l 357 1126 l 564 900 l 526 856 z "},"ấ":{"ha":717,"x_min":47,"x_max":746,"o":"m 483 0 q 478 42 479 24 q 474 79 476 60 q 372 5 426 32 q 256 -22 317 -22 q 99 26 150 -22 q 47 143 47 74 q 87 253 47 207 q 190 330 126 300 q 327 374 253 360 q 471 388 401 389 l 471 474 q 463 565 471 522 q 426 636 454 608 q 338 665 399 664 q 255 650 297 667 q 193 593 213 633 q 208 567 204 582 q 211 540 211 553 q 197 502 211 524 q 149 482 183 481 q 104 502 119 482 q 89 550 89 522 q 124 635 89 597 q 222 694 160 672 q 364 717 285 717 q 536 655 481 717 q 590 460 592 593 q 590 356 590 408 q 590 252 590 304 q 589 147 589 200 q 588 103 589 125 q 583 53 586 81 q 633 56 608 54 q 682 58 657 57 l 682 0 l 483 0 m 471 340 q 372 328 424 339 q 276 297 319 318 q 205 242 232 276 q 179 160 178 208 q 213 83 182 108 q 288 57 244 57 q 387 78 344 57 q 471 139 429 100 q 469 172 469 154 q 469 210 469 190 q 470 254 469 217 q 471 340 471 292 m 499 810 l 350 906 l 204 810 l 175 843 l 354 1006 l 356 1006 l 525 844 l 499 810 m 558 913 l 519 944 l 636 1132 q 676 1167 657 1163 q 710 1167 696 1172 q 726 1158 724 1161 q 739 1140 732 1154 q 742 1106 746 1126 q 714 1060 739 1086 l 558 913 z "},"ậ":{"ha":717,"x_min":47,"x_max":682,"o":"m 358 -256 q 312 -235 332 -256 q 292 -182 292 -214 q 312 -130 292 -151 q 360 -108 332 -108 q 407 -130 388 -108 q 426 -182 426 -151 q 406 -235 426 -214 q 358 -256 385 -256 m 483 0 q 478 42 479 24 q 474 79 476 60 q 372 5 426 32 q 256 -22 317 -22 q 99 26 150 -22 q 47 143 47 74 q 87 253 47 207 q 190 330 126 300 q 327 374 253 360 q 471 388 401 389 l 471 474 q 463 565 471 522 q 426 636 454 608 q 338 665 399 664 q 255 650 297 667 q 193 593 213 633 q 208 567 204 582 q 211 540 211 553 q 197 502 211 524 q 149 482 183 481 q 104 502 119 482 q 89 550 89 522 q 124 635 89 597 q 222 694 160 672 q 364 717 285 717 q 536 655 481 717 q 590 460 592 593 q 590 356 590 408 q 590 252 590 304 q 589 147 589 200 q 588 103 589 125 q 583 53 586 81 q 633 56 608 54 q 682 58 657 57 l 682 0 l 483 0 m 471 340 q 372 328 424 339 q 276 297 319 318 q 205 242 232 276 q 179 160 178 208 q 213 83 182 108 q 288 57 244 57 q 387 78 344 57 q 471 139 429 100 q 469 172 469 154 q 469 210 469 190 q 470 254 469 217 q 471 340 471 292 m 526 779 l 350 931 l 347 931 l 168 789 l 133 829 l 354 1050 l 357 1050 l 564 824 l 526 779 z "},"ầ":{"ha":717,"x_min":47,"x_max":682,"o":"m 483 0 q 478 42 479 24 q 474 79 476 60 q 372 5 426 32 q 256 -22 317 -22 q 99 26 150 -22 q 47 143 47 74 q 87 253 47 207 q 190 330 126 300 q 327 374 253 360 q 471 388 401 389 l 471 474 q 463 565 471 522 q 426 636 454 608 q 338 665 399 664 q 255 650 297 667 q 193 593 213 633 q 208 567 204 582 q 211 540 211 553 q 197 502 211 524 q 149 482 183 481 q 104 502 119 482 q 89 550 89 522 q 124 635 89 597 q 222 694 160 672 q 364 717 285 717 q 536 655 481 717 q 590 460 592 593 q 590 356 590 408 q 590 252 590 304 q 589 147 589 200 q 588 103 589 125 q 583 53 586 81 q 633 56 608 54 q 682 58 657 57 l 682 0 l 483 0 m 471 340 q 372 328 424 339 q 276 297 319 318 q 205 242 232 276 q 179 160 178 208 q 213 83 182 108 q 288 57 244 57 q 387 78 344 57 q 471 139 429 100 q 469 172 469 154 q 469 210 469 190 q 470 254 469 217 q 471 340 471 292 m 499 810 l 350 906 l 204 810 l 175 843 l 354 1006 l 356 1006 l 525 844 l 499 810 m 519 960 l 364 1107 q 335 1153 339 1133 q 339 1188 332 1174 q 351 1206 346 1201 q 369 1214 356 1208 q 401 1215 382 1219 q 442 1179 421 1210 l 558 992 l 519 960 z "},"ẩ":{"ha":717,"x_min":47,"x_max":682,"o":"m 483 0 q 478 42 479 24 q 474 79 476 60 q 372 5 426 32 q 256 -22 317 -22 q 99 26 150 -22 q 47 143 47 74 q 87 253 47 207 q 190 330 126 300 q 327 374 253 360 q 471 388 401 389 l 471 474 q 463 565 471 522 q 426 636 454 608 q 338 665 399 664 q 255 650 297 667 q 193 593 213 633 q 208 567 204 582 q 211 540 211 553 q 197 502 211 524 q 149 482 183 481 q 104 502 119 482 q 89 550 89 522 q 124 635 89 597 q 222 694 160 672 q 364 717 285 717 q 536 655 481 717 q 590 460 592 593 q 590 356 590 408 q 590 252 590 304 q 589 147 589 200 q 588 103 589 125 q 583 53 586 81 q 633 56 608 54 q 682 58 657 57 l 682 0 l 483 0 m 471 340 q 372 328 424 339 q 276 297 319 318 q 205 242 232 276 q 179 160 178 208 q 213 83 182 108 q 288 57 244 57 q 387 78 344 57 q 471 139 429 100 q 469 172 469 154 q 469 210 469 190 q 470 254 469 217 q 471 340 471 292 m 499 810 l 350 906 l 204 810 l 175 843 l 354 1006 l 356 1006 l 525 844 l 499 810 m 526 940 q 544 982 526 965 q 579 1014 561 999 q 599 1041 593 1025 q 606 1071 606 1057 q 586 1121 606 1099 q 532 1143 567 1143 q 488 1130 507 1143 q 467 1101 469 1117 q 472 1092 469 1097 q 475 1079 475 1086 q 462 1053 475 1063 q 432 1043 449 1043 q 401 1056 415 1043 q 386 1096 386 1068 q 403 1142 386 1119 q 452 1178 419 1164 q 531 1193 485 1193 q 643 1158 604 1193 q 682 1081 682 1122 q 666 1025 682 1046 q 625 985 650 1004 q 596 962 608 972 q 583 940 583 951 l 526 940 z "},"ẫ":{"ha":717,"x_min":47,"x_max":682,"o":"m 483 0 q 478 42 479 24 q 474 79 476 60 q 372 5 426 32 q 256 -22 317 -22 q 99 26 150 -22 q 47 143 47 74 q 87 253 47 207 q 190 330 126 300 q 327 374 253 360 q 471 388 401 389 l 471 474 q 463 565 471 522 q 426 636 454 608 q 338 665 399 664 q 255 650 297 667 q 193 593 213 633 q 208 567 204 582 q 211 540 211 553 q 197 502 211 524 q 149 482 183 481 q 104 502 119 482 q 89 550 89 522 q 124 635 89 597 q 222 694 160 672 q 364 717 285 717 q 536 655 481 717 q 590 460 592 593 q 590 356 590 408 q 590 252 590 304 q 589 147 589 200 q 588 103 589 125 q 583 53 586 81 q 633 56 608 54 q 682 58 657 57 l 682 0 l 483 0 m 471 340 q 372 328 424 339 q 276 297 319 318 q 205 242 232 276 q 179 160 178 208 q 213 83 182 108 q 288 57 244 57 q 387 78 344 57 q 471 139 429 100 q 469 172 469 154 q 469 210 469 190 q 470 254 469 217 q 471 340 471 292 m 499 810 l 350 906 l 204 810 l 175 843 l 354 1006 l 356 1006 l 525 844 l 499 810 m 600 1144 q 536 1044 578 1076 q 458 1013 494 1013 q 384 1031 415 1013 q 328 1069 353 1050 q 276 1088 303 1088 q 223 1074 251 1088 q 175 1029 194 1061 l 133 1053 q 194 1136 151 1101 q 275 1172 236 1171 q 349 1155 319 1174 q 403 1117 378 1136 q 458 1099 428 1099 q 516 1117 489 1099 q 560 1165 543 1135 l 600 1144 z "},"ä":{"ha":717,"x_min":47,"x_max":682,"o":"m 483 0 q 478 42 479 24 q 474 79 476 60 q 372 5 426 32 q 256 -22 317 -22 q 99 26 150 -22 q 47 143 47 74 q 87 253 47 207 q 190 330 126 300 q 327 374 253 360 q 471 388 401 389 l 471 474 q 463 565 471 522 q 426 636 454 608 q 338 665 399 664 q 255 650 297 667 q 193 593 213 633 q 208 567 204 582 q 211 540 211 553 q 197 502 211 524 q 149 482 183 481 q 104 502 119 482 q 89 550 89 522 q 124 635 89 597 q 222 694 160 672 q 364 717 285 717 q 536 655 481 717 q 590 460 592 593 q 590 356 590 408 q 590 252 590 304 q 589 147 589 200 q 588 103 589 125 q 583 53 586 81 q 633 56 608 54 q 682 58 657 57 l 682 0 l 483 0 m 471 340 q 372 328 424 339 q 276 297 319 318 q 205 242 232 276 q 179 160 178 208 q 213 83 182 108 q 288 57 244 57 q 387 78 344 57 q 471 139 429 100 q 469 172 469 154 q 469 210 469 190 q 470 254 469 217 q 471 340 471 292 m 465 894 q 417 918 438 894 q 396 976 396 942 q 417 1035 396 1011 q 465 1060 439 1060 q 515 1035 496 1060 q 535 976 535 1011 q 514 918 535 942 q 465 894 493 894 m 233 894 q 185 918 206 894 q 164 976 164 942 q 185 1035 164 1011 q 233 1060 207 1060 q 283 1035 264 1060 q 303 976 303 1011 q 282 918 303 942 q 233 894 261 894 z "},"ạ":{"ha":717,"x_min":47,"x_max":682,"o":"m 358 -256 q 312 -235 332 -256 q 292 -182 292 -214 q 312 -130 292 -151 q 360 -108 332 -108 q 407 -130 388 -108 q 426 -182 426 -151 q 406 -235 426 -214 q 358 -256 385 -256 m 483 0 q 478 42 479 24 q 474 79 476 60 q 372 5 426 32 q 256 -22 317 -22 q 99 26 150 -22 q 47 143 47 74 q 87 253 47 207 q 190 330 126 300 q 327 374 253 360 q 471 388 401 389 l 471 474 q 463 565 471 522 q 426 636 454 608 q 338 665 399 664 q 255 650 297 667 q 193 593 213 633 q 208 567 204 582 q 211 540 211 553 q 197 502 211 524 q 149 482 183 481 q 104 502 119 482 q 89 550 89 522 q 124 635 89 597 q 222 694 160 672 q 364 717 285 717 q 536 655 481 717 q 590 460 592 593 q 590 356 590 408 q 590 252 590 304 q 589 147 589 200 q 588 103 589 125 q 583 53 586 81 q 633 56 608 54 q 682 58 657 57 l 682 0 l 483 0 m 471 340 q 372 328 424 339 q 276 297 319 318 q 205 242 232 276 q 179 160 178 208 q 213 83 182 108 q 288 57 244 57 q 387 78 344 57 q 471 139 429 100 q 469 172 469 154 q 469 210 469 190 q 470 254 469 217 q 471 340 471 292 z "},"à":{"ha":717,"x_min":47,"x_max":682,"o":"m 483 0 q 478 42 479 24 q 474 79 476 60 q 372 5 426 32 q 256 -22 317 -22 q 99 26 150 -22 q 47 143 47 74 q 87 253 47 207 q 190 330 126 300 q 327 374 253 360 q 471 388 401 389 l 471 474 q 463 565 471 522 q 426 636 454 608 q 338 665 399 664 q 255 650 297 667 q 193 593 213 633 q 208 567 204 582 q 211 540 211 553 q 197 502 211 524 q 149 482 183 481 q 104 502 119 482 q 89 550 89 522 q 124 635 89 597 q 222 694 160 672 q 364 717 285 717 q 536 655 481 717 q 590 460 592 593 q 590 356 590 408 q 590 252 590 304 q 589 147 589 200 q 588 103 589 125 q 583 53 586 81 q 633 56 608 54 q 682 58 657 57 l 682 0 l 483 0 m 471 340 q 372 328 424 339 q 276 297 319 318 q 205 242 232 276 q 179 160 178 208 q 213 83 182 108 q 288 57 244 57 q 387 78 344 57 q 471 139 429 100 q 469 172 469 154 q 469 210 469 190 q 470 254 469 217 q 471 340 471 292 m 422 851 l 267 999 q 238 1045 242 1025 q 242 1079 235 1065 q 254 1097 249 1093 q 272 1106 258 1100 q 304 1106 285 1111 q 344 1071 324 1101 l 461 883 l 422 851 z "},"ả":{"ha":717,"x_min":47,"x_max":682,"o":"m 483 0 q 478 42 479 24 q 474 79 476 60 q 372 5 426 32 q 256 -22 317 -22 q 99 26 150 -22 q 47 143 47 74 q 87 253 47 207 q 190 330 126 300 q 327 374 253 360 q 471 388 401 389 l 471 474 q 463 565 471 522 q 426 636 454 608 q 338 665 399 664 q 255 650 297 667 q 193 593 213 633 q 208 567 204 582 q 211 540 211 553 q 197 502 211 524 q 149 482 183 481 q 104 502 119 482 q 89 550 89 522 q 124 635 89 597 q 222 694 160 672 q 364 717 285 717 q 536 655 481 717 q 590 460 592 593 q 590 356 590 408 q 590 252 590 304 q 589 147 589 200 q 588 103 589 125 q 583 53 586 81 q 633 56 608 54 q 682 58 657 57 l 682 0 l 483 0 m 471 340 q 372 328 424 339 q 276 297 319 318 q 205 242 232 276 q 179 160 178 208 q 213 83 182 108 q 288 57 244 57 q 387 78 344 57 q 471 139 429 100 q 469 172 469 154 q 469 210 469 190 q 470 254 469 217 q 471 340 471 292 m 326 832 q 344 874 326 857 q 379 906 361 890 q 399 933 393 917 q 406 963 406 949 q 386 1013 406 990 q 332 1035 367 1035 q 288 1022 307 1035 q 267 993 269 1008 q 272 983 269 989 q 275 971 275 978 q 262 944 275 954 q 232 935 249 935 q 201 947 215 935 q 186 988 186 960 q 203 1033 186 1011 q 252 1070 219 1056 q 331 1085 285 1085 q 443 1049 404 1085 q 482 972 482 1014 q 466 917 482 938 q 425 876 450 896 q 396 853 408 864 q 383 832 383 843 l 326 832 z "},"ā":{"ha":717,"x_min":47,"x_max":682,"o":"m 483 0 q 478 42 479 24 q 474 79 476 60 q 372 5 426 32 q 256 -22 317 -22 q 99 26 150 -22 q 47 143 47 74 q 87 253 47 207 q 190 330 126 300 q 327 374 253 360 q 471 388 401 389 l 471 474 q 463 565 471 522 q 426 636 454 608 q 338 665 399 664 q 255 650 297 667 q 193 593 213 633 q 208 567 204 582 q 211 540 211 553 q 197 502 211 524 q 149 482 183 481 q 104 502 119 482 q 89 550 89 522 q 124 635 89 597 q 222 694 160 672 q 364 717 285 717 q 536 655 481 717 q 590 460 592 593 q 590 356 590 408 q 590 252 590 304 q 589 147 589 200 q 588 103 589 125 q 583 53 586 81 q 633 56 608 54 q 682 58 657 57 l 682 0 l 483 0 m 471 340 q 372 328 424 339 q 276 297 319 318 q 205 242 232 276 q 179 160 178 208 q 213 83 182 108 q 288 57 244 57 q 387 78 344 57 q 471 139 429 100 q 469 172 469 154 q 469 210 469 190 q 470 254 469 217 q 471 340 471 292 m 164 935 l 164 1018 l 532 1018 l 532 940 l 164 935 z "},"ą":{"ha":717,"x_min":47,"x_max":682,"o":"m 483 0 q 478 42 479 24 q 474 79 476 60 q 372 5 426 32 q 256 -22 317 -22 q 99 26 150 -22 q 47 143 47 74 q 87 253 47 207 q 190 330 126 300 q 327 374 253 360 q 471 388 401 389 l 471 474 q 463 565 471 522 q 426 636 454 608 q 338 665 399 664 q 255 650 297 667 q 193 593 213 633 q 208 567 204 582 q 211 540 211 553 q 197 502 211 524 q 149 482 183 481 q 104 502 119 482 q 89 550 89 522 q 124 635 89 597 q 222 694 160 672 q 364 717 285 717 q 536 655 481 717 q 590 460 592 593 q 590 356 590 408 q 590 252 590 304 q 589 147 589 200 q 588 103 589 125 q 583 53 586 81 q 633 56 608 54 q 682 58 657 57 l 682 0 l 483 0 m 471 340 q 372 328 424 339 q 276 297 319 318 q 205 242 232 276 q 179 160 178 208 q 213 83 182 108 q 288 57 244 57 q 387 78 344 57 q 471 139 429 100 q 469 172 469 154 q 469 210 469 190 q 470 254 469 217 q 471 340 471 292 m 503 -353 q 396 -313 436 -353 q 356 -211 356 -274 q 400 -101 356 -151 q 513 -15 444 -51 q 651 43 581 22 l 651 7 q 560 -37 603 -10 q 493 -101 518 -64 q 468 -183 468 -137 q 494 -253 468 -226 q 554 -279 519 -279 q 602 -268 579 -279 q 644 -240 625 -257 l 668 -265 q 597 -326 642 -299 q 503 -353 553 -353 z "},"å":{"ha":717,"x_min":47,"x_max":682,"o":"m 483 0 q 478 42 479 24 q 474 79 476 60 q 372 5 426 32 q 256 -22 317 -22 q 99 26 150 -22 q 47 143 47 74 q 87 253 47 207 q 190 330 126 300 q 327 374 253 360 q 471 388 401 389 l 471 474 q 463 565 471 522 q 426 636 454 608 q 338 665 399 664 q 255 650 297 667 q 193 593 213 633 q 208 567 204 582 q 211 540 211 553 q 197 502 211 524 q 149 482 183 481 q 104 502 119 482 q 89 550 89 522 q 124 635 89 597 q 222 694 160 672 q 364 717 285 717 q 536 655 481 717 q 590 460 592 593 q 590 356 590 408 q 590 252 590 304 q 589 147 589 200 q 588 103 589 125 q 583 53 586 81 q 633 56 608 54 q 682 58 657 57 l 682 0 l 483 0 m 471 340 q 372 328 424 339 q 276 297 319 318 q 205 242 232 276 q 179 160 178 208 q 213 83 182 108 q 288 57 244 57 q 387 78 344 57 q 471 139 429 100 q 469 172 469 154 q 469 210 469 190 q 470 254 469 217 q 471 340 471 292 m 350 838 q 285 851 317 838 q 234 892 254 864 q 213 964 214 921 q 231 1037 211 1006 q 282 1085 250 1068 q 347 1103 314 1103 q 411 1090 381 1103 q 463 1049 442 1076 q 485 978 483 1021 q 466 903 486 935 q 415 855 446 872 q 350 838 383 838 m 354 881 q 395 904 379 882 q 411 963 411 926 q 394 1034 411 1007 q 347 1060 378 1061 q 303 1035 321 1058 q 286 976 286 1013 q 304 908 286 936 q 354 881 322 879 z "},"ã":{"ha":717,"x_min":47,"x_max":682,"o":"m 483 0 q 478 42 479 24 q 474 79 476 60 q 372 5 426 32 q 256 -22 317 -22 q 99 26 150 -22 q 47 143 47 74 q 87 253 47 207 q 190 330 126 300 q 327 374 253 360 q 471 388 401 389 l 471 474 q 463 565 471 522 q 426 636 454 608 q 338 665 399 664 q 255 650 297 667 q 193 593 213 633 q 208 567 204 582 q 211 540 211 553 q 197 502 211 524 q 149 482 183 481 q 104 502 119 482 q 89 550 89 522 q 124 635 89 597 q 222 694 160 672 q 364 717 285 717 q 536 655 481 717 q 590 460 592 593 q 590 356 590 408 q 590 252 590 304 q 589 147 589 200 q 588 103 589 125 q 583 53 586 81 q 633 56 608 54 q 682 58 657 57 l 682 0 l 483 0 m 471 340 q 372 328 424 339 q 276 297 319 318 q 205 242 232 276 q 179 160 178 208 q 213 83 182 108 q 288 57 244 57 q 387 78 344 57 q 471 139 429 100 q 469 172 469 154 q 469 210 469 190 q 470 254 469 217 q 471 340 471 292 m 582 1028 q 518 928 560 960 q 440 896 476 896 q 366 915 397 896 q 310 952 335 933 q 258 971 285 971 q 205 958 233 971 q 157 913 176 944 l 115 936 q 176 1019 133 985 q 257 1056 218 1054 q 331 1038 301 1057 q 385 1001 360 1019 q 440 982 410 982 q 498 1000 471 982 q 542 1049 525 1018 l 582 1028 z "},"æ":{"ha":1079,"x_min":47,"x_max":1022,"o":"m 250 -22 q 101 24 156 -22 q 47 139 47 69 q 86 249 47 203 q 188 326 125 296 q 324 369 250 356 q 467 382 397 383 l 467 467 q 458 562 467 517 q 422 636 450 607 q 329 665 393 665 q 245 643 283 665 q 192 583 207 621 q 206 560 201 575 q 210 538 210 546 q 197 500 210 522 q 150 479 183 478 q 108 497 124 479 q 92 546 92 515 q 123 627 92 588 q 213 692 154 667 q 350 717 271 717 q 468 685 419 717 q 542 597 517 653 q 638 683 581 650 q 768 717 694 717 q 894 686 839 717 q 981 588 949 656 q 1014 410 1014 521 l 590 401 q 608 209 582 288 q 683 90 633 131 q 796 49 732 49 q 907 82 861 49 q 988 164 953 115 l 1022 136 q 942 43 985 78 q 855 -7 900 8 q 763 -22 810 -22 q 618 9 682 -22 q 515 110 554 40 q 393 8 461 38 q 250 -22 325 -22 m 276 57 q 389 78 339 53 q 479 149 439 103 q 474 201 478 168 q 469 272 471 235 q 465 335 467 308 q 367 323 418 333 q 274 292 317 313 q 204 238 231 271 q 179 156 178 204 q 213 82 182 104 q 276 57 243 60 m 600 460 l 889 460 q 880 556 889 510 q 844 633 871 603 q 763 663 817 663 q 675 635 708 663 q 624 561 642 607 q 600 460 607 515 z "},"b":{"ha":808,"x_min":11,"x_max":750,"o":"m 106 868 q 106 910 106 890 q 110 958 107 931 q 60 956 85 957 q 11 953 36 954 l 11 1011 q 106 1017 72 1011 q 158 1031 140 1022 q 185 1049 175 1039 l 225 1049 l 225 635 q 317 695 264 674 q 435 717 371 717 q 595 674 524 717 q 708 551 667 631 q 750 364 750 472 q 699 159 750 246 q 565 25 647 72 q 389 -22 483 -22 q 285 -5 342 -22 q 185 63 229 13 l 151 0 l 103 0 l 106 868 m 225 218 q 249 105 225 144 q 310 50 272 65 q 389 35 347 35 q 504 72 456 35 q 580 176 553 110 q 607 329 607 242 q 583 495 607 424 q 513 608 560 567 q 393 649 465 649 q 302 627 347 649 q 225 569 257 606 l 225 218 z "},"c":{"ha":739,"x_min":57,"x_max":692,"o":"m 400 -22 q 228 20 307 -22 q 103 142 150 63 q 57 335 57 222 q 83 475 57 407 q 158 598 110 543 q 272 685 206 653 q 419 717 339 717 q 555 693 497 717 q 644 631 613 669 q 676 546 676 592 q 660 494 676 515 q 611 472 643 472 q 562 494 576 471 q 547 535 547 517 q 551 563 547 549 q 568 590 556 578 q 529 640 557 624 q 472 660 501 656 q 422 665 442 665 q 263 590 328 665 q 199 369 199 514 q 228 204 199 276 q 313 91 258 132 q 438 50 367 50 q 563 85 503 50 q 656 169 622 119 l 692 142 q 605 47 656 83 q 501 -6 554 11 q 400 -22 447 -22 z "},"ć":{"ha":739,"x_min":57,"x_max":692,"o":"m 400 -22 q 228 20 307 -22 q 103 142 150 63 q 57 335 57 222 q 83 475 57 407 q 158 598 110 543 q 272 685 206 653 q 419 717 339 717 q 555 693 497 717 q 644 631 613 669 q 676 546 676 592 q 660 494 676 515 q 611 472 643 472 q 562 494 576 471 q 547 535 547 517 q 551 563 547 549 q 568 590 556 578 q 529 640 557 624 q 472 660 501 656 q 422 665 442 665 q 263 590 328 665 q 199 369 199 514 q 228 204 199 276 q 313 91 258 132 q 438 50 367 50 q 563 85 503 50 q 656 169 622 119 l 692 142 q 605 47 656 83 q 501 -6 554 11 q 400 -22 447 -22 m 333 806 l 294 838 l 411 1025 q 451 1060 432 1056 q 485 1060 471 1065 q 501 1051 499 1054 q 514 1033 507 1047 q 517 999 521 1019 q 489 953 514 979 l 333 806 z "},"č":{"ha":739,"x_min":57,"x_max":692,"o":"m 400 -22 q 228 20 307 -22 q 103 142 150 63 q 57 335 57 222 q 83 475 57 407 q 158 598 110 543 q 272 685 206 653 q 419 717 339 717 q 555 693 497 717 q 644 631 613 669 q 676 546 676 592 q 660 494 676 515 q 611 472 643 472 q 562 494 576 471 q 547 535 547 517 q 551 563 547 549 q 568 590 556 578 q 529 640 557 624 q 472 660 501 656 q 422 665 442 665 q 263 590 328 665 q 199 369 199 514 q 228 204 199 276 q 313 91 258 132 q 438 50 367 50 q 563 85 503 50 q 656 169 622 119 l 692 142 q 605 47 656 83 q 501 -6 554 11 q 400 -22 447 -22 m 397 796 l 190 1022 l 228 1067 l 404 915 l 407 915 l 586 1069 l 621 1029 l 400 796 l 397 796 z "},"ç":{"ha":739,"x_min":57,"x_max":692,"o":"m 400 -22 q 228 20 307 -22 q 103 142 150 63 q 57 335 57 222 q 83 475 57 407 q 158 598 110 543 q 272 685 206 653 q 419 717 339 717 q 555 693 497 717 q 644 631 613 669 q 676 546 676 592 q 660 494 676 515 q 611 472 643 472 q 562 494 576 471 q 547 535 547 517 q 551 563 547 549 q 568 590 556 578 q 529 640 557 624 q 472 660 501 656 q 422 665 442 665 q 263 590 328 665 q 199 369 199 514 q 228 204 199 276 q 313 91 258 132 q 438 50 367 50 q 563 85 503 50 q 656 169 622 119 l 692 142 q 605 47 656 83 q 501 -6 554 11 q 400 -22 447 -22 m 343 -335 l 335 -289 q 401 -272 371 -282 q 453 -249 431 -262 q 489 -219 476 -236 q 501 -182 501 -203 q 483 -146 501 -154 q 439 -142 464 -137 q 394 -161 414 -147 l 347 -139 l 388 11 l 465 11 l 428 -103 q 473 -85 447 -92 q 522 -79 499 -79 q 590 -104 565 -79 q 615 -171 615 -129 q 587 -242 615 -212 q 515 -290 558 -271 q 425 -319 471 -308 q 343 -335 379 -329 z "},"ĉ":{"ha":739,"x_min":57,"x_max":692,"o":"m 400 -22 q 228 20 307 -22 q 103 142 150 63 q 57 335 57 222 q 83 475 57 407 q 158 598 110 543 q 272 685 206 653 q 419 717 339 717 q 555 693 497 717 q 644 631 613 669 q 676 546 676 592 q 660 494 676 515 q 611 472 643 472 q 562 494 576 471 q 547 535 547 517 q 551 563 547 549 q 568 590 556 578 q 529 640 557 624 q 472 660 501 656 q 422 665 442 665 q 263 590 328 665 q 199 369 199 514 q 228 204 199 276 q 313 91 258 132 q 438 50 367 50 q 563 85 503 50 q 656 169 622 119 l 692 142 q 605 47 656 83 q 501 -6 554 11 q 400 -22 447 -22 m 583 810 l 407 961 l 404 961 l 225 819 l 190 860 l 411 1081 l 414 1081 l 621 854 l 583 810 z "},"ċ":{"ha":739,"x_min":57,"x_max":692,"o":"m 400 -22 q 228 20 307 -22 q 103 142 150 63 q 57 335 57 222 q 83 475 57 407 q 158 598 110 543 q 272 685 206 653 q 419 717 339 717 q 555 693 497 717 q 644 631 613 669 q 676 546 676 592 q 660 494 676 515 q 611 472 643 472 q 562 494 576 471 q 547 535 547 517 q 551 563 547 549 q 568 590 556 578 q 529 640 557 624 q 472 660 501 656 q 422 665 442 665 q 263 590 328 665 q 199 369 199 514 q 228 204 199 276 q 313 91 258 132 q 438 50 367 50 q 563 85 503 50 q 656 169 622 119 l 692 142 q 605 47 656 83 q 501 -6 554 11 q 400 -22 447 -22 m 406 846 q 354 869 376 846 q 332 928 332 893 q 355 987 332 963 q 407 1011 378 1011 q 460 987 439 1011 q 482 928 482 963 q 459 869 482 893 q 406 846 436 846 z "},"d":{"ha":831,"x_min":58,"x_max":789,"o":"m 358 -22 q 206 20 274 -22 q 98 142 138 63 q 58 328 58 221 q 104 529 58 442 q 231 667 150 617 q 415 717 313 717 q 506 705 461 717 q 578 678 551 693 l 578 868 q 578 910 578 890 q 582 958 579 931 q 533 956 557 957 q 483 953 508 954 l 483 1011 q 578 1017 544 1011 q 628 1031 611 1022 q 656 1049 646 1039 l 696 1049 l 696 147 q 694 103 696 125 q 690 53 693 81 q 740 56 715 54 q 789 58 764 57 l 789 0 l 590 0 q 584 38 586 21 q 581 72 582 56 q 485 3 542 29 q 358 -22 428 -22 m 408 46 q 501 72 454 46 q 578 138 547 99 q 576 173 576 154 q 576 214 576 192 l 578 614 q 505 651 544 639 q 424 663 465 663 q 303 622 354 663 q 225 510 251 582 q 201 340 199 438 q 228 189 204 256 q 298 84 253 122 q 408 46 343 46 z "},"ð":{"ha":776,"x_min":60,"x_max":699,"o":"m 360 -22 q 208 17 276 -22 q 100 131 140 57 q 60 308 60 206 q 80 449 60 382 q 138 570 100 517 q 232 655 176 624 q 357 689 288 686 q 468 671 410 692 q 560 597 526 650 l 563 597 q 519 714 549 653 q 445 832 490 775 q 338 929 400 889 l 253 822 l 203 864 l 283 960 q 217 985 253 975 q 143 997 182 994 l 149 1056 q 243 1042 199 1053 q 329 1013 288 1031 l 404 1101 l 444 1064 l 383 986 q 553 837 483 931 q 660 625 622 743 q 697 378 697 507 q 663 177 699 268 q 553 32 628 86 q 360 -22 478 -22 m 382 33 q 476 65 433 33 q 547 160 519 97 q 574 318 574 224 q 565 420 574 367 q 536 521 557 474 q 481 599 515 568 q 393 632 446 629 q 288 594 331 635 q 222 486 244 554 q 199 338 199 418 q 251 112 199 190 q 382 33 304 33 z "},"ď":{"ha":921,"x_min":58,"x_max":936,"o":"m 358 -22 q 206 20 274 -22 q 98 142 138 63 q 58 328 58 221 q 104 529 58 442 q 231 667 150 617 q 415 717 313 717 q 506 705 461 717 q 578 678 551 693 l 578 868 q 578 910 578 890 q 582 958 579 931 q 533 956 557 957 q 483 953 508 954 l 483 1011 q 578 1017 544 1011 q 628 1031 611 1022 q 656 1049 646 1039 l 696 1049 l 696 147 q 694 103 696 125 q 690 53 693 81 q 740 56 715 54 q 789 58 764 57 l 789 0 l 590 0 q 584 38 586 21 q 581 72 582 56 q 485 3 542 29 q 358 -22 428 -22 m 408 46 q 501 72 454 46 q 578 138 547 99 q 576 173 576 154 q 576 214 576 192 l 578 614 q 505 651 544 639 q 424 663 465 663 q 303 622 354 663 q 225 510 251 582 q 201 340 199 438 q 228 189 204 256 q 298 84 253 122 q 408 46 343 46 m 819 769 l 783 797 q 826 903 814 856 q 835 994 838 951 q 822 1076 833 1036 l 918 1058 q 933 1017 929 1035 q 933 975 936 1000 q 896 867 928 919 q 819 769 864 814 z "},"đ":{"ha":831,"x_min":58,"x_max":804,"o":"m 358 -22 q 206 20 274 -22 q 98 142 138 63 q 58 328 58 221 q 104 529 58 442 q 231 667 150 617 q 415 717 313 717 q 506 705 461 717 q 578 678 551 693 l 578 868 q 578 910 578 890 q 582 958 579 931 q 533 956 557 957 q 483 953 508 954 l 483 1011 q 578 1017 544 1011 q 628 1031 611 1022 q 656 1049 646 1039 l 696 1049 l 696 147 q 694 103 696 125 q 690 53 693 81 q 740 56 715 54 q 789 58 764 57 l 789 0 l 590 0 q 584 38 586 21 q 581 72 582 56 q 485 3 542 29 q 358 -22 428 -22 m 408 46 q 501 72 454 46 q 578 138 547 99 q 576 173 576 154 q 576 214 576 192 l 578 614 q 505 651 544 639 q 424 663 465 663 q 303 622 354 663 q 225 510 251 582 q 201 340 199 438 q 228 189 204 256 q 298 84 253 122 q 408 46 343 46 m 354 810 l 354 872 l 804 872 l 804 814 l 354 810 z "},"e":{"ha":753,"x_min":58,"x_max":699,"o":"m 397 -22 q 224 23 301 -22 q 103 151 147 68 q 58 346 58 233 q 102 528 58 443 q 225 665 146 613 q 408 717 304 717 q 517 698 467 717 q 607 641 568 679 q 668 545 646 603 q 690 410 690 488 l 201 401 q 224 216 201 296 q 299 92 247 136 q 431 49 350 49 q 519 64 474 49 q 603 106 564 79 q 665 164 642 132 l 699 136 q 608 43 661 78 q 500 -7 556 8 q 397 -22 444 -22 m 206 460 l 560 460 q 545 556 560 510 q 497 633 531 603 q 410 663 464 663 q 276 615 329 663 q 206 460 222 567 z "},"é":{"ha":753,"x_min":58,"x_max":699,"o":"m 397 -22 q 224 23 301 -22 q 103 151 147 68 q 58 346 58 233 q 102 528 58 443 q 225 665 146 613 q 408 717 304 717 q 517 698 467 717 q 607 641 568 679 q 668 545 646 603 q 690 410 690 488 l 201 401 q 224 216 201 296 q 299 92 247 136 q 431 49 350 49 q 519 64 474 49 q 603 106 564 79 q 665 164 642 132 l 699 136 q 608 43 661 78 q 500 -7 556 8 q 397 -22 444 -22 m 206 460 l 560 460 q 545 556 560 510 q 497 633 531 603 q 410 663 464 663 q 276 615 329 663 q 206 460 222 567 m 315 806 l 276 838 l 393 1025 q 433 1060 414 1056 q 467 1060 453 1065 q 483 1051 481 1054 q 496 1033 489 1047 q 499 999 503 1019 q 471 953 496 979 l 315 806 z "},"ĕ":{"ha":753,"x_min":58,"x_max":699,"o":"m 397 -22 q 224 23 301 -22 q 103 151 147 68 q 58 346 58 233 q 102 528 58 443 q 225 665 146 613 q 408 717 304 717 q 517 698 467 717 q 607 641 568 679 q 668 545 646 603 q 690 410 690 488 l 201 401 q 224 216 201 296 q 299 92 247 136 q 431 49 350 49 q 519 64 474 49 q 603 106 564 79 q 665 164 642 132 l 699 136 q 608 43 661 78 q 500 -7 556 8 q 397 -22 444 -22 m 206 460 l 560 460 q 545 556 560 510 q 497 633 531 603 q 410 663 464 663 q 276 615 329 663 q 206 460 222 567 m 386 839 q 313 856 350 839 q 247 910 276 874 q 199 1000 217 946 l 239 1021 q 301 953 260 982 q 390 924 343 924 q 480 954 439 924 q 540 1024 521 985 l 578 1007 q 499 881 547 924 q 386 839 451 839 z "},"ě":{"ha":753,"x_min":58,"x_max":699,"o":"m 397 -22 q 224 23 301 -22 q 103 151 147 68 q 58 346 58 233 q 102 528 58 443 q 225 665 146 613 q 408 717 304 717 q 517 698 467 717 q 607 641 568 679 q 668 545 646 603 q 690 410 690 488 l 201 401 q 224 216 201 296 q 299 92 247 136 q 431 49 350 49 q 519 64 474 49 q 603 106 564 79 q 665 164 642 132 l 699 136 q 608 43 661 78 q 500 -7 556 8 q 397 -22 444 -22 m 206 460 l 560 460 q 545 556 560 510 q 497 633 531 603 q 410 663 464 663 q 276 615 329 663 q 206 460 222 567 m 381 796 l 174 1022 l 211 1067 l 388 915 l 390 915 l 569 1069 l 604 1029 l 383 796 l 381 796 z "},"ê":{"ha":753,"x_min":58,"x_max":699,"o":"m 397 -22 q 224 23 301 -22 q 103 151 147 68 q 58 346 58 233 q 102 528 58 443 q 225 665 146 613 q 408 717 304 717 q 517 698 467 717 q 607 641 568 679 q 668 545 646 603 q 690 410 690 488 l 201 401 q 224 216 201 296 q 299 92 247 136 q 431 49 350 49 q 519 64 474 49 q 603 106 564 79 q 665 164 642 132 l 699 136 q 608 43 661 78 q 500 -7 556 8 q 397 -22 444 -22 m 206 460 l 560 460 q 545 556 560 510 q 497 633 531 603 q 410 663 464 663 q 276 615 329 663 q 206 460 222 567 m 567 810 l 390 961 l 388 961 l 208 819 l 174 860 l 394 1081 l 397 1081 l 604 854 l 567 810 z "},"ế":{"ha":753,"x_min":58,"x_max":786,"o":"m 397 -22 q 224 23 301 -22 q 103 151 147 68 q 58 346 58 233 q 102 528 58 443 q 225 665 146 613 q 408 717 304 717 q 517 698 467 717 q 607 641 568 679 q 668 545 646 603 q 690 410 690 488 l 201 401 q 224 216 201 296 q 299 92 247 136 q 431 49 350 49 q 519 64 474 49 q 603 106 564 79 q 665 164 642 132 l 699 136 q 608 43 661 78 q 500 -7 556 8 q 397 -22 444 -22 m 206 460 l 560 460 q 545 556 560 510 q 497 633 531 603 q 410 663 464 663 q 276 615 329 663 q 206 460 222 567 m 539 764 l 390 860 l 244 764 l 215 797 l 394 960 l 396 960 l 565 799 l 539 764 m 599 867 l 560 899 l 676 1086 q 717 1122 697 1117 q 750 1121 736 1126 q 767 1113 764 1115 q 779 1094 772 1108 q 783 1060 786 1081 q 754 1014 779 1040 l 599 867 z "},"ệ":{"ha":753,"x_min":58,"x_max":699,"o":"m 451 -256 q 405 -235 425 -256 q 385 -182 385 -214 q 405 -130 385 -151 q 453 -108 425 -108 q 500 -130 481 -108 q 519 -182 519 -151 q 499 -235 519 -214 q 451 -256 478 -256 m 397 -22 q 224 23 301 -22 q 103 151 147 68 q 58 346 58 233 q 102 528 58 443 q 225 665 146 613 q 408 717 304 717 q 517 698 467 717 q 607 641 568 679 q 668 545 646 603 q 690 410 690 488 l 201 401 q 224 216 201 296 q 299 92 247 136 q 431 49 350 49 q 519 64 474 49 q 603 106 564 79 q 665 164 642 132 l 699 136 q 608 43 661 78 q 500 -7 556 8 q 397 -22 444 -22 m 206 460 l 560 460 q 545 556 560 510 q 497 633 531 603 q 410 663 464 663 q 276 615 329 663 q 206 460 222 567 m 567 810 l 390 961 l 388 961 l 208 819 l 174 860 l 394 1081 l 397 1081 l 604 854 l 567 810 z "},"ề":{"ha":753,"x_min":58,"x_max":699,"o":"m 397 -22 q 224 23 301 -22 q 103 151 147 68 q 58 346 58 233 q 102 528 58 443 q 225 665 146 613 q 408 717 304 717 q 517 698 467 717 q 607 641 568 679 q 668 545 646 603 q 690 410 690 488 l 201 401 q 224 216 201 296 q 299 92 247 136 q 431 49 350 49 q 519 64 474 49 q 603 106 564 79 q 665 164 642 132 l 699 136 q 608 43 661 78 q 500 -7 556 8 q 397 -22 444 -22 m 206 460 l 560 460 q 545 556 560 510 q 497 633 531 603 q 410 663 464 663 q 276 615 329 663 q 206 460 222 567 m 539 764 l 390 860 l 244 764 l 215 797 l 394 960 l 396 960 l 565 799 l 539 764 m 560 914 l 404 1061 q 376 1108 379 1088 q 379 1142 372 1128 q 392 1160 386 1156 q 409 1168 396 1163 q 442 1169 422 1174 q 482 1133 461 1164 l 599 946 l 560 914 z "},"ể":{"ha":753,"x_min":58,"x_max":722,"o":"m 397 -22 q 224 23 301 -22 q 103 151 147 68 q 58 346 58 233 q 102 528 58 443 q 225 665 146 613 q 408 717 304 717 q 517 698 467 717 q 607 641 568 679 q 668 545 646 603 q 690 410 690 488 l 201 401 q 224 216 201 296 q 299 92 247 136 q 431 49 350 49 q 519 64 474 49 q 603 106 564 79 q 665 164 642 132 l 699 136 q 608 43 661 78 q 500 -7 556 8 q 397 -22 444 -22 m 206 460 l 560 460 q 545 556 560 510 q 497 633 531 603 q 410 663 464 663 q 276 615 329 663 q 206 460 222 567 m 539 764 l 390 860 l 244 764 l 215 797 l 394 960 l 396 960 l 565 799 l 539 764 m 567 894 q 584 936 567 919 q 619 968 601 953 q 640 995 633 979 q 646 1025 646 1011 q 626 1075 646 1053 q 572 1097 607 1097 q 528 1084 547 1097 q 507 1056 510 1071 q 513 1046 510 1051 q 515 1033 515 1040 q 502 1007 515 1017 q 472 997 489 997 q 441 1010 456 997 q 426 1050 426 1022 q 443 1096 426 1074 q 492 1133 460 1118 q 571 1147 525 1147 q 683 1112 644 1147 q 722 1035 722 1076 q 706 979 722 1000 q 665 939 690 958 q 636 916 649 926 q 624 894 624 906 l 567 894 z "},"ễ":{"ha":753,"x_min":58,"x_max":699,"o":"m 397 -22 q 224 23 301 -22 q 103 151 147 68 q 58 346 58 233 q 102 528 58 443 q 225 665 146 613 q 408 717 304 717 q 517 698 467 717 q 607 641 568 679 q 668 545 646 603 q 690 410 690 488 l 201 401 q 224 216 201 296 q 299 92 247 136 q 431 49 350 49 q 519 64 474 49 q 603 106 564 79 q 665 164 642 132 l 699 136 q 608 43 661 78 q 500 -7 556 8 q 397 -22 444 -22 m 206 460 l 560 460 q 545 556 560 510 q 497 633 531 603 q 410 663 464 663 q 276 615 329 663 q 206 460 222 567 m 539 764 l 390 860 l 244 764 l 215 797 l 394 960 l 396 960 l 565 799 l 539 764 m 640 1099 q 576 999 618 1031 q 499 967 535 967 q 424 985 456 967 q 368 1023 393 1004 q 317 1042 343 1042 q 263 1028 292 1042 q 215 983 235 1015 l 174 1007 q 234 1090 192 1056 q 315 1126 276 1125 q 389 1109 360 1128 q 443 1072 418 1090 q 499 1053 468 1053 q 556 1071 529 1053 q 600 1119 583 1089 l 640 1099 z "},"ë":{"ha":753,"x_min":58,"x_max":699,"o":"m 397 -22 q 224 23 301 -22 q 103 151 147 68 q 58 346 58 233 q 102 528 58 443 q 225 665 146 613 q 408 717 304 717 q 517 698 467 717 q 607 641 568 679 q 668 545 646 603 q 690 410 690 488 l 201 401 q 224 216 201 296 q 299 92 247 136 q 431 49 350 49 q 519 64 474 49 q 603 106 564 79 q 665 164 642 132 l 699 136 q 608 43 661 78 q 500 -7 556 8 q 397 -22 444 -22 m 206 460 l 560 460 q 545 556 560 510 q 497 633 531 603 q 410 663 464 663 q 276 615 329 663 q 206 460 222 567 m 506 849 q 457 872 478 849 q 436 931 436 896 q 458 990 436 965 q 506 1014 479 1014 q 556 990 536 1014 q 575 931 575 965 q 554 872 575 896 q 506 849 533 849 m 274 849 q 225 872 246 849 q 204 931 204 896 q 226 990 204 965 q 274 1014 247 1014 q 324 990 304 1014 q 343 931 343 965 q 322 872 343 896 q 274 849 301 849 z "},"ė":{"ha":753,"x_min":58,"x_max":699,"o":"m 397 -22 q 224 23 301 -22 q 103 151 147 68 q 58 346 58 233 q 102 528 58 443 q 225 665 146 613 q 408 717 304 717 q 517 698 467 717 q 607 641 568 679 q 668 545 646 603 q 690 410 690 488 l 201 401 q 224 216 201 296 q 299 92 247 136 q 431 49 350 49 q 519 64 474 49 q 603 106 564 79 q 665 164 642 132 l 699 136 q 608 43 661 78 q 500 -7 556 8 q 397 -22 444 -22 m 206 460 l 560 460 q 545 556 560 510 q 497 633 531 603 q 410 663 464 663 q 276 615 329 663 q 206 460 222 567 m 389 846 q 338 869 360 846 q 315 928 315 893 q 338 987 315 963 q 390 1011 361 1011 q 444 987 422 1011 q 465 928 465 963 q 442 869 465 893 q 389 846 419 846 z "},"ẹ":{"ha":753,"x_min":58,"x_max":699,"o":"m 451 -256 q 405 -235 425 -256 q 385 -182 385 -214 q 405 -130 385 -151 q 453 -108 425 -108 q 500 -130 481 -108 q 519 -182 519 -151 q 499 -235 519 -214 q 451 -256 478 -256 m 397 -22 q 224 23 301 -22 q 103 151 147 68 q 58 346 58 233 q 102 528 58 443 q 225 665 146 613 q 408 717 304 717 q 517 698 467 717 q 607 641 568 679 q 668 545 646 603 q 690 410 690 488 l 201 401 q 224 216 201 296 q 299 92 247 136 q 431 49 350 49 q 519 64 474 49 q 603 106 564 79 q 665 164 642 132 l 699 136 q 608 43 661 78 q 500 -7 556 8 q 397 -22 444 -22 m 206 460 l 560 460 q 545 556 560 510 q 497 633 531 603 q 410 663 464 663 q 276 615 329 663 q 206 460 222 567 z "},"è":{"ha":753,"x_min":58,"x_max":699,"o":"m 397 -22 q 224 23 301 -22 q 103 151 147 68 q 58 346 58 233 q 102 528 58 443 q 225 665 146 613 q 408 717 304 717 q 517 698 467 717 q 607 641 568 679 q 668 545 646 603 q 690 410 690 488 l 201 401 q 224 216 201 296 q 299 92 247 136 q 431 49 350 49 q 519 64 474 49 q 603 106 564 79 q 665 164 642 132 l 699 136 q 608 43 661 78 q 500 -7 556 8 q 397 -22 444 -22 m 206 460 l 560 460 q 545 556 560 510 q 497 633 531 603 q 410 663 464 663 q 276 615 329 663 q 206 460 222 567 m 463 806 l 307 953 q 278 999 282 979 q 282 1033 275 1019 q 294 1051 289 1047 q 312 1060 299 1054 q 344 1060 325 1065 q 385 1025 364 1056 l 501 838 l 463 806 z "},"ẻ":{"ha":753,"x_min":58,"x_max":699,"o":"m 397 -22 q 224 23 301 -22 q 103 151 147 68 q 58 346 58 233 q 102 528 58 443 q 225 665 146 613 q 408 717 304 717 q 517 698 467 717 q 607 641 568 679 q 668 545 646 603 q 690 410 690 488 l 201 401 q 224 216 201 296 q 299 92 247 136 q 431 49 350 49 q 519 64 474 49 q 603 106 564 79 q 665 164 642 132 l 699 136 q 608 43 661 78 q 500 -7 556 8 q 397 -22 444 -22 m 206 460 l 560 460 q 545 556 560 510 q 497 633 531 603 q 410 663 464 663 q 276 615 329 663 q 206 460 222 567 m 367 786 q 384 828 367 811 q 419 860 401 844 q 440 887 433 871 q 446 917 446 903 q 426 967 446 944 q 372 989 407 989 q 328 976 347 989 q 307 947 310 963 q 313 938 310 943 q 315 925 315 932 q 302 899 315 908 q 272 889 289 889 q 241 901 256 889 q 226 942 226 914 q 243 988 226 965 q 292 1024 260 1010 q 371 1039 325 1039 q 483 1003 444 1039 q 522 926 522 968 q 506 871 522 892 q 465 831 490 850 q 436 808 449 818 q 424 786 424 797 l 367 786 z "},"ē":{"ha":753,"x_min":58,"x_max":699,"o":"m 397 -22 q 224 23 301 -22 q 103 151 147 68 q 58 346 58 233 q 102 528 58 443 q 225 665 146 613 q 408 717 304 717 q 517 698 467 717 q 607 641 568 679 q 668 545 646 603 q 690 410 690 488 l 201 401 q 224 216 201 296 q 299 92 247 136 q 431 49 350 49 q 519 64 474 49 q 603 106 564 79 q 665 164 642 132 l 699 136 q 608 43 661 78 q 500 -7 556 8 q 397 -22 444 -22 m 206 460 l 560 460 q 545 556 560 510 q 497 633 531 603 q 410 663 464 663 q 276 615 329 663 q 206 460 222 567 m 204 889 l 204 972 l 572 972 l 572 894 l 204 889 z "},"ę":{"ha":753,"x_min":58,"x_max":699,"o":"m 397 -22 q 224 23 301 -22 q 103 151 147 68 q 58 346 58 233 q 102 528 58 443 q 225 665 146 613 q 408 717 304 717 q 517 698 467 717 q 607 641 568 679 q 668 545 646 603 q 690 410 690 488 l 201 401 q 224 216 201 296 q 299 92 247 136 q 431 49 350 49 q 519 64 474 49 q 603 106 564 79 q 665 164 642 132 l 699 136 q 608 43 661 78 q 500 -7 556 8 q 397 -22 444 -22 m 206 460 l 560 460 q 545 556 560 510 q 497 633 531 603 q 410 663 464 663 q 276 615 329 663 q 206 460 222 567 m 393 -353 q 286 -313 326 -353 q 246 -211 246 -274 q 290 -101 246 -151 q 403 -15 335 -51 q 542 43 471 22 l 542 7 q 451 -37 493 -10 q 383 -101 408 -64 q 358 -183 358 -137 q 384 -253 358 -226 q 444 -279 410 -279 q 492 -268 469 -279 q 535 -240 515 -257 l 558 -265 q 488 -326 532 -299 q 393 -353 443 -353 z "},"ẽ":{"ha":753,"x_min":58,"x_max":699,"o":"m 397 -22 q 224 23 301 -22 q 103 151 147 68 q 58 346 58 233 q 102 528 58 443 q 225 665 146 613 q 408 717 304 717 q 517 698 467 717 q 607 641 568 679 q 668 545 646 603 q 690 410 690 488 l 201 401 q 224 216 201 296 q 299 92 247 136 q 431 49 350 49 q 519 64 474 49 q 603 106 564 79 q 665 164 642 132 l 699 136 q 608 43 661 78 q 500 -7 556 8 q 397 -22 444 -22 m 206 460 l 560 460 q 545 556 560 510 q 497 633 531 603 q 410 663 464 663 q 276 615 329 663 q 206 460 222 567 m 622 982 q 558 882 600 914 q 481 850 517 850 q 406 869 438 850 q 350 906 375 888 q 299 925 325 925 q 245 912 274 925 q 197 867 217 899 l 156 890 q 216 974 174 939 q 297 1010 258 1008 q 371 992 342 1011 q 425 955 400 974 q 481 936 450 936 q 538 954 511 936 q 582 1003 565 972 l 622 982 z "},"ə":{"ha":753,"x_min":63,"x_max":694,"o":"m 349 -22 q 238 -3 289 -22 q 147 53 186 15 q 85 149 107 92 q 63 285 63 207 l 551 293 q 529 479 553 400 q 458 602 506 558 q 339 646 411 646 q 213 613 275 646 q 115 531 151 579 l 82 558 q 170 651 121 617 q 272 701 219 686 q 372 717 325 717 q 534 671 461 717 q 651 545 607 625 q 694 360 694 465 q 651 169 694 256 q 529 30 607 82 q 349 -22 451 -22 m 357 32 q 479 80 428 32 q 547 235 531 128 l 193 235 q 208 139 193 186 q 260 62 224 92 q 357 32 296 32 z "},"ʒ":{"ha":671,"x_min":42,"x_max":611,"o":"m 294 -356 q 155 -330 211 -356 q 70 -265 99 -304 q 42 -185 42 -225 q 58 -133 42 -154 q 106 -111 75 -112 q 141 -119 126 -110 q 163 -142 156 -128 q 171 -174 171 -157 q 140 -237 171 -207 q 203 -292 164 -276 q 294 -307 243 -307 q 426 -231 374 -307 q 478 -22 478 -154 q 453 130 478 74 q 383 210 428 186 q 275 233 338 235 q 250 233 263 233 q 225 233 238 233 l 225 290 l 415 556 q 458 610 435 583 q 494 646 481 638 l 247 642 q 148 588 179 640 q 106 446 117 536 l 63 446 l 79 694 l 610 694 l 610 650 l 365 313 q 353 297 360 304 q 339 283 346 290 q 494 233 435 274 q 583 129 554 193 q 611 -17 611 65 q 572 -189 611 -112 q 461 -310 532 -265 q 294 -356 390 -356 z "},"ǯ":{"ha":671,"x_min":42,"x_max":611,"o":"m 294 -356 q 155 -330 211 -356 q 70 -265 99 -304 q 42 -185 42 -225 q 58 -133 42 -154 q 106 -111 75 -112 q 141 -119 126 -110 q 163 -142 156 -128 q 171 -174 171 -157 q 140 -237 171 -207 q 203 -292 164 -276 q 294 -307 243 -307 q 426 -231 374 -307 q 478 -22 478 -154 q 453 130 478 74 q 383 210 428 186 q 275 233 338 235 q 250 233 263 233 q 225 233 238 233 l 225 290 l 415 556 q 458 610 435 583 q 494 646 481 638 l 247 642 q 148 588 179 640 q 106 446 117 536 l 63 446 l 79 694 l 610 694 l 610 650 l 365 313 q 353 297 360 304 q 339 283 346 290 q 494 233 435 274 q 583 129 554 193 q 611 -17 611 65 q 572 -189 611 -112 q 461 -310 532 -265 q 294 -356 390 -356 m 328 796 l 121 1022 l 158 1067 l 335 915 l 338 915 l 517 1069 l 551 1029 l 331 796 l 328 796 z "},"f":{"ha":469,"x_min":35,"x_max":547,"o":"m 149 724 q 205 967 149 878 q 399 1056 261 1056 q 463 1045 429 1056 q 522 1012 497 1035 q 547 953 547 989 q 533 908 547 926 q 490 890 518 890 q 444 910 457 889 q 431 947 431 932 q 432 964 431 956 q 438 982 433 972 q 410 1000 428 994 q 378 1006 393 1006 q 311 981 335 1006 q 278 918 288 956 q 268 840 268 881 l 268 694 l 456 694 l 456 640 l 268 636 l 269 147 q 269 98 269 119 q 264 53 268 76 q 308 55 286 54 q 351 57 329 56 l 351 0 l 68 0 l 68 42 q 128 63 111 42 q 147 123 144 85 q 150 211 150 161 l 149 635 l 35 632 l 35 694 l 149 694 l 149 724 z "},"g":{"ha":768,"x_min":49,"x_max":790,"o":"m 396 -376 q 194 -349 271 -376 q 83 -278 118 -321 q 49 -189 49 -235 q 69 -113 49 -146 q 119 -57 89 -81 q 176 -22 149 -33 q 106 19 132 -7 q 81 88 81 44 q 119 178 81 136 q 219 231 158 221 q 117 315 156 261 q 79 442 79 369 q 122 587 79 525 q 233 683 165 649 q 372 717 300 717 q 464 703 418 717 q 549 665 510 690 q 588 735 563 704 q 647 783 614 765 q 717 800 681 800 q 772 781 753 800 q 790 731 790 763 q 785 707 790 721 q 766 683 779 693 q 731 674 753 674 q 692 688 707 674 q 672 722 676 701 q 618 690 638 717 q 592 631 599 663 q 645 557 625 600 q 665 465 665 514 q 624 326 665 388 q 517 231 583 265 q 372 197 450 197 q 326 201 346 197 q 279 204 307 204 q 196 179 228 204 q 174 119 164 154 q 242 77 185 86 q 394 64 299 68 q 578 39 501 60 q 695 -26 654 18 q 736 -144 736 -69 q 706 -244 736 -200 q 627 -317 676 -287 q 517 -361 578 -346 q 396 -376 457 -376 m 394 -322 q 581 -278 514 -322 q 647 -174 647 -233 q 613 -95 647 -122 q 518 -58 578 -68 q 381 -46 458 -47 q 307 -42 343 -44 q 238 -35 271 -40 q 179 -96 200 -60 q 158 -172 158 -132 q 223 -281 158 -240 q 394 -322 288 -322 m 376 247 q 462 272 428 247 q 513 340 496 297 q 531 438 531 383 q 513 551 531 499 q 459 636 494 604 q 369 668 424 668 q 253 612 294 668 q 213 472 213 556 q 232 355 213 406 q 288 276 251 304 q 376 247 325 247 z "}}}
